M48
;DRILL file {KiCad 5.0.2-bee76a0~70~ubuntu18.04.1} date Вт 12 мар 2019 09:35:21
;FORMAT={-:-/ absolute / metric / decimal}
FMAT,2
METRIC,TZ
T1C0.200
T2C0.300
T3C0.900
T4C1.000
%
G90
G05
T1
X130.817Y-95.167
X131.383Y-95.733
X127.217Y-93.967
X127.783Y-94.533
X126.017Y-89.167
X126.583Y-89.733
X128.417Y-92.767
X128.983Y-93.333
X124.817Y-90.367
X125.383Y-90.933
X129.617Y-89.167
X130.183Y-89.733
X126.017Y-98.767
X126.583Y-99.333
X126.017Y-96.367
X126.583Y-96.933
X124.817Y-95.167
X125.383Y-95.733
X130.817Y-93.967
X131.383Y-94.533
X130.817Y-92.767
X131.383Y-93.333
X130.817Y-90.367
X131.383Y-90.933
X127.217Y-87.967
X127.783Y-88.533
X129.617Y-98.767
X130.183Y-99.333
X124.817Y-91.567
X125.383Y-92.133
X126.017Y-90.367
X126.583Y-90.933
X128.417Y-91.567
X128.983Y-92.133
X124.817Y-87.967
X125.383Y-88.533
X126.017Y-92.767
X126.583Y-93.333
X128.417Y-97.567
X128.983Y-98.133
X128.417Y-93.967
X128.983Y-94.533
X130.817Y-89.167
X131.383Y-89.733
X128.417Y-89.167
X128.983Y-89.733
X128.417Y-90.367
X128.983Y-90.933
X127.217Y-92.767
X127.783Y-93.333
X128.417Y-87.967
X128.983Y-88.533
X128.417Y-98.767
X128.983Y-99.333
X127.217Y-90.367
X127.783Y-90.933
X127.217Y-98.767
X127.783Y-99.333
X128.417Y-95.167
X128.983Y-95.733
X127.217Y-89.167
X127.783Y-89.733
X130.817Y-97.567
X131.383Y-98.133
X127.217Y-97.567
X127.783Y-98.133
X130.817Y-98.767
X131.383Y-99.333
X124.817Y-92.767
X125.383Y-93.333
X130.817Y-96.367
X131.383Y-96.933
X129.617Y-96.367
X130.183Y-96.933
X126.017Y-97.567
X126.583Y-98.133
X126.017Y-87.967
X126.583Y-88.533
X129.617Y-95.167
X130.183Y-95.733
X124.817Y-96.367
X125.383Y-96.933
X129.617Y-92.767
X130.183Y-93.333
X127.217Y-95.167
X127.783Y-95.733
X126.017Y-93.967
X126.583Y-94.533
X130.817Y-91.567
X131.383Y-92.133
X124.817Y-98.767
X125.383Y-99.333
X127.217Y-91.567
X127.783Y-92.133
X124.817Y-89.167
X125.383Y-89.733
X126.017Y-91.567
X126.583Y-92.133
X126.017Y-95.167
X126.583Y-95.733
X129.617Y-91.567
X130.183Y-92.133
X129.617Y-87.967
X130.183Y-88.533
X129.617Y-90.367
X130.183Y-90.933
X128.417Y-96.367
X128.983Y-96.933
X130.817Y-87.967
X131.383Y-88.533
X124.817Y-97.567
X125.383Y-98.133
X127.217Y-96.367
X127.783Y-96.933
X129.617Y-93.967
X130.183Y-94.533
X129.617Y-97.567
X130.183Y-98.133
X124.817Y-93.967
X125.383Y-94.533
T2
X101.37Y-105.478
X101.39Y-107.478
X101.42Y-90.5
X101.43Y-88.5
X101.43Y-109.478
X101.44Y-82.478
X101.44Y-84.5
X101.44Y-86.5
X101.44Y-92.478
X101.44Y-94.478
X101.47Y-111.478
X101.48Y-96.478
X101.5Y-98.478
X101.52Y-113.478
X101.54Y-100.5
X101.54Y-115.478
X110.1Y-88.65
X110.1Y-90.05
X110.1Y-91.45
X110.1Y-92.85
X110.1Y-94.25
X110.1Y-95.65
X110.1Y-97.05
X110.1Y-98.45
X110.1Y-99.85
X110.1Y-101.25
X111.5Y-88.65
X111.5Y-90.05
X111.5Y-91.45
X111.5Y-92.85
X111.5Y-94.25
X111.5Y-95.65
X111.5Y-97.05
X111.5Y-98.45
X111.5Y-99.85
X111.5Y-101.25
X112.9Y-88.65
X112.9Y-90.05
X112.9Y-91.45
X112.9Y-92.85
X112.9Y-94.25
X112.9Y-95.65
X112.9Y-97.05
X112.9Y-98.45
X112.9Y-99.85
X112.9Y-101.25
X114.3Y-88.65
X114.3Y-90.05
X114.3Y-91.45
X114.3Y-92.85
X114.3Y-94.25
X114.3Y-95.65
X114.3Y-97.05
X114.3Y-98.45
X114.3Y-99.85
X114.3Y-101.25
X115.7Y-88.65
X115.7Y-90.05
X115.7Y-91.45
X115.7Y-92.85
X115.7Y-94.25
X115.7Y-95.65
X115.7Y-97.05
X115.7Y-98.45
X115.7Y-99.85
X115.7Y-101.25
X118.87Y-82.47
X118.87Y-96.48
X118.93Y-89.48
X118.98Y-91.67
X118.98Y-94.48
X118.99Y-98.56
X119.12Y-102.15
X119.22Y-86.5
X119.25Y-84.5
X119.26Y-88.5
X121.01Y-105.48
X124.48Y-106.43
X126.5Y-106.69
X128.5Y-106.59
X130.44Y-107.12
X132.5Y-106.94
T3
X100.1Y-118.8
X100.1Y-121.34
X100.1Y-123.88
X100.1Y-126.42
X100.1Y-128.96
X100.1Y-131.5
X102.64Y-118.8
X102.64Y-121.34
X102.64Y-123.88
X102.64Y-126.42
X102.64Y-128.96
X102.64Y-131.5
X105.18Y-118.8
X105.18Y-121.34
X105.18Y-123.88
X105.18Y-126.42
X105.18Y-128.96
X105.18Y-131.5
X107.72Y-118.8
X107.72Y-121.34
X107.72Y-123.88
X107.72Y-126.42
X107.72Y-128.96
X107.72Y-131.5
X110.26Y-118.8
X110.26Y-121.34
X110.26Y-123.88
X110.26Y-126.42
X110.26Y-128.96
X110.26Y-131.5
X112.8Y-118.8
X112.8Y-121.34
X112.8Y-123.88
X112.8Y-126.42
X112.8Y-128.96
X112.8Y-131.5
X115.34Y-118.8
X115.34Y-121.34
X115.34Y-123.88
X115.34Y-126.42
X115.34Y-128.96
X115.34Y-131.5
X117.88Y-118.8
X117.88Y-121.34
X117.88Y-123.88
X117.88Y-126.42
X117.88Y-128.96
X117.88Y-131.5
X120.42Y-118.8
X120.42Y-121.34
X120.42Y-123.88
X120.42Y-126.42
X120.42Y-128.96
X120.42Y-131.5
X122.96Y-118.8
X122.96Y-121.34
X122.96Y-123.88
X122.96Y-126.42
X122.96Y-128.96
X122.96Y-131.5
X125.5Y-118.8
X125.5Y-121.34
X125.5Y-123.88
X125.5Y-126.42
X125.5Y-128.96
X125.5Y-131.5
X128.04Y-118.8
X128.04Y-121.34
X128.04Y-123.88
X128.04Y-126.42
X128.04Y-128.96
X128.04Y-131.5
X130.58Y-118.8
X130.58Y-121.34
X130.58Y-123.88
X130.58Y-126.42
X130.58Y-128.96
X130.58Y-131.5
X133.12Y-118.8
X133.12Y-121.34
X133.12Y-123.88
X133.12Y-126.42
X133.12Y-128.96
X133.12Y-131.5
T4
X95.01Y-83.24
X95.01Y-85.78
X95.01Y-88.32
X95.01Y-90.86
X95.01Y-93.4
X95.01Y-95.94
X95.01Y-98.48
X95.01Y-101.02
X95.01Y-103.56
X95.01Y-106.1
X95.01Y-108.64
X95.01Y-111.18
X95.01Y-113.72
X95.01Y-116.26
X95.01Y-118.8
X95.01Y-121.34
X95.01Y-123.88
X95.01Y-126.42
X95.01Y-128.96
X95.01Y-131.5
X97.55Y-83.24
X97.55Y-85.78
X97.55Y-88.32
X97.55Y-90.86
X97.55Y-93.4
X97.55Y-95.94
X97.55Y-98.48
X97.55Y-101.02
X97.55Y-103.56
X97.55Y-106.1
X97.55Y-108.64
X97.55Y-111.18
X97.55Y-113.72
X97.55Y-116.26
X97.55Y-118.8
X97.55Y-121.34
X97.55Y-123.88
X97.55Y-126.42
X97.55Y-128.96
X97.55Y-131.5
T0
M30
