G04 #@! TF.GenerationSoftware,KiCad,Pcbnew,5.0.2-bee76a0~70~ubuntu18.04.1*
G04 #@! TF.CreationDate,2019-03-12T09:35:17+03:00*
G04 #@! TF.ProjectId,LED_matrix,4c45445f-6d61-4747-9269-782e6b696361,rev?*
G04 #@! TF.SameCoordinates,Original*
G04 #@! TF.FileFunction,Soldermask,Top*
G04 #@! TF.FilePolarity,Negative*
%FSLAX46Y46*%
G04 Gerber Fmt 4.6, Leading zero omitted, Abs format (unit mm)*
G04 Created by KiCad (PCBNEW 5.0.2-bee76a0~70~ubuntu18.04.1) date Вт 12 мар 2019 09:35:17*
%MOMM*%
%LPD*%
G01*
G04 APERTURE LIST*
%ADD10C,1.000000*%
%ADD11C,0.010000*%
%ADD12C,0.100000*%
G04 APERTURE END LIST*
D10*
X133520000Y-131500000D02*
G75*
G03X133520000Y-131500000I-400000J0D01*
G01*
X130980000Y-131500000D02*
G75*
G03X130980000Y-131500000I-400000J0D01*
G01*
X128440000Y-131500000D02*
G75*
G03X128440000Y-131500000I-400000J0D01*
G01*
X125900000Y-131500000D02*
G75*
G03X125900000Y-131500000I-400000J0D01*
G01*
X123360000Y-131500000D02*
G75*
G03X123360000Y-131500000I-400000J0D01*
G01*
X120820000Y-131500000D02*
G75*
G03X120820000Y-131500000I-400000J0D01*
G01*
X118280000Y-131500000D02*
G75*
G03X118280000Y-131500000I-400000J0D01*
G01*
X115740000Y-131500000D02*
G75*
G03X115740000Y-131500000I-400000J0D01*
G01*
X113200000Y-131500000D02*
G75*
G03X113200000Y-131500000I-400000J0D01*
G01*
X110660000Y-131500000D02*
G75*
G03X110660000Y-131500000I-400000J0D01*
G01*
X108120000Y-131500000D02*
G75*
G03X108120000Y-131500000I-400000J0D01*
G01*
X105580000Y-131500000D02*
G75*
G03X105580000Y-131500000I-400000J0D01*
G01*
X103040000Y-131500000D02*
G75*
G03X103040000Y-131500000I-400000J0D01*
G01*
X100500000Y-131500000D02*
G75*
G03X100500000Y-131500000I-400000J0D01*
G01*
X133520000Y-128960000D02*
G75*
G03X133520000Y-128960000I-400000J0D01*
G01*
X130980000Y-128960000D02*
G75*
G03X130980000Y-128960000I-400000J0D01*
G01*
X128440000Y-128960000D02*
G75*
G03X128440000Y-128960000I-400000J0D01*
G01*
X125900000Y-128960000D02*
G75*
G03X125900000Y-128960000I-400000J0D01*
G01*
X123360000Y-128960000D02*
G75*
G03X123360000Y-128960000I-400000J0D01*
G01*
X120820000Y-128960000D02*
G75*
G03X120820000Y-128960000I-400000J0D01*
G01*
X118280000Y-128960000D02*
G75*
G03X118280000Y-128960000I-400000J0D01*
G01*
X115740000Y-128960000D02*
G75*
G03X115740000Y-128960000I-400000J0D01*
G01*
X113200000Y-128960000D02*
G75*
G03X113200000Y-128960000I-400000J0D01*
G01*
X110660000Y-128960000D02*
G75*
G03X110660000Y-128960000I-400000J0D01*
G01*
X108120000Y-128960000D02*
G75*
G03X108120000Y-128960000I-400000J0D01*
G01*
X105580000Y-128960000D02*
G75*
G03X105580000Y-128960000I-400000J0D01*
G01*
X103040000Y-128960000D02*
G75*
G03X103040000Y-128960000I-400000J0D01*
G01*
X100500000Y-128960000D02*
G75*
G03X100500000Y-128960000I-400000J0D01*
G01*
X133520000Y-126420000D02*
G75*
G03X133520000Y-126420000I-400000J0D01*
G01*
X130980000Y-126420000D02*
G75*
G03X130980000Y-126420000I-400000J0D01*
G01*
X128440000Y-126420000D02*
G75*
G03X128440000Y-126420000I-400000J0D01*
G01*
X125900000Y-126420000D02*
G75*
G03X125900000Y-126420000I-400000J0D01*
G01*
X123360000Y-126420000D02*
G75*
G03X123360000Y-126420000I-400000J0D01*
G01*
X120820000Y-126420000D02*
G75*
G03X120820000Y-126420000I-400000J0D01*
G01*
X118280000Y-126420000D02*
G75*
G03X118280000Y-126420000I-400000J0D01*
G01*
X115740000Y-126420000D02*
G75*
G03X115740000Y-126420000I-400000J0D01*
G01*
X113200000Y-126420000D02*
G75*
G03X113200000Y-126420000I-400000J0D01*
G01*
X110660000Y-126420000D02*
G75*
G03X110660000Y-126420000I-400000J0D01*
G01*
X108120000Y-126420000D02*
G75*
G03X108120000Y-126420000I-400000J0D01*
G01*
X105580000Y-126420000D02*
G75*
G03X105580000Y-126420000I-400000J0D01*
G01*
X103040000Y-126420000D02*
G75*
G03X103040000Y-126420000I-400000J0D01*
G01*
X100500000Y-126420000D02*
G75*
G03X100500000Y-126420000I-400000J0D01*
G01*
X133520000Y-123880000D02*
G75*
G03X133520000Y-123880000I-400000J0D01*
G01*
X130980000Y-123880000D02*
G75*
G03X130980000Y-123880000I-400000J0D01*
G01*
X128440000Y-123880000D02*
G75*
G03X128440000Y-123880000I-400000J0D01*
G01*
X125900000Y-123880000D02*
G75*
G03X125900000Y-123880000I-400000J0D01*
G01*
X123360000Y-123880000D02*
G75*
G03X123360000Y-123880000I-400000J0D01*
G01*
X120820000Y-123880000D02*
G75*
G03X120820000Y-123880000I-400000J0D01*
G01*
X118280000Y-123880000D02*
G75*
G03X118280000Y-123880000I-400000J0D01*
G01*
X115740000Y-123880000D02*
G75*
G03X115740000Y-123880000I-400000J0D01*
G01*
X113200000Y-123880000D02*
G75*
G03X113200000Y-123880000I-400000J0D01*
G01*
X110660000Y-123880000D02*
G75*
G03X110660000Y-123880000I-400000J0D01*
G01*
X108120000Y-123880000D02*
G75*
G03X108120000Y-123880000I-400000J0D01*
G01*
X105580000Y-123880000D02*
G75*
G03X105580000Y-123880000I-400000J0D01*
G01*
X103040000Y-123880000D02*
G75*
G03X103040000Y-123880000I-400000J0D01*
G01*
X100500000Y-123880000D02*
G75*
G03X100500000Y-123880000I-400000J0D01*
G01*
X133520000Y-121340000D02*
G75*
G03X133520000Y-121340000I-400000J0D01*
G01*
X130980000Y-121340000D02*
G75*
G03X130980000Y-121340000I-400000J0D01*
G01*
X128440000Y-121340000D02*
G75*
G03X128440000Y-121340000I-400000J0D01*
G01*
X125900000Y-121340000D02*
G75*
G03X125900000Y-121340000I-400000J0D01*
G01*
X123360000Y-121340000D02*
G75*
G03X123360000Y-121340000I-400000J0D01*
G01*
X120820000Y-121340000D02*
G75*
G03X120820000Y-121340000I-400000J0D01*
G01*
X118280000Y-121340000D02*
G75*
G03X118280000Y-121340000I-400000J0D01*
G01*
X115740000Y-121340000D02*
G75*
G03X115740000Y-121340000I-400000J0D01*
G01*
X113200000Y-121340000D02*
G75*
G03X113200000Y-121340000I-400000J0D01*
G01*
X110660000Y-121340000D02*
G75*
G03X110660000Y-121340000I-400000J0D01*
G01*
X108120000Y-121340000D02*
G75*
G03X108120000Y-121340000I-400000J0D01*
G01*
X105580000Y-121340000D02*
G75*
G03X105580000Y-121340000I-400000J0D01*
G01*
X103040000Y-121340000D02*
G75*
G03X103040000Y-121340000I-400000J0D01*
G01*
X100500000Y-121340000D02*
G75*
G03X100500000Y-121340000I-400000J0D01*
G01*
X133520000Y-118800000D02*
G75*
G03X133520000Y-118800000I-400000J0D01*
G01*
X130980000Y-118800000D02*
G75*
G03X130980000Y-118800000I-400000J0D01*
G01*
X128440000Y-118800000D02*
G75*
G03X128440000Y-118800000I-400000J0D01*
G01*
X125900000Y-118800000D02*
G75*
G03X125900000Y-118800000I-400000J0D01*
G01*
X123360000Y-118800000D02*
G75*
G03X123360000Y-118800000I-400000J0D01*
G01*
X120820000Y-118800000D02*
G75*
G03X120820000Y-118800000I-400000J0D01*
G01*
X118280000Y-118800000D02*
G75*
G03X118280000Y-118800000I-400000J0D01*
G01*
X115740000Y-118800000D02*
G75*
G03X115740000Y-118800000I-400000J0D01*
G01*
X113200000Y-118800000D02*
G75*
G03X113200000Y-118800000I-400000J0D01*
G01*
X110660000Y-118800000D02*
G75*
G03X110660000Y-118800000I-400000J0D01*
G01*
X108120000Y-118800000D02*
G75*
G03X108120000Y-118800000I-400000J0D01*
G01*
X105580000Y-118800000D02*
G75*
G03X105580000Y-118800000I-400000J0D01*
G01*
X103040000Y-118800000D02*
G75*
G03X103040000Y-118800000I-400000J0D01*
G01*
X100500000Y-118800000D02*
G75*
G03X100500000Y-118800000I-400000J0D01*
G01*
D11*
G04 #@! TO.C,D1*
G36*
X108785822Y-87931802D02*
X109252513Y-88398492D01*
X109648492Y-88002513D01*
X109181802Y-87535822D01*
X108785822Y-87931802D01*
G37*
X108785822Y-87931802D02*
X109252513Y-88398492D01*
X109648492Y-88002513D01*
X109181802Y-87535822D01*
X108785822Y-87931802D01*
G36*
X109818198Y-88964178D02*
X110214178Y-88568198D01*
X109747487Y-88101508D01*
X109351508Y-88497487D01*
X109818198Y-88964178D01*
G37*
X109818198Y-88964178D02*
X110214178Y-88568198D01*
X109747487Y-88101508D01*
X109351508Y-88497487D01*
X109818198Y-88964178D01*
G04 #@! TO.C,D2*
G36*
X108785822Y-89331802D02*
X109252513Y-89798492D01*
X109648492Y-89402513D01*
X109181802Y-88935822D01*
X108785822Y-89331802D01*
G37*
X108785822Y-89331802D02*
X109252513Y-89798492D01*
X109648492Y-89402513D01*
X109181802Y-88935822D01*
X108785822Y-89331802D01*
G36*
X109818198Y-90364178D02*
X110214178Y-89968198D01*
X109747487Y-89501508D01*
X109351508Y-89897487D01*
X109818198Y-90364178D01*
G37*
X109818198Y-90364178D02*
X110214178Y-89968198D01*
X109747487Y-89501508D01*
X109351508Y-89897487D01*
X109818198Y-90364178D01*
G04 #@! TO.C,D3*
G36*
X108785822Y-90731802D02*
X109252513Y-91198492D01*
X109648492Y-90802513D01*
X109181802Y-90335822D01*
X108785822Y-90731802D01*
G37*
X108785822Y-90731802D02*
X109252513Y-91198492D01*
X109648492Y-90802513D01*
X109181802Y-90335822D01*
X108785822Y-90731802D01*
G36*
X109818198Y-91764178D02*
X110214178Y-91368198D01*
X109747487Y-90901508D01*
X109351508Y-91297487D01*
X109818198Y-91764178D01*
G37*
X109818198Y-91764178D02*
X110214178Y-91368198D01*
X109747487Y-90901508D01*
X109351508Y-91297487D01*
X109818198Y-91764178D01*
G04 #@! TO.C,D4*
G36*
X108785822Y-92131802D02*
X109252513Y-92598492D01*
X109648492Y-92202513D01*
X109181802Y-91735822D01*
X108785822Y-92131802D01*
G37*
X108785822Y-92131802D02*
X109252513Y-92598492D01*
X109648492Y-92202513D01*
X109181802Y-91735822D01*
X108785822Y-92131802D01*
G36*
X109818198Y-93164178D02*
X110214178Y-92768198D01*
X109747487Y-92301508D01*
X109351508Y-92697487D01*
X109818198Y-93164178D01*
G37*
X109818198Y-93164178D02*
X110214178Y-92768198D01*
X109747487Y-92301508D01*
X109351508Y-92697487D01*
X109818198Y-93164178D01*
G04 #@! TO.C,D5*
G36*
X108785822Y-93531802D02*
X109252513Y-93998492D01*
X109648492Y-93602513D01*
X109181802Y-93135822D01*
X108785822Y-93531802D01*
G37*
X108785822Y-93531802D02*
X109252513Y-93998492D01*
X109648492Y-93602513D01*
X109181802Y-93135822D01*
X108785822Y-93531802D01*
G36*
X109818198Y-94564178D02*
X110214178Y-94168198D01*
X109747487Y-93701508D01*
X109351508Y-94097487D01*
X109818198Y-94564178D01*
G37*
X109818198Y-94564178D02*
X110214178Y-94168198D01*
X109747487Y-93701508D01*
X109351508Y-94097487D01*
X109818198Y-94564178D01*
G04 #@! TO.C,D6*
G36*
X108785822Y-94931802D02*
X109252513Y-95398492D01*
X109648492Y-95002513D01*
X109181802Y-94535822D01*
X108785822Y-94931802D01*
G37*
X108785822Y-94931802D02*
X109252513Y-95398492D01*
X109648492Y-95002513D01*
X109181802Y-94535822D01*
X108785822Y-94931802D01*
G36*
X109818198Y-95964178D02*
X110214178Y-95568198D01*
X109747487Y-95101508D01*
X109351508Y-95497487D01*
X109818198Y-95964178D01*
G37*
X109818198Y-95964178D02*
X110214178Y-95568198D01*
X109747487Y-95101508D01*
X109351508Y-95497487D01*
X109818198Y-95964178D01*
G04 #@! TO.C,D7*
G36*
X108785822Y-96331802D02*
X109252513Y-96798492D01*
X109648492Y-96402513D01*
X109181802Y-95935822D01*
X108785822Y-96331802D01*
G37*
X108785822Y-96331802D02*
X109252513Y-96798492D01*
X109648492Y-96402513D01*
X109181802Y-95935822D01*
X108785822Y-96331802D01*
G36*
X109818198Y-97364178D02*
X110214178Y-96968198D01*
X109747487Y-96501508D01*
X109351508Y-96897487D01*
X109818198Y-97364178D01*
G37*
X109818198Y-97364178D02*
X110214178Y-96968198D01*
X109747487Y-96501508D01*
X109351508Y-96897487D01*
X109818198Y-97364178D01*
G04 #@! TO.C,D8*
G36*
X108785822Y-97731802D02*
X109252513Y-98198492D01*
X109648492Y-97802513D01*
X109181802Y-97335822D01*
X108785822Y-97731802D01*
G37*
X108785822Y-97731802D02*
X109252513Y-98198492D01*
X109648492Y-97802513D01*
X109181802Y-97335822D01*
X108785822Y-97731802D01*
G36*
X109818198Y-98764178D02*
X110214178Y-98368198D01*
X109747487Y-97901508D01*
X109351508Y-98297487D01*
X109818198Y-98764178D01*
G37*
X109818198Y-98764178D02*
X110214178Y-98368198D01*
X109747487Y-97901508D01*
X109351508Y-98297487D01*
X109818198Y-98764178D01*
G04 #@! TO.C,D9*
G36*
X108785822Y-99131802D02*
X109252513Y-99598492D01*
X109648492Y-99202513D01*
X109181802Y-98735822D01*
X108785822Y-99131802D01*
G37*
X108785822Y-99131802D02*
X109252513Y-99598492D01*
X109648492Y-99202513D01*
X109181802Y-98735822D01*
X108785822Y-99131802D01*
G36*
X109818198Y-100164178D02*
X110214178Y-99768198D01*
X109747487Y-99301508D01*
X109351508Y-99697487D01*
X109818198Y-100164178D01*
G37*
X109818198Y-100164178D02*
X110214178Y-99768198D01*
X109747487Y-99301508D01*
X109351508Y-99697487D01*
X109818198Y-100164178D01*
G04 #@! TO.C,D10*
G36*
X108785822Y-100531802D02*
X109252513Y-100998492D01*
X109648492Y-100602513D01*
X109181802Y-100135822D01*
X108785822Y-100531802D01*
G37*
X108785822Y-100531802D02*
X109252513Y-100998492D01*
X109648492Y-100602513D01*
X109181802Y-100135822D01*
X108785822Y-100531802D01*
G36*
X109818198Y-101564178D02*
X110214178Y-101168198D01*
X109747487Y-100701508D01*
X109351508Y-101097487D01*
X109818198Y-101564178D01*
G37*
X109818198Y-101564178D02*
X110214178Y-101168198D01*
X109747487Y-100701508D01*
X109351508Y-101097487D01*
X109818198Y-101564178D01*
G04 #@! TO.C,D11*
G36*
X110185822Y-87931802D02*
X110652513Y-88398492D01*
X111048492Y-88002513D01*
X110581802Y-87535822D01*
X110185822Y-87931802D01*
G37*
X110185822Y-87931802D02*
X110652513Y-88398492D01*
X111048492Y-88002513D01*
X110581802Y-87535822D01*
X110185822Y-87931802D01*
G36*
X111218198Y-88964178D02*
X111614178Y-88568198D01*
X111147487Y-88101508D01*
X110751508Y-88497487D01*
X111218198Y-88964178D01*
G37*
X111218198Y-88964178D02*
X111614178Y-88568198D01*
X111147487Y-88101508D01*
X110751508Y-88497487D01*
X111218198Y-88964178D01*
G04 #@! TO.C,D12*
G36*
X110185822Y-89331802D02*
X110652513Y-89798492D01*
X111048492Y-89402513D01*
X110581802Y-88935822D01*
X110185822Y-89331802D01*
G37*
X110185822Y-89331802D02*
X110652513Y-89798492D01*
X111048492Y-89402513D01*
X110581802Y-88935822D01*
X110185822Y-89331802D01*
G36*
X111218198Y-90364178D02*
X111614178Y-89968198D01*
X111147487Y-89501508D01*
X110751508Y-89897487D01*
X111218198Y-90364178D01*
G37*
X111218198Y-90364178D02*
X111614178Y-89968198D01*
X111147487Y-89501508D01*
X110751508Y-89897487D01*
X111218198Y-90364178D01*
G04 #@! TO.C,D13*
G36*
X110185822Y-90731802D02*
X110652513Y-91198492D01*
X111048492Y-90802513D01*
X110581802Y-90335822D01*
X110185822Y-90731802D01*
G37*
X110185822Y-90731802D02*
X110652513Y-91198492D01*
X111048492Y-90802513D01*
X110581802Y-90335822D01*
X110185822Y-90731802D01*
G36*
X111218198Y-91764178D02*
X111614178Y-91368198D01*
X111147487Y-90901508D01*
X110751508Y-91297487D01*
X111218198Y-91764178D01*
G37*
X111218198Y-91764178D02*
X111614178Y-91368198D01*
X111147487Y-90901508D01*
X110751508Y-91297487D01*
X111218198Y-91764178D01*
G04 #@! TO.C,D14*
G36*
X110185822Y-92131802D02*
X110652513Y-92598492D01*
X111048492Y-92202513D01*
X110581802Y-91735822D01*
X110185822Y-92131802D01*
G37*
X110185822Y-92131802D02*
X110652513Y-92598492D01*
X111048492Y-92202513D01*
X110581802Y-91735822D01*
X110185822Y-92131802D01*
G36*
X111218198Y-93164178D02*
X111614178Y-92768198D01*
X111147487Y-92301508D01*
X110751508Y-92697487D01*
X111218198Y-93164178D01*
G37*
X111218198Y-93164178D02*
X111614178Y-92768198D01*
X111147487Y-92301508D01*
X110751508Y-92697487D01*
X111218198Y-93164178D01*
G04 #@! TO.C,D15*
G36*
X110185822Y-93531802D02*
X110652513Y-93998492D01*
X111048492Y-93602513D01*
X110581802Y-93135822D01*
X110185822Y-93531802D01*
G37*
X110185822Y-93531802D02*
X110652513Y-93998492D01*
X111048492Y-93602513D01*
X110581802Y-93135822D01*
X110185822Y-93531802D01*
G36*
X111218198Y-94564178D02*
X111614178Y-94168198D01*
X111147487Y-93701508D01*
X110751508Y-94097487D01*
X111218198Y-94564178D01*
G37*
X111218198Y-94564178D02*
X111614178Y-94168198D01*
X111147487Y-93701508D01*
X110751508Y-94097487D01*
X111218198Y-94564178D01*
G04 #@! TO.C,D16*
G36*
X110185822Y-94931802D02*
X110652513Y-95398492D01*
X111048492Y-95002513D01*
X110581802Y-94535822D01*
X110185822Y-94931802D01*
G37*
X110185822Y-94931802D02*
X110652513Y-95398492D01*
X111048492Y-95002513D01*
X110581802Y-94535822D01*
X110185822Y-94931802D01*
G36*
X111218198Y-95964178D02*
X111614178Y-95568198D01*
X111147487Y-95101508D01*
X110751508Y-95497487D01*
X111218198Y-95964178D01*
G37*
X111218198Y-95964178D02*
X111614178Y-95568198D01*
X111147487Y-95101508D01*
X110751508Y-95497487D01*
X111218198Y-95964178D01*
G04 #@! TO.C,D17*
G36*
X110185822Y-96331802D02*
X110652513Y-96798492D01*
X111048492Y-96402513D01*
X110581802Y-95935822D01*
X110185822Y-96331802D01*
G37*
X110185822Y-96331802D02*
X110652513Y-96798492D01*
X111048492Y-96402513D01*
X110581802Y-95935822D01*
X110185822Y-96331802D01*
G36*
X111218198Y-97364178D02*
X111614178Y-96968198D01*
X111147487Y-96501508D01*
X110751508Y-96897487D01*
X111218198Y-97364178D01*
G37*
X111218198Y-97364178D02*
X111614178Y-96968198D01*
X111147487Y-96501508D01*
X110751508Y-96897487D01*
X111218198Y-97364178D01*
G04 #@! TO.C,D18*
G36*
X110185822Y-97731802D02*
X110652513Y-98198492D01*
X111048492Y-97802513D01*
X110581802Y-97335822D01*
X110185822Y-97731802D01*
G37*
X110185822Y-97731802D02*
X110652513Y-98198492D01*
X111048492Y-97802513D01*
X110581802Y-97335822D01*
X110185822Y-97731802D01*
G36*
X111218198Y-98764178D02*
X111614178Y-98368198D01*
X111147487Y-97901508D01*
X110751508Y-98297487D01*
X111218198Y-98764178D01*
G37*
X111218198Y-98764178D02*
X111614178Y-98368198D01*
X111147487Y-97901508D01*
X110751508Y-98297487D01*
X111218198Y-98764178D01*
G04 #@! TO.C,D19*
G36*
X110185822Y-99131802D02*
X110652513Y-99598492D01*
X111048492Y-99202513D01*
X110581802Y-98735822D01*
X110185822Y-99131802D01*
G37*
X110185822Y-99131802D02*
X110652513Y-99598492D01*
X111048492Y-99202513D01*
X110581802Y-98735822D01*
X110185822Y-99131802D01*
G36*
X111218198Y-100164178D02*
X111614178Y-99768198D01*
X111147487Y-99301508D01*
X110751508Y-99697487D01*
X111218198Y-100164178D01*
G37*
X111218198Y-100164178D02*
X111614178Y-99768198D01*
X111147487Y-99301508D01*
X110751508Y-99697487D01*
X111218198Y-100164178D01*
G04 #@! TO.C,D20*
G36*
X110185822Y-100531802D02*
X110652513Y-100998492D01*
X111048492Y-100602513D01*
X110581802Y-100135822D01*
X110185822Y-100531802D01*
G37*
X110185822Y-100531802D02*
X110652513Y-100998492D01*
X111048492Y-100602513D01*
X110581802Y-100135822D01*
X110185822Y-100531802D01*
G36*
X111218198Y-101564178D02*
X111614178Y-101168198D01*
X111147487Y-100701508D01*
X110751508Y-101097487D01*
X111218198Y-101564178D01*
G37*
X111218198Y-101564178D02*
X111614178Y-101168198D01*
X111147487Y-100701508D01*
X110751508Y-101097487D01*
X111218198Y-101564178D01*
G04 #@! TO.C,D21*
G36*
X111585822Y-87931802D02*
X112052513Y-88398492D01*
X112448492Y-88002513D01*
X111981802Y-87535822D01*
X111585822Y-87931802D01*
G37*
X111585822Y-87931802D02*
X112052513Y-88398492D01*
X112448492Y-88002513D01*
X111981802Y-87535822D01*
X111585822Y-87931802D01*
G36*
X112618198Y-88964178D02*
X113014178Y-88568198D01*
X112547487Y-88101508D01*
X112151508Y-88497487D01*
X112618198Y-88964178D01*
G37*
X112618198Y-88964178D02*
X113014178Y-88568198D01*
X112547487Y-88101508D01*
X112151508Y-88497487D01*
X112618198Y-88964178D01*
G04 #@! TO.C,D22*
G36*
X111585822Y-89331802D02*
X112052513Y-89798492D01*
X112448492Y-89402513D01*
X111981802Y-88935822D01*
X111585822Y-89331802D01*
G37*
X111585822Y-89331802D02*
X112052513Y-89798492D01*
X112448492Y-89402513D01*
X111981802Y-88935822D01*
X111585822Y-89331802D01*
G36*
X112618198Y-90364178D02*
X113014178Y-89968198D01*
X112547487Y-89501508D01*
X112151508Y-89897487D01*
X112618198Y-90364178D01*
G37*
X112618198Y-90364178D02*
X113014178Y-89968198D01*
X112547487Y-89501508D01*
X112151508Y-89897487D01*
X112618198Y-90364178D01*
G04 #@! TO.C,D23*
G36*
X111585822Y-90731802D02*
X112052513Y-91198492D01*
X112448492Y-90802513D01*
X111981802Y-90335822D01*
X111585822Y-90731802D01*
G37*
X111585822Y-90731802D02*
X112052513Y-91198492D01*
X112448492Y-90802513D01*
X111981802Y-90335822D01*
X111585822Y-90731802D01*
G36*
X112618198Y-91764178D02*
X113014178Y-91368198D01*
X112547487Y-90901508D01*
X112151508Y-91297487D01*
X112618198Y-91764178D01*
G37*
X112618198Y-91764178D02*
X113014178Y-91368198D01*
X112547487Y-90901508D01*
X112151508Y-91297487D01*
X112618198Y-91764178D01*
G04 #@! TO.C,D24*
G36*
X111585822Y-92131802D02*
X112052513Y-92598492D01*
X112448492Y-92202513D01*
X111981802Y-91735822D01*
X111585822Y-92131802D01*
G37*
X111585822Y-92131802D02*
X112052513Y-92598492D01*
X112448492Y-92202513D01*
X111981802Y-91735822D01*
X111585822Y-92131802D01*
G36*
X112618198Y-93164178D02*
X113014178Y-92768198D01*
X112547487Y-92301508D01*
X112151508Y-92697487D01*
X112618198Y-93164178D01*
G37*
X112618198Y-93164178D02*
X113014178Y-92768198D01*
X112547487Y-92301508D01*
X112151508Y-92697487D01*
X112618198Y-93164178D01*
G04 #@! TO.C,D25*
G36*
X111585822Y-93531802D02*
X112052513Y-93998492D01*
X112448492Y-93602513D01*
X111981802Y-93135822D01*
X111585822Y-93531802D01*
G37*
X111585822Y-93531802D02*
X112052513Y-93998492D01*
X112448492Y-93602513D01*
X111981802Y-93135822D01*
X111585822Y-93531802D01*
G36*
X112618198Y-94564178D02*
X113014178Y-94168198D01*
X112547487Y-93701508D01*
X112151508Y-94097487D01*
X112618198Y-94564178D01*
G37*
X112618198Y-94564178D02*
X113014178Y-94168198D01*
X112547487Y-93701508D01*
X112151508Y-94097487D01*
X112618198Y-94564178D01*
G04 #@! TO.C,D26*
G36*
X111585822Y-94931802D02*
X112052513Y-95398492D01*
X112448492Y-95002513D01*
X111981802Y-94535822D01*
X111585822Y-94931802D01*
G37*
X111585822Y-94931802D02*
X112052513Y-95398492D01*
X112448492Y-95002513D01*
X111981802Y-94535822D01*
X111585822Y-94931802D01*
G36*
X112618198Y-95964178D02*
X113014178Y-95568198D01*
X112547487Y-95101508D01*
X112151508Y-95497487D01*
X112618198Y-95964178D01*
G37*
X112618198Y-95964178D02*
X113014178Y-95568198D01*
X112547487Y-95101508D01*
X112151508Y-95497487D01*
X112618198Y-95964178D01*
G04 #@! TO.C,D27*
G36*
X111585822Y-96331802D02*
X112052513Y-96798492D01*
X112448492Y-96402513D01*
X111981802Y-95935822D01*
X111585822Y-96331802D01*
G37*
X111585822Y-96331802D02*
X112052513Y-96798492D01*
X112448492Y-96402513D01*
X111981802Y-95935822D01*
X111585822Y-96331802D01*
G36*
X112618198Y-97364178D02*
X113014178Y-96968198D01*
X112547487Y-96501508D01*
X112151508Y-96897487D01*
X112618198Y-97364178D01*
G37*
X112618198Y-97364178D02*
X113014178Y-96968198D01*
X112547487Y-96501508D01*
X112151508Y-96897487D01*
X112618198Y-97364178D01*
G04 #@! TO.C,D28*
G36*
X111585822Y-97731802D02*
X112052513Y-98198492D01*
X112448492Y-97802513D01*
X111981802Y-97335822D01*
X111585822Y-97731802D01*
G37*
X111585822Y-97731802D02*
X112052513Y-98198492D01*
X112448492Y-97802513D01*
X111981802Y-97335822D01*
X111585822Y-97731802D01*
G36*
X112618198Y-98764178D02*
X113014178Y-98368198D01*
X112547487Y-97901508D01*
X112151508Y-98297487D01*
X112618198Y-98764178D01*
G37*
X112618198Y-98764178D02*
X113014178Y-98368198D01*
X112547487Y-97901508D01*
X112151508Y-98297487D01*
X112618198Y-98764178D01*
G04 #@! TO.C,D29*
G36*
X111585822Y-99131802D02*
X112052513Y-99598492D01*
X112448492Y-99202513D01*
X111981802Y-98735822D01*
X111585822Y-99131802D01*
G37*
X111585822Y-99131802D02*
X112052513Y-99598492D01*
X112448492Y-99202513D01*
X111981802Y-98735822D01*
X111585822Y-99131802D01*
G36*
X112618198Y-100164178D02*
X113014178Y-99768198D01*
X112547487Y-99301508D01*
X112151508Y-99697487D01*
X112618198Y-100164178D01*
G37*
X112618198Y-100164178D02*
X113014178Y-99768198D01*
X112547487Y-99301508D01*
X112151508Y-99697487D01*
X112618198Y-100164178D01*
G04 #@! TO.C,D30*
G36*
X111585822Y-100531802D02*
X112052513Y-100998492D01*
X112448492Y-100602513D01*
X111981802Y-100135822D01*
X111585822Y-100531802D01*
G37*
X111585822Y-100531802D02*
X112052513Y-100998492D01*
X112448492Y-100602513D01*
X111981802Y-100135822D01*
X111585822Y-100531802D01*
G36*
X112618198Y-101564178D02*
X113014178Y-101168198D01*
X112547487Y-100701508D01*
X112151508Y-101097487D01*
X112618198Y-101564178D01*
G37*
X112618198Y-101564178D02*
X113014178Y-101168198D01*
X112547487Y-100701508D01*
X112151508Y-101097487D01*
X112618198Y-101564178D01*
G04 #@! TO.C,D31*
G36*
X112985822Y-87931802D02*
X113452513Y-88398492D01*
X113848492Y-88002513D01*
X113381802Y-87535822D01*
X112985822Y-87931802D01*
G37*
X112985822Y-87931802D02*
X113452513Y-88398492D01*
X113848492Y-88002513D01*
X113381802Y-87535822D01*
X112985822Y-87931802D01*
G36*
X114018198Y-88964178D02*
X114414178Y-88568198D01*
X113947487Y-88101508D01*
X113551508Y-88497487D01*
X114018198Y-88964178D01*
G37*
X114018198Y-88964178D02*
X114414178Y-88568198D01*
X113947487Y-88101508D01*
X113551508Y-88497487D01*
X114018198Y-88964178D01*
G04 #@! TO.C,D32*
G36*
X112985822Y-89331802D02*
X113452513Y-89798492D01*
X113848492Y-89402513D01*
X113381802Y-88935822D01*
X112985822Y-89331802D01*
G37*
X112985822Y-89331802D02*
X113452513Y-89798492D01*
X113848492Y-89402513D01*
X113381802Y-88935822D01*
X112985822Y-89331802D01*
G36*
X114018198Y-90364178D02*
X114414178Y-89968198D01*
X113947487Y-89501508D01*
X113551508Y-89897487D01*
X114018198Y-90364178D01*
G37*
X114018198Y-90364178D02*
X114414178Y-89968198D01*
X113947487Y-89501508D01*
X113551508Y-89897487D01*
X114018198Y-90364178D01*
G04 #@! TO.C,D33*
G36*
X112985822Y-90731802D02*
X113452513Y-91198492D01*
X113848492Y-90802513D01*
X113381802Y-90335822D01*
X112985822Y-90731802D01*
G37*
X112985822Y-90731802D02*
X113452513Y-91198492D01*
X113848492Y-90802513D01*
X113381802Y-90335822D01*
X112985822Y-90731802D01*
G36*
X114018198Y-91764178D02*
X114414178Y-91368198D01*
X113947487Y-90901508D01*
X113551508Y-91297487D01*
X114018198Y-91764178D01*
G37*
X114018198Y-91764178D02*
X114414178Y-91368198D01*
X113947487Y-90901508D01*
X113551508Y-91297487D01*
X114018198Y-91764178D01*
G04 #@! TO.C,D34*
G36*
X112985822Y-92131802D02*
X113452513Y-92598492D01*
X113848492Y-92202513D01*
X113381802Y-91735822D01*
X112985822Y-92131802D01*
G37*
X112985822Y-92131802D02*
X113452513Y-92598492D01*
X113848492Y-92202513D01*
X113381802Y-91735822D01*
X112985822Y-92131802D01*
G36*
X114018198Y-93164178D02*
X114414178Y-92768198D01*
X113947487Y-92301508D01*
X113551508Y-92697487D01*
X114018198Y-93164178D01*
G37*
X114018198Y-93164178D02*
X114414178Y-92768198D01*
X113947487Y-92301508D01*
X113551508Y-92697487D01*
X114018198Y-93164178D01*
G04 #@! TO.C,D35*
G36*
X112985822Y-93531802D02*
X113452513Y-93998492D01*
X113848492Y-93602513D01*
X113381802Y-93135822D01*
X112985822Y-93531802D01*
G37*
X112985822Y-93531802D02*
X113452513Y-93998492D01*
X113848492Y-93602513D01*
X113381802Y-93135822D01*
X112985822Y-93531802D01*
G36*
X114018198Y-94564178D02*
X114414178Y-94168198D01*
X113947487Y-93701508D01*
X113551508Y-94097487D01*
X114018198Y-94564178D01*
G37*
X114018198Y-94564178D02*
X114414178Y-94168198D01*
X113947487Y-93701508D01*
X113551508Y-94097487D01*
X114018198Y-94564178D01*
G04 #@! TO.C,D36*
G36*
X112985822Y-94931802D02*
X113452513Y-95398492D01*
X113848492Y-95002513D01*
X113381802Y-94535822D01*
X112985822Y-94931802D01*
G37*
X112985822Y-94931802D02*
X113452513Y-95398492D01*
X113848492Y-95002513D01*
X113381802Y-94535822D01*
X112985822Y-94931802D01*
G36*
X114018198Y-95964178D02*
X114414178Y-95568198D01*
X113947487Y-95101508D01*
X113551508Y-95497487D01*
X114018198Y-95964178D01*
G37*
X114018198Y-95964178D02*
X114414178Y-95568198D01*
X113947487Y-95101508D01*
X113551508Y-95497487D01*
X114018198Y-95964178D01*
G04 #@! TO.C,D37*
G36*
X112985822Y-96331802D02*
X113452513Y-96798492D01*
X113848492Y-96402513D01*
X113381802Y-95935822D01*
X112985822Y-96331802D01*
G37*
X112985822Y-96331802D02*
X113452513Y-96798492D01*
X113848492Y-96402513D01*
X113381802Y-95935822D01*
X112985822Y-96331802D01*
G36*
X114018198Y-97364178D02*
X114414178Y-96968198D01*
X113947487Y-96501508D01*
X113551508Y-96897487D01*
X114018198Y-97364178D01*
G37*
X114018198Y-97364178D02*
X114414178Y-96968198D01*
X113947487Y-96501508D01*
X113551508Y-96897487D01*
X114018198Y-97364178D01*
G04 #@! TO.C,D38*
G36*
X112985822Y-97731802D02*
X113452513Y-98198492D01*
X113848492Y-97802513D01*
X113381802Y-97335822D01*
X112985822Y-97731802D01*
G37*
X112985822Y-97731802D02*
X113452513Y-98198492D01*
X113848492Y-97802513D01*
X113381802Y-97335822D01*
X112985822Y-97731802D01*
G36*
X114018198Y-98764178D02*
X114414178Y-98368198D01*
X113947487Y-97901508D01*
X113551508Y-98297487D01*
X114018198Y-98764178D01*
G37*
X114018198Y-98764178D02*
X114414178Y-98368198D01*
X113947487Y-97901508D01*
X113551508Y-98297487D01*
X114018198Y-98764178D01*
G04 #@! TO.C,D39*
G36*
X112985822Y-99131802D02*
X113452513Y-99598492D01*
X113848492Y-99202513D01*
X113381802Y-98735822D01*
X112985822Y-99131802D01*
G37*
X112985822Y-99131802D02*
X113452513Y-99598492D01*
X113848492Y-99202513D01*
X113381802Y-98735822D01*
X112985822Y-99131802D01*
G36*
X114018198Y-100164178D02*
X114414178Y-99768198D01*
X113947487Y-99301508D01*
X113551508Y-99697487D01*
X114018198Y-100164178D01*
G37*
X114018198Y-100164178D02*
X114414178Y-99768198D01*
X113947487Y-99301508D01*
X113551508Y-99697487D01*
X114018198Y-100164178D01*
G04 #@! TO.C,D40*
G36*
X112985822Y-100531802D02*
X113452513Y-100998492D01*
X113848492Y-100602513D01*
X113381802Y-100135822D01*
X112985822Y-100531802D01*
G37*
X112985822Y-100531802D02*
X113452513Y-100998492D01*
X113848492Y-100602513D01*
X113381802Y-100135822D01*
X112985822Y-100531802D01*
G36*
X114018198Y-101564178D02*
X114414178Y-101168198D01*
X113947487Y-100701508D01*
X113551508Y-101097487D01*
X114018198Y-101564178D01*
G37*
X114018198Y-101564178D02*
X114414178Y-101168198D01*
X113947487Y-100701508D01*
X113551508Y-101097487D01*
X114018198Y-101564178D01*
G04 #@! TO.C,D41*
G36*
X114385822Y-87931802D02*
X114852513Y-88398492D01*
X115248492Y-88002513D01*
X114781802Y-87535822D01*
X114385822Y-87931802D01*
G37*
X114385822Y-87931802D02*
X114852513Y-88398492D01*
X115248492Y-88002513D01*
X114781802Y-87535822D01*
X114385822Y-87931802D01*
G36*
X115418198Y-88964178D02*
X115814178Y-88568198D01*
X115347487Y-88101508D01*
X114951508Y-88497487D01*
X115418198Y-88964178D01*
G37*
X115418198Y-88964178D02*
X115814178Y-88568198D01*
X115347487Y-88101508D01*
X114951508Y-88497487D01*
X115418198Y-88964178D01*
G04 #@! TO.C,D42*
G36*
X114385822Y-89331802D02*
X114852513Y-89798492D01*
X115248492Y-89402513D01*
X114781802Y-88935822D01*
X114385822Y-89331802D01*
G37*
X114385822Y-89331802D02*
X114852513Y-89798492D01*
X115248492Y-89402513D01*
X114781802Y-88935822D01*
X114385822Y-89331802D01*
G36*
X115418198Y-90364178D02*
X115814178Y-89968198D01*
X115347487Y-89501508D01*
X114951508Y-89897487D01*
X115418198Y-90364178D01*
G37*
X115418198Y-90364178D02*
X115814178Y-89968198D01*
X115347487Y-89501508D01*
X114951508Y-89897487D01*
X115418198Y-90364178D01*
G04 #@! TO.C,D43*
G36*
X114385822Y-90731802D02*
X114852513Y-91198492D01*
X115248492Y-90802513D01*
X114781802Y-90335822D01*
X114385822Y-90731802D01*
G37*
X114385822Y-90731802D02*
X114852513Y-91198492D01*
X115248492Y-90802513D01*
X114781802Y-90335822D01*
X114385822Y-90731802D01*
G36*
X115418198Y-91764178D02*
X115814178Y-91368198D01*
X115347487Y-90901508D01*
X114951508Y-91297487D01*
X115418198Y-91764178D01*
G37*
X115418198Y-91764178D02*
X115814178Y-91368198D01*
X115347487Y-90901508D01*
X114951508Y-91297487D01*
X115418198Y-91764178D01*
G04 #@! TO.C,D44*
G36*
X114385822Y-92131802D02*
X114852513Y-92598492D01*
X115248492Y-92202513D01*
X114781802Y-91735822D01*
X114385822Y-92131802D01*
G37*
X114385822Y-92131802D02*
X114852513Y-92598492D01*
X115248492Y-92202513D01*
X114781802Y-91735822D01*
X114385822Y-92131802D01*
G36*
X115418198Y-93164178D02*
X115814178Y-92768198D01*
X115347487Y-92301508D01*
X114951508Y-92697487D01*
X115418198Y-93164178D01*
G37*
X115418198Y-93164178D02*
X115814178Y-92768198D01*
X115347487Y-92301508D01*
X114951508Y-92697487D01*
X115418198Y-93164178D01*
G04 #@! TO.C,D45*
G36*
X114385822Y-93531802D02*
X114852513Y-93998492D01*
X115248492Y-93602513D01*
X114781802Y-93135822D01*
X114385822Y-93531802D01*
G37*
X114385822Y-93531802D02*
X114852513Y-93998492D01*
X115248492Y-93602513D01*
X114781802Y-93135822D01*
X114385822Y-93531802D01*
G36*
X115418198Y-94564178D02*
X115814178Y-94168198D01*
X115347487Y-93701508D01*
X114951508Y-94097487D01*
X115418198Y-94564178D01*
G37*
X115418198Y-94564178D02*
X115814178Y-94168198D01*
X115347487Y-93701508D01*
X114951508Y-94097487D01*
X115418198Y-94564178D01*
G04 #@! TO.C,D46*
G36*
X114385822Y-94931802D02*
X114852513Y-95398492D01*
X115248492Y-95002513D01*
X114781802Y-94535822D01*
X114385822Y-94931802D01*
G37*
X114385822Y-94931802D02*
X114852513Y-95398492D01*
X115248492Y-95002513D01*
X114781802Y-94535822D01*
X114385822Y-94931802D01*
G36*
X115418198Y-95964178D02*
X115814178Y-95568198D01*
X115347487Y-95101508D01*
X114951508Y-95497487D01*
X115418198Y-95964178D01*
G37*
X115418198Y-95964178D02*
X115814178Y-95568198D01*
X115347487Y-95101508D01*
X114951508Y-95497487D01*
X115418198Y-95964178D01*
G04 #@! TO.C,D47*
G36*
X114385822Y-96331802D02*
X114852513Y-96798492D01*
X115248492Y-96402513D01*
X114781802Y-95935822D01*
X114385822Y-96331802D01*
G37*
X114385822Y-96331802D02*
X114852513Y-96798492D01*
X115248492Y-96402513D01*
X114781802Y-95935822D01*
X114385822Y-96331802D01*
G36*
X115418198Y-97364178D02*
X115814178Y-96968198D01*
X115347487Y-96501508D01*
X114951508Y-96897487D01*
X115418198Y-97364178D01*
G37*
X115418198Y-97364178D02*
X115814178Y-96968198D01*
X115347487Y-96501508D01*
X114951508Y-96897487D01*
X115418198Y-97364178D01*
G04 #@! TO.C,D48*
G36*
X114385822Y-97731802D02*
X114852513Y-98198492D01*
X115248492Y-97802513D01*
X114781802Y-97335822D01*
X114385822Y-97731802D01*
G37*
X114385822Y-97731802D02*
X114852513Y-98198492D01*
X115248492Y-97802513D01*
X114781802Y-97335822D01*
X114385822Y-97731802D01*
G36*
X115418198Y-98764178D02*
X115814178Y-98368198D01*
X115347487Y-97901508D01*
X114951508Y-98297487D01*
X115418198Y-98764178D01*
G37*
X115418198Y-98764178D02*
X115814178Y-98368198D01*
X115347487Y-97901508D01*
X114951508Y-98297487D01*
X115418198Y-98764178D01*
G04 #@! TO.C,D49*
G36*
X114385822Y-99131802D02*
X114852513Y-99598492D01*
X115248492Y-99202513D01*
X114781802Y-98735822D01*
X114385822Y-99131802D01*
G37*
X114385822Y-99131802D02*
X114852513Y-99598492D01*
X115248492Y-99202513D01*
X114781802Y-98735822D01*
X114385822Y-99131802D01*
G36*
X115418198Y-100164178D02*
X115814178Y-99768198D01*
X115347487Y-99301508D01*
X114951508Y-99697487D01*
X115418198Y-100164178D01*
G37*
X115418198Y-100164178D02*
X115814178Y-99768198D01*
X115347487Y-99301508D01*
X114951508Y-99697487D01*
X115418198Y-100164178D01*
G04 #@! TO.C,D50*
G36*
X114385822Y-100531802D02*
X114852513Y-100998492D01*
X115248492Y-100602513D01*
X114781802Y-100135822D01*
X114385822Y-100531802D01*
G37*
X114385822Y-100531802D02*
X114852513Y-100998492D01*
X115248492Y-100602513D01*
X114781802Y-100135822D01*
X114385822Y-100531802D01*
G36*
X115418198Y-101564178D02*
X115814178Y-101168198D01*
X115347487Y-100701508D01*
X114951508Y-101097487D01*
X115418198Y-101564178D01*
G37*
X115418198Y-101564178D02*
X115814178Y-101168198D01*
X115347487Y-100701508D01*
X114951508Y-101097487D01*
X115418198Y-101564178D01*
G04 #@! TO.C,D51*
G36*
X115785822Y-87931802D02*
X116252513Y-88398492D01*
X116648492Y-88002513D01*
X116181802Y-87535822D01*
X115785822Y-87931802D01*
G37*
X115785822Y-87931802D02*
X116252513Y-88398492D01*
X116648492Y-88002513D01*
X116181802Y-87535822D01*
X115785822Y-87931802D01*
G36*
X116818198Y-88964178D02*
X117214178Y-88568198D01*
X116747487Y-88101508D01*
X116351508Y-88497487D01*
X116818198Y-88964178D01*
G37*
X116818198Y-88964178D02*
X117214178Y-88568198D01*
X116747487Y-88101508D01*
X116351508Y-88497487D01*
X116818198Y-88964178D01*
G04 #@! TO.C,D52*
G36*
X115785822Y-89331802D02*
X116252513Y-89798492D01*
X116648492Y-89402513D01*
X116181802Y-88935822D01*
X115785822Y-89331802D01*
G37*
X115785822Y-89331802D02*
X116252513Y-89798492D01*
X116648492Y-89402513D01*
X116181802Y-88935822D01*
X115785822Y-89331802D01*
G36*
X116818198Y-90364178D02*
X117214178Y-89968198D01*
X116747487Y-89501508D01*
X116351508Y-89897487D01*
X116818198Y-90364178D01*
G37*
X116818198Y-90364178D02*
X117214178Y-89968198D01*
X116747487Y-89501508D01*
X116351508Y-89897487D01*
X116818198Y-90364178D01*
G04 #@! TO.C,D53*
G36*
X115785822Y-90731802D02*
X116252513Y-91198492D01*
X116648492Y-90802513D01*
X116181802Y-90335822D01*
X115785822Y-90731802D01*
G37*
X115785822Y-90731802D02*
X116252513Y-91198492D01*
X116648492Y-90802513D01*
X116181802Y-90335822D01*
X115785822Y-90731802D01*
G36*
X116818198Y-91764178D02*
X117214178Y-91368198D01*
X116747487Y-90901508D01*
X116351508Y-91297487D01*
X116818198Y-91764178D01*
G37*
X116818198Y-91764178D02*
X117214178Y-91368198D01*
X116747487Y-90901508D01*
X116351508Y-91297487D01*
X116818198Y-91764178D01*
G04 #@! TO.C,D54*
G36*
X115785822Y-92131802D02*
X116252513Y-92598492D01*
X116648492Y-92202513D01*
X116181802Y-91735822D01*
X115785822Y-92131802D01*
G37*
X115785822Y-92131802D02*
X116252513Y-92598492D01*
X116648492Y-92202513D01*
X116181802Y-91735822D01*
X115785822Y-92131802D01*
G36*
X116818198Y-93164178D02*
X117214178Y-92768198D01*
X116747487Y-92301508D01*
X116351508Y-92697487D01*
X116818198Y-93164178D01*
G37*
X116818198Y-93164178D02*
X117214178Y-92768198D01*
X116747487Y-92301508D01*
X116351508Y-92697487D01*
X116818198Y-93164178D01*
G04 #@! TO.C,D55*
G36*
X115785822Y-93531802D02*
X116252513Y-93998492D01*
X116648492Y-93602513D01*
X116181802Y-93135822D01*
X115785822Y-93531802D01*
G37*
X115785822Y-93531802D02*
X116252513Y-93998492D01*
X116648492Y-93602513D01*
X116181802Y-93135822D01*
X115785822Y-93531802D01*
G36*
X116818198Y-94564178D02*
X117214178Y-94168198D01*
X116747487Y-93701508D01*
X116351508Y-94097487D01*
X116818198Y-94564178D01*
G37*
X116818198Y-94564178D02*
X117214178Y-94168198D01*
X116747487Y-93701508D01*
X116351508Y-94097487D01*
X116818198Y-94564178D01*
G04 #@! TO.C,D56*
G36*
X115785822Y-94931802D02*
X116252513Y-95398492D01*
X116648492Y-95002513D01*
X116181802Y-94535822D01*
X115785822Y-94931802D01*
G37*
X115785822Y-94931802D02*
X116252513Y-95398492D01*
X116648492Y-95002513D01*
X116181802Y-94535822D01*
X115785822Y-94931802D01*
G36*
X116818198Y-95964178D02*
X117214178Y-95568198D01*
X116747487Y-95101508D01*
X116351508Y-95497487D01*
X116818198Y-95964178D01*
G37*
X116818198Y-95964178D02*
X117214178Y-95568198D01*
X116747487Y-95101508D01*
X116351508Y-95497487D01*
X116818198Y-95964178D01*
G04 #@! TO.C,D57*
G36*
X115785822Y-96331802D02*
X116252513Y-96798492D01*
X116648492Y-96402513D01*
X116181802Y-95935822D01*
X115785822Y-96331802D01*
G37*
X115785822Y-96331802D02*
X116252513Y-96798492D01*
X116648492Y-96402513D01*
X116181802Y-95935822D01*
X115785822Y-96331802D01*
G36*
X116818198Y-97364178D02*
X117214178Y-96968198D01*
X116747487Y-96501508D01*
X116351508Y-96897487D01*
X116818198Y-97364178D01*
G37*
X116818198Y-97364178D02*
X117214178Y-96968198D01*
X116747487Y-96501508D01*
X116351508Y-96897487D01*
X116818198Y-97364178D01*
G04 #@! TO.C,D58*
G36*
X115785822Y-97731802D02*
X116252513Y-98198492D01*
X116648492Y-97802513D01*
X116181802Y-97335822D01*
X115785822Y-97731802D01*
G37*
X115785822Y-97731802D02*
X116252513Y-98198492D01*
X116648492Y-97802513D01*
X116181802Y-97335822D01*
X115785822Y-97731802D01*
G36*
X116818198Y-98764178D02*
X117214178Y-98368198D01*
X116747487Y-97901508D01*
X116351508Y-98297487D01*
X116818198Y-98764178D01*
G37*
X116818198Y-98764178D02*
X117214178Y-98368198D01*
X116747487Y-97901508D01*
X116351508Y-98297487D01*
X116818198Y-98764178D01*
G04 #@! TO.C,D59*
G36*
X115785822Y-99131802D02*
X116252513Y-99598492D01*
X116648492Y-99202513D01*
X116181802Y-98735822D01*
X115785822Y-99131802D01*
G37*
X115785822Y-99131802D02*
X116252513Y-99598492D01*
X116648492Y-99202513D01*
X116181802Y-98735822D01*
X115785822Y-99131802D01*
G36*
X116818198Y-100164178D02*
X117214178Y-99768198D01*
X116747487Y-99301508D01*
X116351508Y-99697487D01*
X116818198Y-100164178D01*
G37*
X116818198Y-100164178D02*
X117214178Y-99768198D01*
X116747487Y-99301508D01*
X116351508Y-99697487D01*
X116818198Y-100164178D01*
G04 #@! TO.C,D60*
G36*
X115785822Y-100531802D02*
X116252513Y-100998492D01*
X116648492Y-100602513D01*
X116181802Y-100135822D01*
X115785822Y-100531802D01*
G37*
X115785822Y-100531802D02*
X116252513Y-100998492D01*
X116648492Y-100602513D01*
X116181802Y-100135822D01*
X115785822Y-100531802D01*
G36*
X116818198Y-101564178D02*
X117214178Y-101168198D01*
X116747487Y-100701508D01*
X116351508Y-101097487D01*
X116818198Y-101564178D01*
G37*
X116818198Y-101564178D02*
X117214178Y-101168198D01*
X116747487Y-100701508D01*
X116351508Y-101097487D01*
X116818198Y-101564178D01*
G04 #@! TO.C,D61*
G36*
X124852513Y-88384350D02*
X125234350Y-88002513D01*
X124781802Y-87549964D01*
X124399964Y-87931802D01*
X124852513Y-88384350D01*
G37*
X124852513Y-88384350D02*
X125234350Y-88002513D01*
X124781802Y-87549964D01*
X124399964Y-87931802D01*
X124852513Y-88384350D01*
G36*
X125418198Y-88950036D02*
X125792965Y-88575269D01*
X125800036Y-88568198D01*
X125347487Y-88115650D01*
X124965650Y-88497487D01*
X125418198Y-88950036D01*
G37*
X125418198Y-88950036D02*
X125792965Y-88575269D01*
X125800036Y-88568198D01*
X125347487Y-88115650D01*
X124965650Y-88497487D01*
X125418198Y-88950036D01*
G04 #@! TO.C,D62*
G36*
X124852513Y-89584350D02*
X125234350Y-89202513D01*
X124781802Y-88749964D01*
X124399964Y-89131802D01*
X124852513Y-89584350D01*
G37*
X124852513Y-89584350D02*
X125234350Y-89202513D01*
X124781802Y-88749964D01*
X124399964Y-89131802D01*
X124852513Y-89584350D01*
G36*
X125418198Y-90150036D02*
X125792965Y-89775269D01*
X125800036Y-89768198D01*
X125347487Y-89315650D01*
X124965650Y-89697487D01*
X125418198Y-90150036D01*
G37*
X125418198Y-90150036D02*
X125792965Y-89775269D01*
X125800036Y-89768198D01*
X125347487Y-89315650D01*
X124965650Y-89697487D01*
X125418198Y-90150036D01*
G04 #@! TO.C,D63*
G36*
X124852513Y-90784350D02*
X125234350Y-90402513D01*
X124781802Y-89949964D01*
X124399964Y-90331802D01*
X124852513Y-90784350D01*
G37*
X124852513Y-90784350D02*
X125234350Y-90402513D01*
X124781802Y-89949964D01*
X124399964Y-90331802D01*
X124852513Y-90784350D01*
G36*
X125418198Y-91350036D02*
X125792965Y-90975269D01*
X125800036Y-90968198D01*
X125347487Y-90515650D01*
X124965650Y-90897487D01*
X125418198Y-91350036D01*
G37*
X125418198Y-91350036D02*
X125792965Y-90975269D01*
X125800036Y-90968198D01*
X125347487Y-90515650D01*
X124965650Y-90897487D01*
X125418198Y-91350036D01*
G04 #@! TO.C,D64*
G36*
X124852513Y-91984350D02*
X125234350Y-91602513D01*
X124781802Y-91149964D01*
X124399964Y-91531802D01*
X124852513Y-91984350D01*
G37*
X124852513Y-91984350D02*
X125234350Y-91602513D01*
X124781802Y-91149964D01*
X124399964Y-91531802D01*
X124852513Y-91984350D01*
G36*
X125418198Y-92550036D02*
X125792965Y-92175269D01*
X125800036Y-92168198D01*
X125347487Y-91715650D01*
X124965650Y-92097487D01*
X125418198Y-92550036D01*
G37*
X125418198Y-92550036D02*
X125792965Y-92175269D01*
X125800036Y-92168198D01*
X125347487Y-91715650D01*
X124965650Y-92097487D01*
X125418198Y-92550036D01*
G04 #@! TO.C,D65*
G36*
X124852513Y-93184350D02*
X125234350Y-92802513D01*
X124781802Y-92349964D01*
X124399964Y-92731802D01*
X124852513Y-93184350D01*
G37*
X124852513Y-93184350D02*
X125234350Y-92802513D01*
X124781802Y-92349964D01*
X124399964Y-92731802D01*
X124852513Y-93184350D01*
G36*
X125418198Y-93750036D02*
X125792965Y-93375269D01*
X125800036Y-93368198D01*
X125347487Y-92915650D01*
X124965650Y-93297487D01*
X125418198Y-93750036D01*
G37*
X125418198Y-93750036D02*
X125792965Y-93375269D01*
X125800036Y-93368198D01*
X125347487Y-92915650D01*
X124965650Y-93297487D01*
X125418198Y-93750036D01*
G04 #@! TO.C,D66*
G36*
X124852513Y-94384350D02*
X125234350Y-94002513D01*
X124781802Y-93549964D01*
X124399964Y-93931802D01*
X124852513Y-94384350D01*
G37*
X124852513Y-94384350D02*
X125234350Y-94002513D01*
X124781802Y-93549964D01*
X124399964Y-93931802D01*
X124852513Y-94384350D01*
G36*
X125418198Y-94950036D02*
X125792965Y-94575269D01*
X125800036Y-94568198D01*
X125347487Y-94115650D01*
X124965650Y-94497487D01*
X125418198Y-94950036D01*
G37*
X125418198Y-94950036D02*
X125792965Y-94575269D01*
X125800036Y-94568198D01*
X125347487Y-94115650D01*
X124965650Y-94497487D01*
X125418198Y-94950036D01*
G04 #@! TO.C,D67*
G36*
X124852513Y-95584350D02*
X125234350Y-95202513D01*
X124781802Y-94749964D01*
X124399964Y-95131802D01*
X124852513Y-95584350D01*
G37*
X124852513Y-95584350D02*
X125234350Y-95202513D01*
X124781802Y-94749964D01*
X124399964Y-95131802D01*
X124852513Y-95584350D01*
G36*
X125418198Y-96150036D02*
X125792965Y-95775269D01*
X125800036Y-95768198D01*
X125347487Y-95315650D01*
X124965650Y-95697487D01*
X125418198Y-96150036D01*
G37*
X125418198Y-96150036D02*
X125792965Y-95775269D01*
X125800036Y-95768198D01*
X125347487Y-95315650D01*
X124965650Y-95697487D01*
X125418198Y-96150036D01*
G04 #@! TO.C,D68*
G36*
X124852513Y-96784350D02*
X125234350Y-96402513D01*
X124781802Y-95949964D01*
X124399964Y-96331802D01*
X124852513Y-96784350D01*
G37*
X124852513Y-96784350D02*
X125234350Y-96402513D01*
X124781802Y-95949964D01*
X124399964Y-96331802D01*
X124852513Y-96784350D01*
G36*
X125418198Y-97350036D02*
X125792965Y-96975269D01*
X125800036Y-96968198D01*
X125347487Y-96515650D01*
X124965650Y-96897487D01*
X125418198Y-97350036D01*
G37*
X125418198Y-97350036D02*
X125792965Y-96975269D01*
X125800036Y-96968198D01*
X125347487Y-96515650D01*
X124965650Y-96897487D01*
X125418198Y-97350036D01*
G04 #@! TO.C,D69*
G36*
X124852513Y-97984350D02*
X125234350Y-97602513D01*
X124781802Y-97149964D01*
X124399964Y-97531802D01*
X124852513Y-97984350D01*
G37*
X124852513Y-97984350D02*
X125234350Y-97602513D01*
X124781802Y-97149964D01*
X124399964Y-97531802D01*
X124852513Y-97984350D01*
G36*
X125418198Y-98550036D02*
X125792965Y-98175269D01*
X125800036Y-98168198D01*
X125347487Y-97715650D01*
X124965650Y-98097487D01*
X125418198Y-98550036D01*
G37*
X125418198Y-98550036D02*
X125792965Y-98175269D01*
X125800036Y-98168198D01*
X125347487Y-97715650D01*
X124965650Y-98097487D01*
X125418198Y-98550036D01*
G04 #@! TO.C,D70*
G36*
X124852513Y-99184350D02*
X125234350Y-98802513D01*
X124781802Y-98349964D01*
X124399964Y-98731802D01*
X124852513Y-99184350D01*
G37*
X124852513Y-99184350D02*
X125234350Y-98802513D01*
X124781802Y-98349964D01*
X124399964Y-98731802D01*
X124852513Y-99184350D01*
G36*
X125418198Y-99750036D02*
X125792965Y-99375269D01*
X125800036Y-99368198D01*
X125347487Y-98915650D01*
X124965650Y-99297487D01*
X125418198Y-99750036D01*
G37*
X125418198Y-99750036D02*
X125792965Y-99375269D01*
X125800036Y-99368198D01*
X125347487Y-98915650D01*
X124965650Y-99297487D01*
X125418198Y-99750036D01*
G04 #@! TO.C,D71*
G36*
X126052513Y-88384350D02*
X126434350Y-88002513D01*
X125981802Y-87549964D01*
X125599964Y-87931802D01*
X126052513Y-88384350D01*
G37*
X126052513Y-88384350D02*
X126434350Y-88002513D01*
X125981802Y-87549964D01*
X125599964Y-87931802D01*
X126052513Y-88384350D01*
G36*
X126618198Y-88950036D02*
X126992965Y-88575269D01*
X127000036Y-88568198D01*
X126547487Y-88115650D01*
X126165650Y-88497487D01*
X126618198Y-88950036D01*
G37*
X126618198Y-88950036D02*
X126992965Y-88575269D01*
X127000036Y-88568198D01*
X126547487Y-88115650D01*
X126165650Y-88497487D01*
X126618198Y-88950036D01*
G04 #@! TO.C,D72*
G36*
X126052513Y-89584350D02*
X126434350Y-89202513D01*
X125981802Y-88749964D01*
X125599964Y-89131802D01*
X126052513Y-89584350D01*
G37*
X126052513Y-89584350D02*
X126434350Y-89202513D01*
X125981802Y-88749964D01*
X125599964Y-89131802D01*
X126052513Y-89584350D01*
G36*
X126618198Y-90150036D02*
X126992965Y-89775269D01*
X127000036Y-89768198D01*
X126547487Y-89315650D01*
X126165650Y-89697487D01*
X126618198Y-90150036D01*
G37*
X126618198Y-90150036D02*
X126992965Y-89775269D01*
X127000036Y-89768198D01*
X126547487Y-89315650D01*
X126165650Y-89697487D01*
X126618198Y-90150036D01*
G04 #@! TO.C,D73*
G36*
X126052513Y-90784350D02*
X126434350Y-90402513D01*
X125981802Y-89949964D01*
X125599964Y-90331802D01*
X126052513Y-90784350D01*
G37*
X126052513Y-90784350D02*
X126434350Y-90402513D01*
X125981802Y-89949964D01*
X125599964Y-90331802D01*
X126052513Y-90784350D01*
G36*
X126618198Y-91350036D02*
X126992965Y-90975269D01*
X127000036Y-90968198D01*
X126547487Y-90515650D01*
X126165650Y-90897487D01*
X126618198Y-91350036D01*
G37*
X126618198Y-91350036D02*
X126992965Y-90975269D01*
X127000036Y-90968198D01*
X126547487Y-90515650D01*
X126165650Y-90897487D01*
X126618198Y-91350036D01*
G04 #@! TO.C,D74*
G36*
X126052513Y-91984350D02*
X126434350Y-91602513D01*
X125981802Y-91149964D01*
X125599964Y-91531802D01*
X126052513Y-91984350D01*
G37*
X126052513Y-91984350D02*
X126434350Y-91602513D01*
X125981802Y-91149964D01*
X125599964Y-91531802D01*
X126052513Y-91984350D01*
G36*
X126618198Y-92550036D02*
X126992965Y-92175269D01*
X127000036Y-92168198D01*
X126547487Y-91715650D01*
X126165650Y-92097487D01*
X126618198Y-92550036D01*
G37*
X126618198Y-92550036D02*
X126992965Y-92175269D01*
X127000036Y-92168198D01*
X126547487Y-91715650D01*
X126165650Y-92097487D01*
X126618198Y-92550036D01*
G04 #@! TO.C,D75*
G36*
X126052513Y-93184350D02*
X126434350Y-92802513D01*
X125981802Y-92349964D01*
X125599964Y-92731802D01*
X126052513Y-93184350D01*
G37*
X126052513Y-93184350D02*
X126434350Y-92802513D01*
X125981802Y-92349964D01*
X125599964Y-92731802D01*
X126052513Y-93184350D01*
G36*
X126618198Y-93750036D02*
X126992965Y-93375269D01*
X127000036Y-93368198D01*
X126547487Y-92915650D01*
X126165650Y-93297487D01*
X126618198Y-93750036D01*
G37*
X126618198Y-93750036D02*
X126992965Y-93375269D01*
X127000036Y-93368198D01*
X126547487Y-92915650D01*
X126165650Y-93297487D01*
X126618198Y-93750036D01*
G04 #@! TO.C,D76*
G36*
X126052513Y-94384350D02*
X126434350Y-94002513D01*
X125981802Y-93549964D01*
X125599964Y-93931802D01*
X126052513Y-94384350D01*
G37*
X126052513Y-94384350D02*
X126434350Y-94002513D01*
X125981802Y-93549964D01*
X125599964Y-93931802D01*
X126052513Y-94384350D01*
G36*
X126618198Y-94950036D02*
X126992965Y-94575269D01*
X127000036Y-94568198D01*
X126547487Y-94115650D01*
X126165650Y-94497487D01*
X126618198Y-94950036D01*
G37*
X126618198Y-94950036D02*
X126992965Y-94575269D01*
X127000036Y-94568198D01*
X126547487Y-94115650D01*
X126165650Y-94497487D01*
X126618198Y-94950036D01*
G04 #@! TO.C,D77*
G36*
X126052513Y-95584350D02*
X126434350Y-95202513D01*
X125981802Y-94749964D01*
X125599964Y-95131802D01*
X126052513Y-95584350D01*
G37*
X126052513Y-95584350D02*
X126434350Y-95202513D01*
X125981802Y-94749964D01*
X125599964Y-95131802D01*
X126052513Y-95584350D01*
G36*
X126618198Y-96150036D02*
X126992965Y-95775269D01*
X127000036Y-95768198D01*
X126547487Y-95315650D01*
X126165650Y-95697487D01*
X126618198Y-96150036D01*
G37*
X126618198Y-96150036D02*
X126992965Y-95775269D01*
X127000036Y-95768198D01*
X126547487Y-95315650D01*
X126165650Y-95697487D01*
X126618198Y-96150036D01*
G04 #@! TO.C,D78*
G36*
X126052513Y-96784350D02*
X126434350Y-96402513D01*
X125981802Y-95949964D01*
X125599964Y-96331802D01*
X126052513Y-96784350D01*
G37*
X126052513Y-96784350D02*
X126434350Y-96402513D01*
X125981802Y-95949964D01*
X125599964Y-96331802D01*
X126052513Y-96784350D01*
G36*
X126618198Y-97350036D02*
X126992965Y-96975269D01*
X127000036Y-96968198D01*
X126547487Y-96515650D01*
X126165650Y-96897487D01*
X126618198Y-97350036D01*
G37*
X126618198Y-97350036D02*
X126992965Y-96975269D01*
X127000036Y-96968198D01*
X126547487Y-96515650D01*
X126165650Y-96897487D01*
X126618198Y-97350036D01*
G04 #@! TO.C,D79*
G36*
X126052513Y-97984350D02*
X126434350Y-97602513D01*
X125981802Y-97149964D01*
X125599964Y-97531802D01*
X126052513Y-97984350D01*
G37*
X126052513Y-97984350D02*
X126434350Y-97602513D01*
X125981802Y-97149964D01*
X125599964Y-97531802D01*
X126052513Y-97984350D01*
G36*
X126618198Y-98550036D02*
X126992965Y-98175269D01*
X127000036Y-98168198D01*
X126547487Y-97715650D01*
X126165650Y-98097487D01*
X126618198Y-98550036D01*
G37*
X126618198Y-98550036D02*
X126992965Y-98175269D01*
X127000036Y-98168198D01*
X126547487Y-97715650D01*
X126165650Y-98097487D01*
X126618198Y-98550036D01*
G04 #@! TO.C,D80*
G36*
X126052513Y-99184350D02*
X126434350Y-98802513D01*
X125981802Y-98349964D01*
X125599964Y-98731802D01*
X126052513Y-99184350D01*
G37*
X126052513Y-99184350D02*
X126434350Y-98802513D01*
X125981802Y-98349964D01*
X125599964Y-98731802D01*
X126052513Y-99184350D01*
G36*
X126618198Y-99750036D02*
X126992965Y-99375269D01*
X127000036Y-99368198D01*
X126547487Y-98915650D01*
X126165650Y-99297487D01*
X126618198Y-99750036D01*
G37*
X126618198Y-99750036D02*
X126992965Y-99375269D01*
X127000036Y-99368198D01*
X126547487Y-98915650D01*
X126165650Y-99297487D01*
X126618198Y-99750036D01*
G04 #@! TO.C,D81*
G36*
X127252513Y-88384350D02*
X127634350Y-88002513D01*
X127181802Y-87549964D01*
X126799964Y-87931802D01*
X127252513Y-88384350D01*
G37*
X127252513Y-88384350D02*
X127634350Y-88002513D01*
X127181802Y-87549964D01*
X126799964Y-87931802D01*
X127252513Y-88384350D01*
G36*
X127818198Y-88950036D02*
X128192965Y-88575269D01*
X128200036Y-88568198D01*
X127747487Y-88115650D01*
X127365650Y-88497487D01*
X127818198Y-88950036D01*
G37*
X127818198Y-88950036D02*
X128192965Y-88575269D01*
X128200036Y-88568198D01*
X127747487Y-88115650D01*
X127365650Y-88497487D01*
X127818198Y-88950036D01*
G04 #@! TO.C,D82*
G36*
X127252513Y-89584350D02*
X127634350Y-89202513D01*
X127181802Y-88749964D01*
X126799964Y-89131802D01*
X127252513Y-89584350D01*
G37*
X127252513Y-89584350D02*
X127634350Y-89202513D01*
X127181802Y-88749964D01*
X126799964Y-89131802D01*
X127252513Y-89584350D01*
G36*
X127818198Y-90150036D02*
X128192965Y-89775269D01*
X128200036Y-89768198D01*
X127747487Y-89315650D01*
X127365650Y-89697487D01*
X127818198Y-90150036D01*
G37*
X127818198Y-90150036D02*
X128192965Y-89775269D01*
X128200036Y-89768198D01*
X127747487Y-89315650D01*
X127365650Y-89697487D01*
X127818198Y-90150036D01*
G04 #@! TO.C,D83*
G36*
X127252513Y-90784350D02*
X127634350Y-90402513D01*
X127181802Y-89949964D01*
X126799964Y-90331802D01*
X127252513Y-90784350D01*
G37*
X127252513Y-90784350D02*
X127634350Y-90402513D01*
X127181802Y-89949964D01*
X126799964Y-90331802D01*
X127252513Y-90784350D01*
G36*
X127818198Y-91350036D02*
X128192965Y-90975269D01*
X128200036Y-90968198D01*
X127747487Y-90515650D01*
X127365650Y-90897487D01*
X127818198Y-91350036D01*
G37*
X127818198Y-91350036D02*
X128192965Y-90975269D01*
X128200036Y-90968198D01*
X127747487Y-90515650D01*
X127365650Y-90897487D01*
X127818198Y-91350036D01*
G04 #@! TO.C,D84*
G36*
X127252513Y-91984350D02*
X127634350Y-91602513D01*
X127181802Y-91149964D01*
X126799964Y-91531802D01*
X127252513Y-91984350D01*
G37*
X127252513Y-91984350D02*
X127634350Y-91602513D01*
X127181802Y-91149964D01*
X126799964Y-91531802D01*
X127252513Y-91984350D01*
G36*
X127818198Y-92550036D02*
X128192965Y-92175269D01*
X128200036Y-92168198D01*
X127747487Y-91715650D01*
X127365650Y-92097487D01*
X127818198Y-92550036D01*
G37*
X127818198Y-92550036D02*
X128192965Y-92175269D01*
X128200036Y-92168198D01*
X127747487Y-91715650D01*
X127365650Y-92097487D01*
X127818198Y-92550036D01*
G04 #@! TO.C,D85*
G36*
X127252513Y-93184350D02*
X127634350Y-92802513D01*
X127181802Y-92349964D01*
X126799964Y-92731802D01*
X127252513Y-93184350D01*
G37*
X127252513Y-93184350D02*
X127634350Y-92802513D01*
X127181802Y-92349964D01*
X126799964Y-92731802D01*
X127252513Y-93184350D01*
G36*
X127818198Y-93750036D02*
X128192965Y-93375269D01*
X128200036Y-93368198D01*
X127747487Y-92915650D01*
X127365650Y-93297487D01*
X127818198Y-93750036D01*
G37*
X127818198Y-93750036D02*
X128192965Y-93375269D01*
X128200036Y-93368198D01*
X127747487Y-92915650D01*
X127365650Y-93297487D01*
X127818198Y-93750036D01*
G04 #@! TO.C,D86*
G36*
X127252513Y-94384350D02*
X127634350Y-94002513D01*
X127181802Y-93549964D01*
X126799964Y-93931802D01*
X127252513Y-94384350D01*
G37*
X127252513Y-94384350D02*
X127634350Y-94002513D01*
X127181802Y-93549964D01*
X126799964Y-93931802D01*
X127252513Y-94384350D01*
G36*
X127818198Y-94950036D02*
X128192965Y-94575269D01*
X128200036Y-94568198D01*
X127747487Y-94115650D01*
X127365650Y-94497487D01*
X127818198Y-94950036D01*
G37*
X127818198Y-94950036D02*
X128192965Y-94575269D01*
X128200036Y-94568198D01*
X127747487Y-94115650D01*
X127365650Y-94497487D01*
X127818198Y-94950036D01*
G04 #@! TO.C,D87*
G36*
X127252513Y-95584350D02*
X127634350Y-95202513D01*
X127181802Y-94749964D01*
X126799964Y-95131802D01*
X127252513Y-95584350D01*
G37*
X127252513Y-95584350D02*
X127634350Y-95202513D01*
X127181802Y-94749964D01*
X126799964Y-95131802D01*
X127252513Y-95584350D01*
G36*
X127818198Y-96150036D02*
X128192965Y-95775269D01*
X128200036Y-95768198D01*
X127747487Y-95315650D01*
X127365650Y-95697487D01*
X127818198Y-96150036D01*
G37*
X127818198Y-96150036D02*
X128192965Y-95775269D01*
X128200036Y-95768198D01*
X127747487Y-95315650D01*
X127365650Y-95697487D01*
X127818198Y-96150036D01*
G04 #@! TO.C,D88*
G36*
X127252513Y-96784350D02*
X127634350Y-96402513D01*
X127181802Y-95949964D01*
X126799964Y-96331802D01*
X127252513Y-96784350D01*
G37*
X127252513Y-96784350D02*
X127634350Y-96402513D01*
X127181802Y-95949964D01*
X126799964Y-96331802D01*
X127252513Y-96784350D01*
G36*
X127818198Y-97350036D02*
X128192965Y-96975269D01*
X128200036Y-96968198D01*
X127747487Y-96515650D01*
X127365650Y-96897487D01*
X127818198Y-97350036D01*
G37*
X127818198Y-97350036D02*
X128192965Y-96975269D01*
X128200036Y-96968198D01*
X127747487Y-96515650D01*
X127365650Y-96897487D01*
X127818198Y-97350036D01*
G04 #@! TO.C,D89*
G36*
X127252513Y-97984350D02*
X127634350Y-97602513D01*
X127181802Y-97149964D01*
X126799964Y-97531802D01*
X127252513Y-97984350D01*
G37*
X127252513Y-97984350D02*
X127634350Y-97602513D01*
X127181802Y-97149964D01*
X126799964Y-97531802D01*
X127252513Y-97984350D01*
G36*
X127818198Y-98550036D02*
X128192965Y-98175269D01*
X128200036Y-98168198D01*
X127747487Y-97715650D01*
X127365650Y-98097487D01*
X127818198Y-98550036D01*
G37*
X127818198Y-98550036D02*
X128192965Y-98175269D01*
X128200036Y-98168198D01*
X127747487Y-97715650D01*
X127365650Y-98097487D01*
X127818198Y-98550036D01*
G04 #@! TO.C,D90*
G36*
X127252513Y-99184350D02*
X127634350Y-98802513D01*
X127181802Y-98349964D01*
X126799964Y-98731802D01*
X127252513Y-99184350D01*
G37*
X127252513Y-99184350D02*
X127634350Y-98802513D01*
X127181802Y-98349964D01*
X126799964Y-98731802D01*
X127252513Y-99184350D01*
G36*
X127818198Y-99750036D02*
X128192965Y-99375269D01*
X128200036Y-99368198D01*
X127747487Y-98915650D01*
X127365650Y-99297487D01*
X127818198Y-99750036D01*
G37*
X127818198Y-99750036D02*
X128192965Y-99375269D01*
X128200036Y-99368198D01*
X127747487Y-98915650D01*
X127365650Y-99297487D01*
X127818198Y-99750036D01*
G04 #@! TO.C,D91*
G36*
X128452513Y-88384350D02*
X128834350Y-88002513D01*
X128381802Y-87549964D01*
X127999964Y-87931802D01*
X128452513Y-88384350D01*
G37*
X128452513Y-88384350D02*
X128834350Y-88002513D01*
X128381802Y-87549964D01*
X127999964Y-87931802D01*
X128452513Y-88384350D01*
G36*
X129018198Y-88950036D02*
X129392965Y-88575269D01*
X129400036Y-88568198D01*
X128947487Y-88115650D01*
X128565650Y-88497487D01*
X129018198Y-88950036D01*
G37*
X129018198Y-88950036D02*
X129392965Y-88575269D01*
X129400036Y-88568198D01*
X128947487Y-88115650D01*
X128565650Y-88497487D01*
X129018198Y-88950036D01*
G04 #@! TO.C,D92*
G36*
X128452513Y-89584350D02*
X128834350Y-89202513D01*
X128381802Y-88749964D01*
X127999964Y-89131802D01*
X128452513Y-89584350D01*
G37*
X128452513Y-89584350D02*
X128834350Y-89202513D01*
X128381802Y-88749964D01*
X127999964Y-89131802D01*
X128452513Y-89584350D01*
G36*
X129018198Y-90150036D02*
X129392965Y-89775269D01*
X129400036Y-89768198D01*
X128947487Y-89315650D01*
X128565650Y-89697487D01*
X129018198Y-90150036D01*
G37*
X129018198Y-90150036D02*
X129392965Y-89775269D01*
X129400036Y-89768198D01*
X128947487Y-89315650D01*
X128565650Y-89697487D01*
X129018198Y-90150036D01*
G04 #@! TO.C,D93*
G36*
X128452513Y-90784350D02*
X128834350Y-90402513D01*
X128381802Y-89949964D01*
X127999964Y-90331802D01*
X128452513Y-90784350D01*
G37*
X128452513Y-90784350D02*
X128834350Y-90402513D01*
X128381802Y-89949964D01*
X127999964Y-90331802D01*
X128452513Y-90784350D01*
G36*
X129018198Y-91350036D02*
X129392965Y-90975269D01*
X129400036Y-90968198D01*
X128947487Y-90515650D01*
X128565650Y-90897487D01*
X129018198Y-91350036D01*
G37*
X129018198Y-91350036D02*
X129392965Y-90975269D01*
X129400036Y-90968198D01*
X128947487Y-90515650D01*
X128565650Y-90897487D01*
X129018198Y-91350036D01*
G04 #@! TO.C,D94*
G36*
X128452513Y-91984350D02*
X128834350Y-91602513D01*
X128381802Y-91149964D01*
X127999964Y-91531802D01*
X128452513Y-91984350D01*
G37*
X128452513Y-91984350D02*
X128834350Y-91602513D01*
X128381802Y-91149964D01*
X127999964Y-91531802D01*
X128452513Y-91984350D01*
G36*
X129018198Y-92550036D02*
X129392965Y-92175269D01*
X129400036Y-92168198D01*
X128947487Y-91715650D01*
X128565650Y-92097487D01*
X129018198Y-92550036D01*
G37*
X129018198Y-92550036D02*
X129392965Y-92175269D01*
X129400036Y-92168198D01*
X128947487Y-91715650D01*
X128565650Y-92097487D01*
X129018198Y-92550036D01*
G04 #@! TO.C,D95*
G36*
X128452513Y-93184350D02*
X128834350Y-92802513D01*
X128381802Y-92349964D01*
X127999964Y-92731802D01*
X128452513Y-93184350D01*
G37*
X128452513Y-93184350D02*
X128834350Y-92802513D01*
X128381802Y-92349964D01*
X127999964Y-92731802D01*
X128452513Y-93184350D01*
G36*
X129018198Y-93750036D02*
X129392965Y-93375269D01*
X129400036Y-93368198D01*
X128947487Y-92915650D01*
X128565650Y-93297487D01*
X129018198Y-93750036D01*
G37*
X129018198Y-93750036D02*
X129392965Y-93375269D01*
X129400036Y-93368198D01*
X128947487Y-92915650D01*
X128565650Y-93297487D01*
X129018198Y-93750036D01*
G04 #@! TO.C,D96*
G36*
X128452513Y-94384350D02*
X128834350Y-94002513D01*
X128381802Y-93549964D01*
X127999964Y-93931802D01*
X128452513Y-94384350D01*
G37*
X128452513Y-94384350D02*
X128834350Y-94002513D01*
X128381802Y-93549964D01*
X127999964Y-93931802D01*
X128452513Y-94384350D01*
G36*
X129018198Y-94950036D02*
X129392965Y-94575269D01*
X129400036Y-94568198D01*
X128947487Y-94115650D01*
X128565650Y-94497487D01*
X129018198Y-94950036D01*
G37*
X129018198Y-94950036D02*
X129392965Y-94575269D01*
X129400036Y-94568198D01*
X128947487Y-94115650D01*
X128565650Y-94497487D01*
X129018198Y-94950036D01*
G04 #@! TO.C,D97*
G36*
X128452513Y-95584350D02*
X128834350Y-95202513D01*
X128381802Y-94749964D01*
X127999964Y-95131802D01*
X128452513Y-95584350D01*
G37*
X128452513Y-95584350D02*
X128834350Y-95202513D01*
X128381802Y-94749964D01*
X127999964Y-95131802D01*
X128452513Y-95584350D01*
G36*
X129018198Y-96150036D02*
X129392965Y-95775269D01*
X129400036Y-95768198D01*
X128947487Y-95315650D01*
X128565650Y-95697487D01*
X129018198Y-96150036D01*
G37*
X129018198Y-96150036D02*
X129392965Y-95775269D01*
X129400036Y-95768198D01*
X128947487Y-95315650D01*
X128565650Y-95697487D01*
X129018198Y-96150036D01*
G04 #@! TO.C,D98*
G36*
X128452513Y-96784350D02*
X128834350Y-96402513D01*
X128381802Y-95949964D01*
X127999964Y-96331802D01*
X128452513Y-96784350D01*
G37*
X128452513Y-96784350D02*
X128834350Y-96402513D01*
X128381802Y-95949964D01*
X127999964Y-96331802D01*
X128452513Y-96784350D01*
G36*
X129018198Y-97350036D02*
X129392965Y-96975269D01*
X129400036Y-96968198D01*
X128947487Y-96515650D01*
X128565650Y-96897487D01*
X129018198Y-97350036D01*
G37*
X129018198Y-97350036D02*
X129392965Y-96975269D01*
X129400036Y-96968198D01*
X128947487Y-96515650D01*
X128565650Y-96897487D01*
X129018198Y-97350036D01*
G04 #@! TO.C,D99*
G36*
X128452513Y-97984350D02*
X128834350Y-97602513D01*
X128381802Y-97149964D01*
X127999964Y-97531802D01*
X128452513Y-97984350D01*
G37*
X128452513Y-97984350D02*
X128834350Y-97602513D01*
X128381802Y-97149964D01*
X127999964Y-97531802D01*
X128452513Y-97984350D01*
G36*
X129018198Y-98550036D02*
X129392965Y-98175269D01*
X129400036Y-98168198D01*
X128947487Y-97715650D01*
X128565650Y-98097487D01*
X129018198Y-98550036D01*
G37*
X129018198Y-98550036D02*
X129392965Y-98175269D01*
X129400036Y-98168198D01*
X128947487Y-97715650D01*
X128565650Y-98097487D01*
X129018198Y-98550036D01*
G04 #@! TO.C,D100*
G36*
X128452513Y-99184350D02*
X128834350Y-98802513D01*
X128381802Y-98349964D01*
X127999964Y-98731802D01*
X128452513Y-99184350D01*
G37*
X128452513Y-99184350D02*
X128834350Y-98802513D01*
X128381802Y-98349964D01*
X127999964Y-98731802D01*
X128452513Y-99184350D01*
G36*
X129018198Y-99750036D02*
X129392965Y-99375269D01*
X129400036Y-99368198D01*
X128947487Y-98915650D01*
X128565650Y-99297487D01*
X129018198Y-99750036D01*
G37*
X129018198Y-99750036D02*
X129392965Y-99375269D01*
X129400036Y-99368198D01*
X128947487Y-98915650D01*
X128565650Y-99297487D01*
X129018198Y-99750036D01*
G04 #@! TO.C,D101*
G36*
X129652513Y-88384350D02*
X130034350Y-88002513D01*
X129581802Y-87549964D01*
X129199964Y-87931802D01*
X129652513Y-88384350D01*
G37*
X129652513Y-88384350D02*
X130034350Y-88002513D01*
X129581802Y-87549964D01*
X129199964Y-87931802D01*
X129652513Y-88384350D01*
G36*
X130218198Y-88950036D02*
X130592965Y-88575269D01*
X130600036Y-88568198D01*
X130147487Y-88115650D01*
X129765650Y-88497487D01*
X130218198Y-88950036D01*
G37*
X130218198Y-88950036D02*
X130592965Y-88575269D01*
X130600036Y-88568198D01*
X130147487Y-88115650D01*
X129765650Y-88497487D01*
X130218198Y-88950036D01*
G04 #@! TO.C,D102*
G36*
X129652513Y-89584350D02*
X130034350Y-89202513D01*
X129581802Y-88749964D01*
X129199964Y-89131802D01*
X129652513Y-89584350D01*
G37*
X129652513Y-89584350D02*
X130034350Y-89202513D01*
X129581802Y-88749964D01*
X129199964Y-89131802D01*
X129652513Y-89584350D01*
G36*
X130218198Y-90150036D02*
X130592965Y-89775269D01*
X130600036Y-89768198D01*
X130147487Y-89315650D01*
X129765650Y-89697487D01*
X130218198Y-90150036D01*
G37*
X130218198Y-90150036D02*
X130592965Y-89775269D01*
X130600036Y-89768198D01*
X130147487Y-89315650D01*
X129765650Y-89697487D01*
X130218198Y-90150036D01*
G04 #@! TO.C,D103*
G36*
X129652513Y-90784350D02*
X130034350Y-90402513D01*
X129581802Y-89949964D01*
X129199964Y-90331802D01*
X129652513Y-90784350D01*
G37*
X129652513Y-90784350D02*
X130034350Y-90402513D01*
X129581802Y-89949964D01*
X129199964Y-90331802D01*
X129652513Y-90784350D01*
G36*
X130218198Y-91350036D02*
X130592965Y-90975269D01*
X130600036Y-90968198D01*
X130147487Y-90515650D01*
X129765650Y-90897487D01*
X130218198Y-91350036D01*
G37*
X130218198Y-91350036D02*
X130592965Y-90975269D01*
X130600036Y-90968198D01*
X130147487Y-90515650D01*
X129765650Y-90897487D01*
X130218198Y-91350036D01*
G04 #@! TO.C,D104*
G36*
X129652513Y-91984350D02*
X130034350Y-91602513D01*
X129581802Y-91149964D01*
X129199964Y-91531802D01*
X129652513Y-91984350D01*
G37*
X129652513Y-91984350D02*
X130034350Y-91602513D01*
X129581802Y-91149964D01*
X129199964Y-91531802D01*
X129652513Y-91984350D01*
G36*
X130218198Y-92550036D02*
X130592965Y-92175269D01*
X130600036Y-92168198D01*
X130147487Y-91715650D01*
X129765650Y-92097487D01*
X130218198Y-92550036D01*
G37*
X130218198Y-92550036D02*
X130592965Y-92175269D01*
X130600036Y-92168198D01*
X130147487Y-91715650D01*
X129765650Y-92097487D01*
X130218198Y-92550036D01*
G04 #@! TO.C,D105*
G36*
X129652513Y-93184350D02*
X130034350Y-92802513D01*
X129581802Y-92349964D01*
X129199964Y-92731802D01*
X129652513Y-93184350D01*
G37*
X129652513Y-93184350D02*
X130034350Y-92802513D01*
X129581802Y-92349964D01*
X129199964Y-92731802D01*
X129652513Y-93184350D01*
G36*
X130218198Y-93750036D02*
X130592965Y-93375269D01*
X130600036Y-93368198D01*
X130147487Y-92915650D01*
X129765650Y-93297487D01*
X130218198Y-93750036D01*
G37*
X130218198Y-93750036D02*
X130592965Y-93375269D01*
X130600036Y-93368198D01*
X130147487Y-92915650D01*
X129765650Y-93297487D01*
X130218198Y-93750036D01*
G04 #@! TO.C,D106*
G36*
X129652513Y-94384350D02*
X130034350Y-94002513D01*
X129581802Y-93549964D01*
X129199964Y-93931802D01*
X129652513Y-94384350D01*
G37*
X129652513Y-94384350D02*
X130034350Y-94002513D01*
X129581802Y-93549964D01*
X129199964Y-93931802D01*
X129652513Y-94384350D01*
G36*
X130218198Y-94950036D02*
X130592965Y-94575269D01*
X130600036Y-94568198D01*
X130147487Y-94115650D01*
X129765650Y-94497487D01*
X130218198Y-94950036D01*
G37*
X130218198Y-94950036D02*
X130592965Y-94575269D01*
X130600036Y-94568198D01*
X130147487Y-94115650D01*
X129765650Y-94497487D01*
X130218198Y-94950036D01*
G04 #@! TO.C,D107*
G36*
X129652513Y-95584350D02*
X130034350Y-95202513D01*
X129581802Y-94749964D01*
X129199964Y-95131802D01*
X129652513Y-95584350D01*
G37*
X129652513Y-95584350D02*
X130034350Y-95202513D01*
X129581802Y-94749964D01*
X129199964Y-95131802D01*
X129652513Y-95584350D01*
G36*
X130218198Y-96150036D02*
X130592965Y-95775269D01*
X130600036Y-95768198D01*
X130147487Y-95315650D01*
X129765650Y-95697487D01*
X130218198Y-96150036D01*
G37*
X130218198Y-96150036D02*
X130592965Y-95775269D01*
X130600036Y-95768198D01*
X130147487Y-95315650D01*
X129765650Y-95697487D01*
X130218198Y-96150036D01*
G04 #@! TO.C,D108*
G36*
X129652513Y-96784350D02*
X130034350Y-96402513D01*
X129581802Y-95949964D01*
X129199964Y-96331802D01*
X129652513Y-96784350D01*
G37*
X129652513Y-96784350D02*
X130034350Y-96402513D01*
X129581802Y-95949964D01*
X129199964Y-96331802D01*
X129652513Y-96784350D01*
G36*
X130218198Y-97350036D02*
X130592965Y-96975269D01*
X130600036Y-96968198D01*
X130147487Y-96515650D01*
X129765650Y-96897487D01*
X130218198Y-97350036D01*
G37*
X130218198Y-97350036D02*
X130592965Y-96975269D01*
X130600036Y-96968198D01*
X130147487Y-96515650D01*
X129765650Y-96897487D01*
X130218198Y-97350036D01*
G04 #@! TO.C,D109*
G36*
X129652513Y-97984350D02*
X130034350Y-97602513D01*
X129581802Y-97149964D01*
X129199964Y-97531802D01*
X129652513Y-97984350D01*
G37*
X129652513Y-97984350D02*
X130034350Y-97602513D01*
X129581802Y-97149964D01*
X129199964Y-97531802D01*
X129652513Y-97984350D01*
G36*
X130218198Y-98550036D02*
X130592965Y-98175269D01*
X130600036Y-98168198D01*
X130147487Y-97715650D01*
X129765650Y-98097487D01*
X130218198Y-98550036D01*
G37*
X130218198Y-98550036D02*
X130592965Y-98175269D01*
X130600036Y-98168198D01*
X130147487Y-97715650D01*
X129765650Y-98097487D01*
X130218198Y-98550036D01*
G04 #@! TO.C,D110*
G36*
X129652513Y-99184350D02*
X130034350Y-98802513D01*
X129581802Y-98349964D01*
X129199964Y-98731802D01*
X129652513Y-99184350D01*
G37*
X129652513Y-99184350D02*
X130034350Y-98802513D01*
X129581802Y-98349964D01*
X129199964Y-98731802D01*
X129652513Y-99184350D01*
G36*
X130218198Y-99750036D02*
X130592965Y-99375269D01*
X130600036Y-99368198D01*
X130147487Y-98915650D01*
X129765650Y-99297487D01*
X130218198Y-99750036D01*
G37*
X130218198Y-99750036D02*
X130592965Y-99375269D01*
X130600036Y-99368198D01*
X130147487Y-98915650D01*
X129765650Y-99297487D01*
X130218198Y-99750036D01*
G04 #@! TO.C,D111*
G36*
X130852513Y-88384350D02*
X131234350Y-88002513D01*
X130781802Y-87549964D01*
X130399964Y-87931802D01*
X130852513Y-88384350D01*
G37*
X130852513Y-88384350D02*
X131234350Y-88002513D01*
X130781802Y-87549964D01*
X130399964Y-87931802D01*
X130852513Y-88384350D01*
G36*
X131418198Y-88950036D02*
X131792965Y-88575269D01*
X131800036Y-88568198D01*
X131347487Y-88115650D01*
X130965650Y-88497487D01*
X131418198Y-88950036D01*
G37*
X131418198Y-88950036D02*
X131792965Y-88575269D01*
X131800036Y-88568198D01*
X131347487Y-88115650D01*
X130965650Y-88497487D01*
X131418198Y-88950036D01*
G04 #@! TO.C,D112*
G36*
X130852513Y-89584350D02*
X131234350Y-89202513D01*
X130781802Y-88749964D01*
X130399964Y-89131802D01*
X130852513Y-89584350D01*
G37*
X130852513Y-89584350D02*
X131234350Y-89202513D01*
X130781802Y-88749964D01*
X130399964Y-89131802D01*
X130852513Y-89584350D01*
G36*
X131418198Y-90150036D02*
X131792965Y-89775269D01*
X131800036Y-89768198D01*
X131347487Y-89315650D01*
X130965650Y-89697487D01*
X131418198Y-90150036D01*
G37*
X131418198Y-90150036D02*
X131792965Y-89775269D01*
X131800036Y-89768198D01*
X131347487Y-89315650D01*
X130965650Y-89697487D01*
X131418198Y-90150036D01*
G04 #@! TO.C,D113*
G36*
X130852513Y-90784350D02*
X131234350Y-90402513D01*
X130781802Y-89949964D01*
X130399964Y-90331802D01*
X130852513Y-90784350D01*
G37*
X130852513Y-90784350D02*
X131234350Y-90402513D01*
X130781802Y-89949964D01*
X130399964Y-90331802D01*
X130852513Y-90784350D01*
G36*
X131418198Y-91350036D02*
X131792965Y-90975269D01*
X131800036Y-90968198D01*
X131347487Y-90515650D01*
X130965650Y-90897487D01*
X131418198Y-91350036D01*
G37*
X131418198Y-91350036D02*
X131792965Y-90975269D01*
X131800036Y-90968198D01*
X131347487Y-90515650D01*
X130965650Y-90897487D01*
X131418198Y-91350036D01*
G04 #@! TO.C,D114*
G36*
X130852513Y-91984350D02*
X131234350Y-91602513D01*
X130781802Y-91149964D01*
X130399964Y-91531802D01*
X130852513Y-91984350D01*
G37*
X130852513Y-91984350D02*
X131234350Y-91602513D01*
X130781802Y-91149964D01*
X130399964Y-91531802D01*
X130852513Y-91984350D01*
G36*
X131418198Y-92550036D02*
X131792965Y-92175269D01*
X131800036Y-92168198D01*
X131347487Y-91715650D01*
X130965650Y-92097487D01*
X131418198Y-92550036D01*
G37*
X131418198Y-92550036D02*
X131792965Y-92175269D01*
X131800036Y-92168198D01*
X131347487Y-91715650D01*
X130965650Y-92097487D01*
X131418198Y-92550036D01*
G04 #@! TO.C,D115*
G36*
X130852513Y-93184350D02*
X131234350Y-92802513D01*
X130781802Y-92349964D01*
X130399964Y-92731802D01*
X130852513Y-93184350D01*
G37*
X130852513Y-93184350D02*
X131234350Y-92802513D01*
X130781802Y-92349964D01*
X130399964Y-92731802D01*
X130852513Y-93184350D01*
G36*
X131418198Y-93750036D02*
X131792965Y-93375269D01*
X131800036Y-93368198D01*
X131347487Y-92915650D01*
X130965650Y-93297487D01*
X131418198Y-93750036D01*
G37*
X131418198Y-93750036D02*
X131792965Y-93375269D01*
X131800036Y-93368198D01*
X131347487Y-92915650D01*
X130965650Y-93297487D01*
X131418198Y-93750036D01*
G04 #@! TO.C,D116*
G36*
X130852513Y-94384350D02*
X131234350Y-94002513D01*
X130781802Y-93549964D01*
X130399964Y-93931802D01*
X130852513Y-94384350D01*
G37*
X130852513Y-94384350D02*
X131234350Y-94002513D01*
X130781802Y-93549964D01*
X130399964Y-93931802D01*
X130852513Y-94384350D01*
G36*
X131418198Y-94950036D02*
X131792965Y-94575269D01*
X131800036Y-94568198D01*
X131347487Y-94115650D01*
X130965650Y-94497487D01*
X131418198Y-94950036D01*
G37*
X131418198Y-94950036D02*
X131792965Y-94575269D01*
X131800036Y-94568198D01*
X131347487Y-94115650D01*
X130965650Y-94497487D01*
X131418198Y-94950036D01*
G04 #@! TO.C,D117*
G36*
X130852513Y-95584350D02*
X131234350Y-95202513D01*
X130781802Y-94749964D01*
X130399964Y-95131802D01*
X130852513Y-95584350D01*
G37*
X130852513Y-95584350D02*
X131234350Y-95202513D01*
X130781802Y-94749964D01*
X130399964Y-95131802D01*
X130852513Y-95584350D01*
G36*
X131418198Y-96150036D02*
X131792965Y-95775269D01*
X131800036Y-95768198D01*
X131347487Y-95315650D01*
X130965650Y-95697487D01*
X131418198Y-96150036D01*
G37*
X131418198Y-96150036D02*
X131792965Y-95775269D01*
X131800036Y-95768198D01*
X131347487Y-95315650D01*
X130965650Y-95697487D01*
X131418198Y-96150036D01*
G04 #@! TO.C,D118*
G36*
X130852513Y-96784350D02*
X131234350Y-96402513D01*
X130781802Y-95949964D01*
X130399964Y-96331802D01*
X130852513Y-96784350D01*
G37*
X130852513Y-96784350D02*
X131234350Y-96402513D01*
X130781802Y-95949964D01*
X130399964Y-96331802D01*
X130852513Y-96784350D01*
G36*
X131418198Y-97350036D02*
X131792965Y-96975269D01*
X131800036Y-96968198D01*
X131347487Y-96515650D01*
X130965650Y-96897487D01*
X131418198Y-97350036D01*
G37*
X131418198Y-97350036D02*
X131792965Y-96975269D01*
X131800036Y-96968198D01*
X131347487Y-96515650D01*
X130965650Y-96897487D01*
X131418198Y-97350036D01*
G04 #@! TO.C,D119*
G36*
X130852513Y-97984350D02*
X131234350Y-97602513D01*
X130781802Y-97149964D01*
X130399964Y-97531802D01*
X130852513Y-97984350D01*
G37*
X130852513Y-97984350D02*
X131234350Y-97602513D01*
X130781802Y-97149964D01*
X130399964Y-97531802D01*
X130852513Y-97984350D01*
G36*
X131418198Y-98550036D02*
X131792965Y-98175269D01*
X131800036Y-98168198D01*
X131347487Y-97715650D01*
X130965650Y-98097487D01*
X131418198Y-98550036D01*
G37*
X131418198Y-98550036D02*
X131792965Y-98175269D01*
X131800036Y-98168198D01*
X131347487Y-97715650D01*
X130965650Y-98097487D01*
X131418198Y-98550036D01*
G04 #@! TO.C,D120*
G36*
X130852513Y-99184350D02*
X131234350Y-98802513D01*
X130781802Y-98349964D01*
X130399964Y-98731802D01*
X130852513Y-99184350D01*
G37*
X130852513Y-99184350D02*
X131234350Y-98802513D01*
X130781802Y-98349964D01*
X130399964Y-98731802D01*
X130852513Y-99184350D01*
G36*
X131418198Y-99750036D02*
X131792965Y-99375269D01*
X131800036Y-99368198D01*
X131347487Y-98915650D01*
X130965650Y-99297487D01*
X131418198Y-99750036D01*
G37*
X131418198Y-99750036D02*
X131792965Y-99375269D01*
X131800036Y-99368198D01*
X131347487Y-98915650D01*
X130965650Y-99297487D01*
X131418198Y-99750036D01*
D12*
G36*
X98451000Y-132401000D02*
X96649000Y-132401000D01*
X96649000Y-130599000D01*
X98451000Y-130599000D01*
X98451000Y-132401000D01*
X98451000Y-132401000D01*
G37*
G36*
X95120443Y-130605519D02*
X95186627Y-130612037D01*
X95299853Y-130646384D01*
X95356467Y-130663557D01*
X95495087Y-130737652D01*
X95512991Y-130747222D01*
X95548729Y-130776552D01*
X95650186Y-130859814D01*
X95733448Y-130961271D01*
X95762778Y-130997009D01*
X95762779Y-130997011D01*
X95846443Y-131153533D01*
X95846443Y-131153534D01*
X95897963Y-131323373D01*
X95915359Y-131500000D01*
X95897963Y-131676627D01*
X95863616Y-131789853D01*
X95846443Y-131846467D01*
X95772348Y-131985087D01*
X95762778Y-132002991D01*
X95733448Y-132038729D01*
X95650186Y-132140186D01*
X95548729Y-132223448D01*
X95512991Y-132252778D01*
X95512989Y-132252779D01*
X95356467Y-132336443D01*
X95299853Y-132353616D01*
X95186627Y-132387963D01*
X95120442Y-132394482D01*
X95054260Y-132401000D01*
X94965740Y-132401000D01*
X94899558Y-132394482D01*
X94833373Y-132387963D01*
X94720147Y-132353616D01*
X94663533Y-132336443D01*
X94507011Y-132252779D01*
X94507009Y-132252778D01*
X94471271Y-132223448D01*
X94369814Y-132140186D01*
X94286552Y-132038729D01*
X94257222Y-132002991D01*
X94247652Y-131985087D01*
X94173557Y-131846467D01*
X94156384Y-131789853D01*
X94122037Y-131676627D01*
X94104641Y-131500000D01*
X94122037Y-131323373D01*
X94173557Y-131153534D01*
X94173557Y-131153533D01*
X94257221Y-130997011D01*
X94257222Y-130997009D01*
X94286552Y-130961271D01*
X94369814Y-130859814D01*
X94471271Y-130776552D01*
X94507009Y-130747222D01*
X94524913Y-130737652D01*
X94663533Y-130663557D01*
X94720147Y-130646384D01*
X94833373Y-130612037D01*
X94899557Y-130605519D01*
X94965740Y-130599000D01*
X95054260Y-130599000D01*
X95120443Y-130605519D01*
X95120443Y-130605519D01*
G37*
G36*
X97660443Y-128065519D02*
X97726627Y-128072037D01*
X97839853Y-128106384D01*
X97896467Y-128123557D01*
X98035087Y-128197652D01*
X98052991Y-128207222D01*
X98088729Y-128236552D01*
X98190186Y-128319814D01*
X98273448Y-128421271D01*
X98302778Y-128457009D01*
X98302779Y-128457011D01*
X98386443Y-128613533D01*
X98386443Y-128613534D01*
X98437963Y-128783373D01*
X98455359Y-128960000D01*
X98437963Y-129136627D01*
X98403616Y-129249853D01*
X98386443Y-129306467D01*
X98312348Y-129445087D01*
X98302778Y-129462991D01*
X98273448Y-129498729D01*
X98190186Y-129600186D01*
X98088729Y-129683448D01*
X98052991Y-129712778D01*
X98052989Y-129712779D01*
X97896467Y-129796443D01*
X97839853Y-129813616D01*
X97726627Y-129847963D01*
X97660443Y-129854481D01*
X97594260Y-129861000D01*
X97505740Y-129861000D01*
X97439557Y-129854481D01*
X97373373Y-129847963D01*
X97260147Y-129813616D01*
X97203533Y-129796443D01*
X97047011Y-129712779D01*
X97047009Y-129712778D01*
X97011271Y-129683448D01*
X96909814Y-129600186D01*
X96826552Y-129498729D01*
X96797222Y-129462991D01*
X96787652Y-129445087D01*
X96713557Y-129306467D01*
X96696384Y-129249853D01*
X96662037Y-129136627D01*
X96644641Y-128960000D01*
X96662037Y-128783373D01*
X96713557Y-128613534D01*
X96713557Y-128613533D01*
X96797221Y-128457011D01*
X96797222Y-128457009D01*
X96826552Y-128421271D01*
X96909814Y-128319814D01*
X97011271Y-128236552D01*
X97047009Y-128207222D01*
X97064913Y-128197652D01*
X97203533Y-128123557D01*
X97260147Y-128106384D01*
X97373373Y-128072037D01*
X97439557Y-128065519D01*
X97505740Y-128059000D01*
X97594260Y-128059000D01*
X97660443Y-128065519D01*
X97660443Y-128065519D01*
G37*
G36*
X95120443Y-128065519D02*
X95186627Y-128072037D01*
X95299853Y-128106384D01*
X95356467Y-128123557D01*
X95495087Y-128197652D01*
X95512991Y-128207222D01*
X95548729Y-128236552D01*
X95650186Y-128319814D01*
X95733448Y-128421271D01*
X95762778Y-128457009D01*
X95762779Y-128457011D01*
X95846443Y-128613533D01*
X95846443Y-128613534D01*
X95897963Y-128783373D01*
X95915359Y-128960000D01*
X95897963Y-129136627D01*
X95863616Y-129249853D01*
X95846443Y-129306467D01*
X95772348Y-129445087D01*
X95762778Y-129462991D01*
X95733448Y-129498729D01*
X95650186Y-129600186D01*
X95548729Y-129683448D01*
X95512991Y-129712778D01*
X95512989Y-129712779D01*
X95356467Y-129796443D01*
X95299853Y-129813616D01*
X95186627Y-129847963D01*
X95120443Y-129854481D01*
X95054260Y-129861000D01*
X94965740Y-129861000D01*
X94899557Y-129854481D01*
X94833373Y-129847963D01*
X94720147Y-129813616D01*
X94663533Y-129796443D01*
X94507011Y-129712779D01*
X94507009Y-129712778D01*
X94471271Y-129683448D01*
X94369814Y-129600186D01*
X94286552Y-129498729D01*
X94257222Y-129462991D01*
X94247652Y-129445087D01*
X94173557Y-129306467D01*
X94156384Y-129249853D01*
X94122037Y-129136627D01*
X94104641Y-128960000D01*
X94122037Y-128783373D01*
X94173557Y-128613534D01*
X94173557Y-128613533D01*
X94257221Y-128457011D01*
X94257222Y-128457009D01*
X94286552Y-128421271D01*
X94369814Y-128319814D01*
X94471271Y-128236552D01*
X94507009Y-128207222D01*
X94524913Y-128197652D01*
X94663533Y-128123557D01*
X94720147Y-128106384D01*
X94833373Y-128072037D01*
X94899557Y-128065519D01*
X94965740Y-128059000D01*
X95054260Y-128059000D01*
X95120443Y-128065519D01*
X95120443Y-128065519D01*
G37*
G36*
X95120443Y-125525519D02*
X95186627Y-125532037D01*
X95299853Y-125566384D01*
X95356467Y-125583557D01*
X95495087Y-125657652D01*
X95512991Y-125667222D01*
X95548729Y-125696552D01*
X95650186Y-125779814D01*
X95733448Y-125881271D01*
X95762778Y-125917009D01*
X95762779Y-125917011D01*
X95846443Y-126073533D01*
X95846443Y-126073534D01*
X95897963Y-126243373D01*
X95915359Y-126420000D01*
X95897963Y-126596627D01*
X95863616Y-126709853D01*
X95846443Y-126766467D01*
X95772348Y-126905087D01*
X95762778Y-126922991D01*
X95733448Y-126958729D01*
X95650186Y-127060186D01*
X95548729Y-127143448D01*
X95512991Y-127172778D01*
X95512989Y-127172779D01*
X95356467Y-127256443D01*
X95299853Y-127273616D01*
X95186627Y-127307963D01*
X95120443Y-127314481D01*
X95054260Y-127321000D01*
X94965740Y-127321000D01*
X94899557Y-127314481D01*
X94833373Y-127307963D01*
X94720147Y-127273616D01*
X94663533Y-127256443D01*
X94507011Y-127172779D01*
X94507009Y-127172778D01*
X94471271Y-127143448D01*
X94369814Y-127060186D01*
X94286552Y-126958729D01*
X94257222Y-126922991D01*
X94247652Y-126905087D01*
X94173557Y-126766467D01*
X94156384Y-126709853D01*
X94122037Y-126596627D01*
X94104641Y-126420000D01*
X94122037Y-126243373D01*
X94173557Y-126073534D01*
X94173557Y-126073533D01*
X94257221Y-125917011D01*
X94257222Y-125917009D01*
X94286552Y-125881271D01*
X94369814Y-125779814D01*
X94471271Y-125696552D01*
X94507009Y-125667222D01*
X94524913Y-125657652D01*
X94663533Y-125583557D01*
X94720147Y-125566384D01*
X94833373Y-125532037D01*
X94899557Y-125525519D01*
X94965740Y-125519000D01*
X95054260Y-125519000D01*
X95120443Y-125525519D01*
X95120443Y-125525519D01*
G37*
G36*
X97660443Y-125525519D02*
X97726627Y-125532037D01*
X97839853Y-125566384D01*
X97896467Y-125583557D01*
X98035087Y-125657652D01*
X98052991Y-125667222D01*
X98088729Y-125696552D01*
X98190186Y-125779814D01*
X98273448Y-125881271D01*
X98302778Y-125917009D01*
X98302779Y-125917011D01*
X98386443Y-126073533D01*
X98386443Y-126073534D01*
X98437963Y-126243373D01*
X98455359Y-126420000D01*
X98437963Y-126596627D01*
X98403616Y-126709853D01*
X98386443Y-126766467D01*
X98312348Y-126905087D01*
X98302778Y-126922991D01*
X98273448Y-126958729D01*
X98190186Y-127060186D01*
X98088729Y-127143448D01*
X98052991Y-127172778D01*
X98052989Y-127172779D01*
X97896467Y-127256443D01*
X97839853Y-127273616D01*
X97726627Y-127307963D01*
X97660443Y-127314481D01*
X97594260Y-127321000D01*
X97505740Y-127321000D01*
X97439557Y-127314481D01*
X97373373Y-127307963D01*
X97260147Y-127273616D01*
X97203533Y-127256443D01*
X97047011Y-127172779D01*
X97047009Y-127172778D01*
X97011271Y-127143448D01*
X96909814Y-127060186D01*
X96826552Y-126958729D01*
X96797222Y-126922991D01*
X96787652Y-126905087D01*
X96713557Y-126766467D01*
X96696384Y-126709853D01*
X96662037Y-126596627D01*
X96644641Y-126420000D01*
X96662037Y-126243373D01*
X96713557Y-126073534D01*
X96713557Y-126073533D01*
X96797221Y-125917011D01*
X96797222Y-125917009D01*
X96826552Y-125881271D01*
X96909814Y-125779814D01*
X97011271Y-125696552D01*
X97047009Y-125667222D01*
X97064913Y-125657652D01*
X97203533Y-125583557D01*
X97260147Y-125566384D01*
X97373373Y-125532037D01*
X97439557Y-125525519D01*
X97505740Y-125519000D01*
X97594260Y-125519000D01*
X97660443Y-125525519D01*
X97660443Y-125525519D01*
G37*
G36*
X95120443Y-122985519D02*
X95186627Y-122992037D01*
X95299853Y-123026384D01*
X95356467Y-123043557D01*
X95495087Y-123117652D01*
X95512991Y-123127222D01*
X95548729Y-123156552D01*
X95650186Y-123239814D01*
X95733448Y-123341271D01*
X95762778Y-123377009D01*
X95762779Y-123377011D01*
X95846443Y-123533533D01*
X95846443Y-123533534D01*
X95897963Y-123703373D01*
X95915359Y-123880000D01*
X95897963Y-124056627D01*
X95863616Y-124169853D01*
X95846443Y-124226467D01*
X95772348Y-124365087D01*
X95762778Y-124382991D01*
X95733448Y-124418729D01*
X95650186Y-124520186D01*
X95548729Y-124603448D01*
X95512991Y-124632778D01*
X95512989Y-124632779D01*
X95356467Y-124716443D01*
X95299853Y-124733616D01*
X95186627Y-124767963D01*
X95120443Y-124774481D01*
X95054260Y-124781000D01*
X94965740Y-124781000D01*
X94899557Y-124774481D01*
X94833373Y-124767963D01*
X94720147Y-124733616D01*
X94663533Y-124716443D01*
X94507011Y-124632779D01*
X94507009Y-124632778D01*
X94471271Y-124603448D01*
X94369814Y-124520186D01*
X94286552Y-124418729D01*
X94257222Y-124382991D01*
X94247652Y-124365087D01*
X94173557Y-124226467D01*
X94156384Y-124169853D01*
X94122037Y-124056627D01*
X94104641Y-123880000D01*
X94122037Y-123703373D01*
X94173557Y-123533534D01*
X94173557Y-123533533D01*
X94257221Y-123377011D01*
X94257222Y-123377009D01*
X94286552Y-123341271D01*
X94369814Y-123239814D01*
X94471271Y-123156552D01*
X94507009Y-123127222D01*
X94524913Y-123117652D01*
X94663533Y-123043557D01*
X94720147Y-123026384D01*
X94833373Y-122992037D01*
X94899557Y-122985519D01*
X94965740Y-122979000D01*
X95054260Y-122979000D01*
X95120443Y-122985519D01*
X95120443Y-122985519D01*
G37*
G36*
X97660443Y-122985519D02*
X97726627Y-122992037D01*
X97839853Y-123026384D01*
X97896467Y-123043557D01*
X98035087Y-123117652D01*
X98052991Y-123127222D01*
X98088729Y-123156552D01*
X98190186Y-123239814D01*
X98273448Y-123341271D01*
X98302778Y-123377009D01*
X98302779Y-123377011D01*
X98386443Y-123533533D01*
X98386443Y-123533534D01*
X98437963Y-123703373D01*
X98455359Y-123880000D01*
X98437963Y-124056627D01*
X98403616Y-124169853D01*
X98386443Y-124226467D01*
X98312348Y-124365087D01*
X98302778Y-124382991D01*
X98273448Y-124418729D01*
X98190186Y-124520186D01*
X98088729Y-124603448D01*
X98052991Y-124632778D01*
X98052989Y-124632779D01*
X97896467Y-124716443D01*
X97839853Y-124733616D01*
X97726627Y-124767963D01*
X97660443Y-124774481D01*
X97594260Y-124781000D01*
X97505740Y-124781000D01*
X97439557Y-124774481D01*
X97373373Y-124767963D01*
X97260147Y-124733616D01*
X97203533Y-124716443D01*
X97047011Y-124632779D01*
X97047009Y-124632778D01*
X97011271Y-124603448D01*
X96909814Y-124520186D01*
X96826552Y-124418729D01*
X96797222Y-124382991D01*
X96787652Y-124365087D01*
X96713557Y-124226467D01*
X96696384Y-124169853D01*
X96662037Y-124056627D01*
X96644641Y-123880000D01*
X96662037Y-123703373D01*
X96713557Y-123533534D01*
X96713557Y-123533533D01*
X96797221Y-123377011D01*
X96797222Y-123377009D01*
X96826552Y-123341271D01*
X96909814Y-123239814D01*
X97011271Y-123156552D01*
X97047009Y-123127222D01*
X97064913Y-123117652D01*
X97203533Y-123043557D01*
X97260147Y-123026384D01*
X97373373Y-122992037D01*
X97439557Y-122985519D01*
X97505740Y-122979000D01*
X97594260Y-122979000D01*
X97660443Y-122985519D01*
X97660443Y-122985519D01*
G37*
G36*
X95120442Y-120445518D02*
X95186627Y-120452037D01*
X95299853Y-120486384D01*
X95356467Y-120503557D01*
X95495087Y-120577652D01*
X95512991Y-120587222D01*
X95548729Y-120616552D01*
X95650186Y-120699814D01*
X95733448Y-120801271D01*
X95762778Y-120837009D01*
X95762779Y-120837011D01*
X95846443Y-120993533D01*
X95846443Y-120993534D01*
X95897963Y-121163373D01*
X95915359Y-121340000D01*
X95897963Y-121516627D01*
X95863616Y-121629853D01*
X95846443Y-121686467D01*
X95772348Y-121825087D01*
X95762778Y-121842991D01*
X95733448Y-121878729D01*
X95650186Y-121980186D01*
X95548729Y-122063448D01*
X95512991Y-122092778D01*
X95512989Y-122092779D01*
X95356467Y-122176443D01*
X95299853Y-122193616D01*
X95186627Y-122227963D01*
X95120443Y-122234481D01*
X95054260Y-122241000D01*
X94965740Y-122241000D01*
X94899557Y-122234481D01*
X94833373Y-122227963D01*
X94720147Y-122193616D01*
X94663533Y-122176443D01*
X94507011Y-122092779D01*
X94507009Y-122092778D01*
X94471271Y-122063448D01*
X94369814Y-121980186D01*
X94286552Y-121878729D01*
X94257222Y-121842991D01*
X94247652Y-121825087D01*
X94173557Y-121686467D01*
X94156384Y-121629853D01*
X94122037Y-121516627D01*
X94104641Y-121340000D01*
X94122037Y-121163373D01*
X94173557Y-120993534D01*
X94173557Y-120993533D01*
X94257221Y-120837011D01*
X94257222Y-120837009D01*
X94286552Y-120801271D01*
X94369814Y-120699814D01*
X94471271Y-120616552D01*
X94507009Y-120587222D01*
X94524913Y-120577652D01*
X94663533Y-120503557D01*
X94720147Y-120486384D01*
X94833373Y-120452037D01*
X94899558Y-120445518D01*
X94965740Y-120439000D01*
X95054260Y-120439000D01*
X95120442Y-120445518D01*
X95120442Y-120445518D01*
G37*
G36*
X97660442Y-120445518D02*
X97726627Y-120452037D01*
X97839853Y-120486384D01*
X97896467Y-120503557D01*
X98035087Y-120577652D01*
X98052991Y-120587222D01*
X98088729Y-120616552D01*
X98190186Y-120699814D01*
X98273448Y-120801271D01*
X98302778Y-120837009D01*
X98302779Y-120837011D01*
X98386443Y-120993533D01*
X98386443Y-120993534D01*
X98437963Y-121163373D01*
X98455359Y-121340000D01*
X98437963Y-121516627D01*
X98403616Y-121629853D01*
X98386443Y-121686467D01*
X98312348Y-121825087D01*
X98302778Y-121842991D01*
X98273448Y-121878729D01*
X98190186Y-121980186D01*
X98088729Y-122063448D01*
X98052991Y-122092778D01*
X98052989Y-122092779D01*
X97896467Y-122176443D01*
X97839853Y-122193616D01*
X97726627Y-122227963D01*
X97660443Y-122234481D01*
X97594260Y-122241000D01*
X97505740Y-122241000D01*
X97439557Y-122234481D01*
X97373373Y-122227963D01*
X97260147Y-122193616D01*
X97203533Y-122176443D01*
X97047011Y-122092779D01*
X97047009Y-122092778D01*
X97011271Y-122063448D01*
X96909814Y-121980186D01*
X96826552Y-121878729D01*
X96797222Y-121842991D01*
X96787652Y-121825087D01*
X96713557Y-121686467D01*
X96696384Y-121629853D01*
X96662037Y-121516627D01*
X96644641Y-121340000D01*
X96662037Y-121163373D01*
X96713557Y-120993534D01*
X96713557Y-120993533D01*
X96797221Y-120837011D01*
X96797222Y-120837009D01*
X96826552Y-120801271D01*
X96909814Y-120699814D01*
X97011271Y-120616552D01*
X97047009Y-120587222D01*
X97064913Y-120577652D01*
X97203533Y-120503557D01*
X97260147Y-120486384D01*
X97373373Y-120452037D01*
X97439558Y-120445518D01*
X97505740Y-120439000D01*
X97594260Y-120439000D01*
X97660442Y-120445518D01*
X97660442Y-120445518D01*
G37*
G36*
X95120442Y-117905518D02*
X95186627Y-117912037D01*
X95299853Y-117946384D01*
X95356467Y-117963557D01*
X95495087Y-118037652D01*
X95512991Y-118047222D01*
X95548729Y-118076552D01*
X95650186Y-118159814D01*
X95733448Y-118261271D01*
X95762778Y-118297009D01*
X95762779Y-118297011D01*
X95846443Y-118453533D01*
X95846443Y-118453534D01*
X95897963Y-118623373D01*
X95915359Y-118800000D01*
X95897963Y-118976627D01*
X95863616Y-119089853D01*
X95846443Y-119146467D01*
X95772348Y-119285087D01*
X95762778Y-119302991D01*
X95733448Y-119338729D01*
X95650186Y-119440186D01*
X95548729Y-119523448D01*
X95512991Y-119552778D01*
X95512989Y-119552779D01*
X95356467Y-119636443D01*
X95299853Y-119653616D01*
X95186627Y-119687963D01*
X95120442Y-119694482D01*
X95054260Y-119701000D01*
X94965740Y-119701000D01*
X94899558Y-119694482D01*
X94833373Y-119687963D01*
X94720147Y-119653616D01*
X94663533Y-119636443D01*
X94507011Y-119552779D01*
X94507009Y-119552778D01*
X94471271Y-119523448D01*
X94369814Y-119440186D01*
X94286552Y-119338729D01*
X94257222Y-119302991D01*
X94247652Y-119285087D01*
X94173557Y-119146467D01*
X94156384Y-119089853D01*
X94122037Y-118976627D01*
X94104641Y-118800000D01*
X94122037Y-118623373D01*
X94173557Y-118453534D01*
X94173557Y-118453533D01*
X94257221Y-118297011D01*
X94257222Y-118297009D01*
X94286552Y-118261271D01*
X94369814Y-118159814D01*
X94471271Y-118076552D01*
X94507009Y-118047222D01*
X94524913Y-118037652D01*
X94663533Y-117963557D01*
X94720147Y-117946384D01*
X94833373Y-117912037D01*
X94899558Y-117905518D01*
X94965740Y-117899000D01*
X95054260Y-117899000D01*
X95120442Y-117905518D01*
X95120442Y-117905518D01*
G37*
G36*
X97660442Y-117905518D02*
X97726627Y-117912037D01*
X97839853Y-117946384D01*
X97896467Y-117963557D01*
X98035087Y-118037652D01*
X98052991Y-118047222D01*
X98088729Y-118076552D01*
X98190186Y-118159814D01*
X98273448Y-118261271D01*
X98302778Y-118297009D01*
X98302779Y-118297011D01*
X98386443Y-118453533D01*
X98386443Y-118453534D01*
X98437963Y-118623373D01*
X98455359Y-118800000D01*
X98437963Y-118976627D01*
X98403616Y-119089853D01*
X98386443Y-119146467D01*
X98312348Y-119285087D01*
X98302778Y-119302991D01*
X98273448Y-119338729D01*
X98190186Y-119440186D01*
X98088729Y-119523448D01*
X98052991Y-119552778D01*
X98052989Y-119552779D01*
X97896467Y-119636443D01*
X97839853Y-119653616D01*
X97726627Y-119687963D01*
X97660442Y-119694482D01*
X97594260Y-119701000D01*
X97505740Y-119701000D01*
X97439558Y-119694482D01*
X97373373Y-119687963D01*
X97260147Y-119653616D01*
X97203533Y-119636443D01*
X97047011Y-119552779D01*
X97047009Y-119552778D01*
X97011271Y-119523448D01*
X96909814Y-119440186D01*
X96826552Y-119338729D01*
X96797222Y-119302991D01*
X96787652Y-119285087D01*
X96713557Y-119146467D01*
X96696384Y-119089853D01*
X96662037Y-118976627D01*
X96644641Y-118800000D01*
X96662037Y-118623373D01*
X96713557Y-118453534D01*
X96713557Y-118453533D01*
X96797221Y-118297011D01*
X96797222Y-118297009D01*
X96826552Y-118261271D01*
X96909814Y-118159814D01*
X97011271Y-118076552D01*
X97047009Y-118047222D01*
X97064913Y-118037652D01*
X97203533Y-117963557D01*
X97260147Y-117946384D01*
X97373373Y-117912037D01*
X97439558Y-117905518D01*
X97505740Y-117899000D01*
X97594260Y-117899000D01*
X97660442Y-117905518D01*
X97660442Y-117905518D01*
G37*
G36*
X97660443Y-115365519D02*
X97726627Y-115372037D01*
X97839853Y-115406384D01*
X97896467Y-115423557D01*
X98035087Y-115497652D01*
X98052991Y-115507222D01*
X98088729Y-115536552D01*
X98190186Y-115619814D01*
X98273448Y-115721271D01*
X98302778Y-115757009D01*
X98302779Y-115757011D01*
X98386443Y-115913533D01*
X98386443Y-115913534D01*
X98437963Y-116083373D01*
X98455359Y-116260000D01*
X98437963Y-116436627D01*
X98403616Y-116549853D01*
X98386443Y-116606467D01*
X98312348Y-116745087D01*
X98302778Y-116762991D01*
X98273448Y-116798729D01*
X98190186Y-116900186D01*
X98088729Y-116983448D01*
X98052991Y-117012778D01*
X98052989Y-117012779D01*
X97896467Y-117096443D01*
X97839853Y-117113616D01*
X97726627Y-117147963D01*
X97660443Y-117154481D01*
X97594260Y-117161000D01*
X97505740Y-117161000D01*
X97439557Y-117154481D01*
X97373373Y-117147963D01*
X97260147Y-117113616D01*
X97203533Y-117096443D01*
X97047011Y-117012779D01*
X97047009Y-117012778D01*
X97011271Y-116983448D01*
X96909814Y-116900186D01*
X96826552Y-116798729D01*
X96797222Y-116762991D01*
X96787652Y-116745087D01*
X96713557Y-116606467D01*
X96696384Y-116549853D01*
X96662037Y-116436627D01*
X96644641Y-116260000D01*
X96662037Y-116083373D01*
X96713557Y-115913534D01*
X96713557Y-115913533D01*
X96797221Y-115757011D01*
X96797222Y-115757009D01*
X96826552Y-115721271D01*
X96909814Y-115619814D01*
X97011271Y-115536552D01*
X97047009Y-115507222D01*
X97064913Y-115497652D01*
X97203533Y-115423557D01*
X97260147Y-115406384D01*
X97373373Y-115372037D01*
X97439557Y-115365519D01*
X97505740Y-115359000D01*
X97594260Y-115359000D01*
X97660443Y-115365519D01*
X97660443Y-115365519D01*
G37*
G36*
X95120443Y-115365519D02*
X95186627Y-115372037D01*
X95299853Y-115406384D01*
X95356467Y-115423557D01*
X95495087Y-115497652D01*
X95512991Y-115507222D01*
X95548729Y-115536552D01*
X95650186Y-115619814D01*
X95733448Y-115721271D01*
X95762778Y-115757009D01*
X95762779Y-115757011D01*
X95846443Y-115913533D01*
X95846443Y-115913534D01*
X95897963Y-116083373D01*
X95915359Y-116260000D01*
X95897963Y-116436627D01*
X95863616Y-116549853D01*
X95846443Y-116606467D01*
X95772348Y-116745087D01*
X95762778Y-116762991D01*
X95733448Y-116798729D01*
X95650186Y-116900186D01*
X95548729Y-116983448D01*
X95512991Y-117012778D01*
X95512989Y-117012779D01*
X95356467Y-117096443D01*
X95299853Y-117113616D01*
X95186627Y-117147963D01*
X95120443Y-117154481D01*
X95054260Y-117161000D01*
X94965740Y-117161000D01*
X94899557Y-117154481D01*
X94833373Y-117147963D01*
X94720147Y-117113616D01*
X94663533Y-117096443D01*
X94507011Y-117012779D01*
X94507009Y-117012778D01*
X94471271Y-116983448D01*
X94369814Y-116900186D01*
X94286552Y-116798729D01*
X94257222Y-116762991D01*
X94247652Y-116745087D01*
X94173557Y-116606467D01*
X94156384Y-116549853D01*
X94122037Y-116436627D01*
X94104641Y-116260000D01*
X94122037Y-116083373D01*
X94173557Y-115913534D01*
X94173557Y-115913533D01*
X94257221Y-115757011D01*
X94257222Y-115757009D01*
X94286552Y-115721271D01*
X94369814Y-115619814D01*
X94471271Y-115536552D01*
X94507009Y-115507222D01*
X94524913Y-115497652D01*
X94663533Y-115423557D01*
X94720147Y-115406384D01*
X94833373Y-115372037D01*
X94899557Y-115365519D01*
X94965740Y-115359000D01*
X95054260Y-115359000D01*
X95120443Y-115365519D01*
X95120443Y-115365519D01*
G37*
G36*
X103054591Y-114956274D02*
X103088569Y-114966582D01*
X103119887Y-114983322D01*
X103147339Y-115005850D01*
X103169867Y-115033302D01*
X103186607Y-115064620D01*
X103196915Y-115098598D01*
X103201000Y-115140079D01*
X103201000Y-115816299D01*
X103196915Y-115857780D01*
X103186607Y-115891758D01*
X103169867Y-115923076D01*
X103147339Y-115950528D01*
X103119887Y-115973056D01*
X103088569Y-115989796D01*
X103054591Y-116000104D01*
X103013110Y-116004189D01*
X102411890Y-116004189D01*
X102370409Y-116000104D01*
X102336431Y-115989796D01*
X102305113Y-115973056D01*
X102277661Y-115950528D01*
X102255133Y-115923076D01*
X102238393Y-115891758D01*
X102228085Y-115857780D01*
X102224000Y-115816299D01*
X102224000Y-115140079D01*
X102228085Y-115098598D01*
X102238393Y-115064620D01*
X102255133Y-115033302D01*
X102277661Y-115005850D01*
X102305113Y-114983322D01*
X102336431Y-114966582D01*
X102370409Y-114956274D01*
X102411890Y-114952189D01*
X103013110Y-114952189D01*
X103054591Y-114956274D01*
X103054591Y-114956274D01*
G37*
G36*
X104629591Y-114956274D02*
X104663569Y-114966582D01*
X104694887Y-114983322D01*
X104722339Y-115005850D01*
X104744867Y-115033302D01*
X104761607Y-115064620D01*
X104771915Y-115098598D01*
X104776000Y-115140079D01*
X104776000Y-115816299D01*
X104771915Y-115857780D01*
X104761607Y-115891758D01*
X104744867Y-115923076D01*
X104722339Y-115950528D01*
X104694887Y-115973056D01*
X104663569Y-115989796D01*
X104629591Y-116000104D01*
X104588110Y-116004189D01*
X103986890Y-116004189D01*
X103945409Y-116000104D01*
X103911431Y-115989796D01*
X103880113Y-115973056D01*
X103852661Y-115950528D01*
X103830133Y-115923076D01*
X103813393Y-115891758D01*
X103803085Y-115857780D01*
X103799000Y-115816299D01*
X103799000Y-115140079D01*
X103803085Y-115098598D01*
X103813393Y-115064620D01*
X103830133Y-115033302D01*
X103852661Y-115005850D01*
X103880113Y-114983322D01*
X103911431Y-114966582D01*
X103945409Y-114956274D01*
X103986890Y-114952189D01*
X104588110Y-114952189D01*
X104629591Y-114956274D01*
X104629591Y-114956274D01*
G37*
G36*
X95120442Y-112825518D02*
X95186627Y-112832037D01*
X95299853Y-112866384D01*
X95356467Y-112883557D01*
X95492509Y-112956274D01*
X95512991Y-112967222D01*
X95544831Y-112993353D01*
X95650186Y-113079814D01*
X95733448Y-113181271D01*
X95762778Y-113217009D01*
X95762779Y-113217011D01*
X95846443Y-113373533D01*
X95846443Y-113373534D01*
X95897963Y-113543373D01*
X95915359Y-113720000D01*
X95897963Y-113896627D01*
X95866758Y-113999496D01*
X95846443Y-114066467D01*
X95772348Y-114205087D01*
X95762778Y-114222991D01*
X95733448Y-114258729D01*
X95650186Y-114360186D01*
X95548729Y-114443448D01*
X95512991Y-114472778D01*
X95512989Y-114472779D01*
X95356467Y-114556443D01*
X95299853Y-114573616D01*
X95186627Y-114607963D01*
X95120442Y-114614482D01*
X95054260Y-114621000D01*
X94965740Y-114621000D01*
X94899558Y-114614482D01*
X94833373Y-114607963D01*
X94720147Y-114573616D01*
X94663533Y-114556443D01*
X94507011Y-114472779D01*
X94507009Y-114472778D01*
X94471271Y-114443448D01*
X94369814Y-114360186D01*
X94286552Y-114258729D01*
X94257222Y-114222991D01*
X94247652Y-114205087D01*
X94173557Y-114066467D01*
X94153242Y-113999496D01*
X94122037Y-113896627D01*
X94104641Y-113720000D01*
X94122037Y-113543373D01*
X94173557Y-113373534D01*
X94173557Y-113373533D01*
X94257221Y-113217011D01*
X94257222Y-113217009D01*
X94286552Y-113181271D01*
X94369814Y-113079814D01*
X94475169Y-112993353D01*
X94507009Y-112967222D01*
X94527491Y-112956274D01*
X94663533Y-112883557D01*
X94720147Y-112866384D01*
X94833373Y-112832037D01*
X94899558Y-112825518D01*
X94965740Y-112819000D01*
X95054260Y-112819000D01*
X95120442Y-112825518D01*
X95120442Y-112825518D01*
G37*
G36*
X97660442Y-112825518D02*
X97726627Y-112832037D01*
X97839853Y-112866384D01*
X97896467Y-112883557D01*
X98032509Y-112956274D01*
X98052991Y-112967222D01*
X98084831Y-112993353D01*
X98190186Y-113079814D01*
X98273448Y-113181271D01*
X98302778Y-113217009D01*
X98302779Y-113217011D01*
X98386443Y-113373533D01*
X98386443Y-113373534D01*
X98437963Y-113543373D01*
X98455359Y-113720000D01*
X98437963Y-113896627D01*
X98406758Y-113999496D01*
X98386443Y-114066467D01*
X98312348Y-114205087D01*
X98302778Y-114222991D01*
X98273448Y-114258729D01*
X98190186Y-114360186D01*
X98088729Y-114443448D01*
X98052991Y-114472778D01*
X98052989Y-114472779D01*
X97896467Y-114556443D01*
X97839853Y-114573616D01*
X97726627Y-114607963D01*
X97660442Y-114614482D01*
X97594260Y-114621000D01*
X97505740Y-114621000D01*
X97439558Y-114614482D01*
X97373373Y-114607963D01*
X97260147Y-114573616D01*
X97203533Y-114556443D01*
X97047011Y-114472779D01*
X97047009Y-114472778D01*
X97011271Y-114443448D01*
X96909814Y-114360186D01*
X96826552Y-114258729D01*
X96797222Y-114222991D01*
X96787652Y-114205087D01*
X96713557Y-114066467D01*
X96693242Y-113999496D01*
X96662037Y-113896627D01*
X96644641Y-113720000D01*
X96662037Y-113543373D01*
X96713557Y-113373534D01*
X96713557Y-113373533D01*
X96797221Y-113217011D01*
X96797222Y-113217009D01*
X96826552Y-113181271D01*
X96909814Y-113079814D01*
X97015169Y-112993353D01*
X97047009Y-112967222D01*
X97067491Y-112956274D01*
X97203533Y-112883557D01*
X97260147Y-112866384D01*
X97373373Y-112832037D01*
X97439558Y-112825518D01*
X97505740Y-112819000D01*
X97594260Y-112819000D01*
X97660442Y-112825518D01*
X97660442Y-112825518D01*
G37*
G36*
X104629591Y-112956274D02*
X104663569Y-112966582D01*
X104694887Y-112983322D01*
X104722339Y-113005850D01*
X104744867Y-113033302D01*
X104761607Y-113064620D01*
X104771915Y-113098598D01*
X104776000Y-113140079D01*
X104776000Y-113816299D01*
X104771915Y-113857780D01*
X104761607Y-113891758D01*
X104744867Y-113923076D01*
X104722339Y-113950528D01*
X104694887Y-113973056D01*
X104663569Y-113989796D01*
X104629591Y-114000104D01*
X104588110Y-114004189D01*
X103986890Y-114004189D01*
X103945409Y-114000104D01*
X103911431Y-113989796D01*
X103880113Y-113973056D01*
X103852661Y-113950528D01*
X103830133Y-113923076D01*
X103813393Y-113891758D01*
X103803085Y-113857780D01*
X103799000Y-113816299D01*
X103799000Y-113140079D01*
X103803085Y-113098598D01*
X103813393Y-113064620D01*
X103830133Y-113033302D01*
X103852661Y-113005850D01*
X103880113Y-112983322D01*
X103911431Y-112966582D01*
X103945409Y-112956274D01*
X103986890Y-112952189D01*
X104588110Y-112952189D01*
X104629591Y-112956274D01*
X104629591Y-112956274D01*
G37*
G36*
X103054591Y-112956274D02*
X103088569Y-112966582D01*
X103119887Y-112983322D01*
X103147339Y-113005850D01*
X103169867Y-113033302D01*
X103186607Y-113064620D01*
X103196915Y-113098598D01*
X103201000Y-113140079D01*
X103201000Y-113816299D01*
X103196915Y-113857780D01*
X103186607Y-113891758D01*
X103169867Y-113923076D01*
X103147339Y-113950528D01*
X103119887Y-113973056D01*
X103088569Y-113989796D01*
X103054591Y-114000104D01*
X103013110Y-114004189D01*
X102411890Y-114004189D01*
X102370409Y-114000104D01*
X102336431Y-113989796D01*
X102305113Y-113973056D01*
X102277661Y-113950528D01*
X102255133Y-113923076D01*
X102238393Y-113891758D01*
X102228085Y-113857780D01*
X102224000Y-113816299D01*
X102224000Y-113140079D01*
X102228085Y-113098598D01*
X102238393Y-113064620D01*
X102255133Y-113033302D01*
X102277661Y-113005850D01*
X102305113Y-112983322D01*
X102336431Y-112966582D01*
X102370409Y-112956274D01*
X102411890Y-112952189D01*
X103013110Y-112952189D01*
X103054591Y-112956274D01*
X103054591Y-112956274D01*
G37*
G36*
X95120442Y-110285518D02*
X95186627Y-110292037D01*
X95299853Y-110326384D01*
X95356467Y-110343557D01*
X95495087Y-110417652D01*
X95512991Y-110427222D01*
X95548729Y-110456552D01*
X95650186Y-110539814D01*
X95733448Y-110641271D01*
X95762778Y-110677009D01*
X95762779Y-110677011D01*
X95846443Y-110833533D01*
X95846443Y-110833534D01*
X95897963Y-111003373D01*
X95915359Y-111180000D01*
X95897963Y-111356627D01*
X95863616Y-111469853D01*
X95846443Y-111526467D01*
X95772348Y-111665087D01*
X95762778Y-111682991D01*
X95733448Y-111718729D01*
X95650186Y-111820186D01*
X95562974Y-111891758D01*
X95512991Y-111932778D01*
X95512989Y-111932779D01*
X95356467Y-112016443D01*
X95299853Y-112033616D01*
X95186627Y-112067963D01*
X95120442Y-112074482D01*
X95054260Y-112081000D01*
X94965740Y-112081000D01*
X94899558Y-112074482D01*
X94833373Y-112067963D01*
X94720147Y-112033616D01*
X94663533Y-112016443D01*
X94507011Y-111932779D01*
X94507009Y-111932778D01*
X94457026Y-111891758D01*
X94369814Y-111820186D01*
X94286552Y-111718729D01*
X94257222Y-111682991D01*
X94247652Y-111665087D01*
X94173557Y-111526467D01*
X94156384Y-111469853D01*
X94122037Y-111356627D01*
X94104641Y-111180000D01*
X94122037Y-111003373D01*
X94173557Y-110833534D01*
X94173557Y-110833533D01*
X94257221Y-110677011D01*
X94257222Y-110677009D01*
X94286552Y-110641271D01*
X94369814Y-110539814D01*
X94471271Y-110456552D01*
X94507009Y-110427222D01*
X94524913Y-110417652D01*
X94663533Y-110343557D01*
X94720147Y-110326384D01*
X94833373Y-110292037D01*
X94899558Y-110285518D01*
X94965740Y-110279000D01*
X95054260Y-110279000D01*
X95120442Y-110285518D01*
X95120442Y-110285518D01*
G37*
G36*
X97660442Y-110285518D02*
X97726627Y-110292037D01*
X97839853Y-110326384D01*
X97896467Y-110343557D01*
X98035087Y-110417652D01*
X98052991Y-110427222D01*
X98088729Y-110456552D01*
X98190186Y-110539814D01*
X98273448Y-110641271D01*
X98302778Y-110677009D01*
X98302779Y-110677011D01*
X98386443Y-110833533D01*
X98386443Y-110833534D01*
X98437963Y-111003373D01*
X98455359Y-111180000D01*
X98437963Y-111356627D01*
X98403616Y-111469853D01*
X98386443Y-111526467D01*
X98312348Y-111665087D01*
X98302778Y-111682991D01*
X98273448Y-111718729D01*
X98190186Y-111820186D01*
X98102974Y-111891758D01*
X98052991Y-111932778D01*
X98052989Y-111932779D01*
X97896467Y-112016443D01*
X97839853Y-112033616D01*
X97726627Y-112067963D01*
X97660442Y-112074482D01*
X97594260Y-112081000D01*
X97505740Y-112081000D01*
X97439558Y-112074482D01*
X97373373Y-112067963D01*
X97260147Y-112033616D01*
X97203533Y-112016443D01*
X97047011Y-111932779D01*
X97047009Y-111932778D01*
X96997026Y-111891758D01*
X96909814Y-111820186D01*
X96826552Y-111718729D01*
X96797222Y-111682991D01*
X96787652Y-111665087D01*
X96713557Y-111526467D01*
X96696384Y-111469853D01*
X96662037Y-111356627D01*
X96644641Y-111180000D01*
X96662037Y-111003373D01*
X96713557Y-110833534D01*
X96713557Y-110833533D01*
X96797221Y-110677011D01*
X96797222Y-110677009D01*
X96826552Y-110641271D01*
X96909814Y-110539814D01*
X97011271Y-110456552D01*
X97047009Y-110427222D01*
X97064913Y-110417652D01*
X97203533Y-110343557D01*
X97260147Y-110326384D01*
X97373373Y-110292037D01*
X97439558Y-110285518D01*
X97505740Y-110279000D01*
X97594260Y-110279000D01*
X97660442Y-110285518D01*
X97660442Y-110285518D01*
G37*
G36*
X104629591Y-110956274D02*
X104663569Y-110966582D01*
X104694887Y-110983322D01*
X104722339Y-111005850D01*
X104744867Y-111033302D01*
X104761607Y-111064620D01*
X104771915Y-111098598D01*
X104776000Y-111140079D01*
X104776000Y-111816299D01*
X104771915Y-111857780D01*
X104761607Y-111891758D01*
X104744867Y-111923076D01*
X104722339Y-111950528D01*
X104694887Y-111973056D01*
X104663569Y-111989796D01*
X104629591Y-112000104D01*
X104588110Y-112004189D01*
X103986890Y-112004189D01*
X103945409Y-112000104D01*
X103911431Y-111989796D01*
X103880113Y-111973056D01*
X103852661Y-111950528D01*
X103830133Y-111923076D01*
X103813393Y-111891758D01*
X103803085Y-111857780D01*
X103799000Y-111816299D01*
X103799000Y-111140079D01*
X103803085Y-111098598D01*
X103813393Y-111064620D01*
X103830133Y-111033302D01*
X103852661Y-111005850D01*
X103880113Y-110983322D01*
X103911431Y-110966582D01*
X103945409Y-110956274D01*
X103986890Y-110952189D01*
X104588110Y-110952189D01*
X104629591Y-110956274D01*
X104629591Y-110956274D01*
G37*
G36*
X103054591Y-110956274D02*
X103088569Y-110966582D01*
X103119887Y-110983322D01*
X103147339Y-111005850D01*
X103169867Y-111033302D01*
X103186607Y-111064620D01*
X103196915Y-111098598D01*
X103201000Y-111140079D01*
X103201000Y-111816299D01*
X103196915Y-111857780D01*
X103186607Y-111891758D01*
X103169867Y-111923076D01*
X103147339Y-111950528D01*
X103119887Y-111973056D01*
X103088569Y-111989796D01*
X103054591Y-112000104D01*
X103013110Y-112004189D01*
X102411890Y-112004189D01*
X102370409Y-112000104D01*
X102336431Y-111989796D01*
X102305113Y-111973056D01*
X102277661Y-111950528D01*
X102255133Y-111923076D01*
X102238393Y-111891758D01*
X102228085Y-111857780D01*
X102224000Y-111816299D01*
X102224000Y-111140079D01*
X102228085Y-111098598D01*
X102238393Y-111064620D01*
X102255133Y-111033302D01*
X102277661Y-111005850D01*
X102305113Y-110983322D01*
X102336431Y-110966582D01*
X102370409Y-110956274D01*
X102411890Y-110952189D01*
X103013110Y-110952189D01*
X103054591Y-110956274D01*
X103054591Y-110956274D01*
G37*
G36*
X104629591Y-108956274D02*
X104663569Y-108966582D01*
X104694887Y-108983322D01*
X104722339Y-109005850D01*
X104744867Y-109033302D01*
X104761607Y-109064620D01*
X104771915Y-109098598D01*
X104776000Y-109140079D01*
X104776000Y-109816299D01*
X104771915Y-109857780D01*
X104761607Y-109891758D01*
X104744867Y-109923076D01*
X104722339Y-109950528D01*
X104694887Y-109973056D01*
X104663569Y-109989796D01*
X104629591Y-110000104D01*
X104588110Y-110004189D01*
X103986890Y-110004189D01*
X103945409Y-110000104D01*
X103911431Y-109989796D01*
X103880113Y-109973056D01*
X103852661Y-109950528D01*
X103830133Y-109923076D01*
X103813393Y-109891758D01*
X103803085Y-109857780D01*
X103799000Y-109816299D01*
X103799000Y-109140079D01*
X103803085Y-109098598D01*
X103813393Y-109064620D01*
X103830133Y-109033302D01*
X103852661Y-109005850D01*
X103880113Y-108983322D01*
X103911431Y-108966582D01*
X103945409Y-108956274D01*
X103986890Y-108952189D01*
X104588110Y-108952189D01*
X104629591Y-108956274D01*
X104629591Y-108956274D01*
G37*
G36*
X103054591Y-108956274D02*
X103088569Y-108966582D01*
X103119887Y-108983322D01*
X103147339Y-109005850D01*
X103169867Y-109033302D01*
X103186607Y-109064620D01*
X103196915Y-109098598D01*
X103201000Y-109140079D01*
X103201000Y-109816299D01*
X103196915Y-109857780D01*
X103186607Y-109891758D01*
X103169867Y-109923076D01*
X103147339Y-109950528D01*
X103119887Y-109973056D01*
X103088569Y-109989796D01*
X103054591Y-110000104D01*
X103013110Y-110004189D01*
X102411890Y-110004189D01*
X102370409Y-110000104D01*
X102336431Y-109989796D01*
X102305113Y-109973056D01*
X102277661Y-109950528D01*
X102255133Y-109923076D01*
X102238393Y-109891758D01*
X102228085Y-109857780D01*
X102224000Y-109816299D01*
X102224000Y-109140079D01*
X102228085Y-109098598D01*
X102238393Y-109064620D01*
X102255133Y-109033302D01*
X102277661Y-109005850D01*
X102305113Y-108983322D01*
X102336431Y-108966582D01*
X102370409Y-108956274D01*
X102411890Y-108952189D01*
X103013110Y-108952189D01*
X103054591Y-108956274D01*
X103054591Y-108956274D01*
G37*
G36*
X95120443Y-107745519D02*
X95186627Y-107752037D01*
X95299853Y-107786384D01*
X95356467Y-107803557D01*
X95495087Y-107877652D01*
X95512991Y-107887222D01*
X95548729Y-107916552D01*
X95650186Y-107999814D01*
X95733448Y-108101271D01*
X95762778Y-108137009D01*
X95762779Y-108137011D01*
X95846443Y-108293533D01*
X95846443Y-108293534D01*
X95897963Y-108463373D01*
X95915359Y-108640000D01*
X95897963Y-108816627D01*
X95863616Y-108929853D01*
X95846443Y-108986467D01*
X95786507Y-109098598D01*
X95762778Y-109142991D01*
X95758020Y-109148788D01*
X95650186Y-109280186D01*
X95548729Y-109363448D01*
X95512991Y-109392778D01*
X95512989Y-109392779D01*
X95356467Y-109476443D01*
X95299853Y-109493616D01*
X95186627Y-109527963D01*
X95120442Y-109534482D01*
X95054260Y-109541000D01*
X94965740Y-109541000D01*
X94899558Y-109534482D01*
X94833373Y-109527963D01*
X94720147Y-109493616D01*
X94663533Y-109476443D01*
X94507011Y-109392779D01*
X94507009Y-109392778D01*
X94471271Y-109363448D01*
X94369814Y-109280186D01*
X94261980Y-109148788D01*
X94257222Y-109142991D01*
X94233493Y-109098598D01*
X94173557Y-108986467D01*
X94156384Y-108929853D01*
X94122037Y-108816627D01*
X94104641Y-108640000D01*
X94122037Y-108463373D01*
X94173557Y-108293534D01*
X94173557Y-108293533D01*
X94257221Y-108137011D01*
X94257222Y-108137009D01*
X94286552Y-108101271D01*
X94369814Y-107999814D01*
X94471271Y-107916552D01*
X94507009Y-107887222D01*
X94524913Y-107877652D01*
X94663533Y-107803557D01*
X94720147Y-107786384D01*
X94833373Y-107752037D01*
X94899557Y-107745519D01*
X94965740Y-107739000D01*
X95054260Y-107739000D01*
X95120443Y-107745519D01*
X95120443Y-107745519D01*
G37*
G36*
X97660443Y-107745519D02*
X97726627Y-107752037D01*
X97839853Y-107786384D01*
X97896467Y-107803557D01*
X98035087Y-107877652D01*
X98052991Y-107887222D01*
X98088729Y-107916552D01*
X98190186Y-107999814D01*
X98273448Y-108101271D01*
X98302778Y-108137009D01*
X98302779Y-108137011D01*
X98386443Y-108293533D01*
X98386443Y-108293534D01*
X98437963Y-108463373D01*
X98455359Y-108640000D01*
X98437963Y-108816627D01*
X98403616Y-108929853D01*
X98386443Y-108986467D01*
X98326507Y-109098598D01*
X98302778Y-109142991D01*
X98298020Y-109148788D01*
X98190186Y-109280186D01*
X98088729Y-109363448D01*
X98052991Y-109392778D01*
X98052989Y-109392779D01*
X97896467Y-109476443D01*
X97839853Y-109493616D01*
X97726627Y-109527963D01*
X97660442Y-109534482D01*
X97594260Y-109541000D01*
X97505740Y-109541000D01*
X97439558Y-109534482D01*
X97373373Y-109527963D01*
X97260147Y-109493616D01*
X97203533Y-109476443D01*
X97047011Y-109392779D01*
X97047009Y-109392778D01*
X97011271Y-109363448D01*
X96909814Y-109280186D01*
X96801980Y-109148788D01*
X96797222Y-109142991D01*
X96773493Y-109098598D01*
X96713557Y-108986467D01*
X96696384Y-108929853D01*
X96662037Y-108816627D01*
X96644641Y-108640000D01*
X96662037Y-108463373D01*
X96713557Y-108293534D01*
X96713557Y-108293533D01*
X96797221Y-108137011D01*
X96797222Y-108137009D01*
X96826552Y-108101271D01*
X96909814Y-107999814D01*
X97011271Y-107916552D01*
X97047009Y-107887222D01*
X97064913Y-107877652D01*
X97203533Y-107803557D01*
X97260147Y-107786384D01*
X97373373Y-107752037D01*
X97439557Y-107745519D01*
X97505740Y-107739000D01*
X97594260Y-107739000D01*
X97660443Y-107745519D01*
X97660443Y-107745519D01*
G37*
G36*
X103054591Y-106956274D02*
X103088569Y-106966582D01*
X103119887Y-106983322D01*
X103147339Y-107005850D01*
X103169867Y-107033302D01*
X103186607Y-107064620D01*
X103196915Y-107098598D01*
X103201000Y-107140079D01*
X103201000Y-107816299D01*
X103196915Y-107857780D01*
X103186607Y-107891758D01*
X103169867Y-107923076D01*
X103147339Y-107950528D01*
X103119887Y-107973056D01*
X103088569Y-107989796D01*
X103054591Y-108000104D01*
X103013110Y-108004189D01*
X102411890Y-108004189D01*
X102370409Y-108000104D01*
X102336431Y-107989796D01*
X102305113Y-107973056D01*
X102277661Y-107950528D01*
X102255133Y-107923076D01*
X102238393Y-107891758D01*
X102228085Y-107857780D01*
X102224000Y-107816299D01*
X102224000Y-107140079D01*
X102228085Y-107098598D01*
X102238393Y-107064620D01*
X102255133Y-107033302D01*
X102277661Y-107005850D01*
X102305113Y-106983322D01*
X102336431Y-106966582D01*
X102370409Y-106956274D01*
X102411890Y-106952189D01*
X103013110Y-106952189D01*
X103054591Y-106956274D01*
X103054591Y-106956274D01*
G37*
G36*
X104629591Y-106956274D02*
X104663569Y-106966582D01*
X104694887Y-106983322D01*
X104722339Y-107005850D01*
X104744867Y-107033302D01*
X104761607Y-107064620D01*
X104771915Y-107098598D01*
X104776000Y-107140079D01*
X104776000Y-107816299D01*
X104771915Y-107857780D01*
X104761607Y-107891758D01*
X104744867Y-107923076D01*
X104722339Y-107950528D01*
X104694887Y-107973056D01*
X104663569Y-107989796D01*
X104629591Y-108000104D01*
X104588110Y-108004189D01*
X103986890Y-108004189D01*
X103945409Y-108000104D01*
X103911431Y-107989796D01*
X103880113Y-107973056D01*
X103852661Y-107950528D01*
X103830133Y-107923076D01*
X103813393Y-107891758D01*
X103803085Y-107857780D01*
X103799000Y-107816299D01*
X103799000Y-107140079D01*
X103803085Y-107098598D01*
X103813393Y-107064620D01*
X103830133Y-107033302D01*
X103852661Y-107005850D01*
X103880113Y-106983322D01*
X103911431Y-106966582D01*
X103945409Y-106956274D01*
X103986890Y-106952189D01*
X104588110Y-106952189D01*
X104629591Y-106956274D01*
X104629591Y-106956274D01*
G37*
G36*
X97660442Y-105205518D02*
X97726627Y-105212037D01*
X97839853Y-105246384D01*
X97896467Y-105263557D01*
X98035087Y-105337652D01*
X98052991Y-105347222D01*
X98088729Y-105376552D01*
X98190186Y-105459814D01*
X98249221Y-105531750D01*
X98302778Y-105597009D01*
X98302779Y-105597011D01*
X98386443Y-105753533D01*
X98392019Y-105771915D01*
X98437963Y-105923373D01*
X98455359Y-106100000D01*
X98437963Y-106276627D01*
X98403616Y-106389853D01*
X98386443Y-106446467D01*
X98312348Y-106585087D01*
X98302778Y-106602991D01*
X98273448Y-106638729D01*
X98190186Y-106740186D01*
X98088729Y-106823448D01*
X98052991Y-106852778D01*
X98052989Y-106852779D01*
X97896467Y-106936443D01*
X97844558Y-106952189D01*
X97726627Y-106987963D01*
X97660442Y-106994482D01*
X97594260Y-107001000D01*
X97505740Y-107001000D01*
X97439558Y-106994482D01*
X97373373Y-106987963D01*
X97255442Y-106952189D01*
X97203533Y-106936443D01*
X97047011Y-106852779D01*
X97047009Y-106852778D01*
X97011271Y-106823448D01*
X96909814Y-106740186D01*
X96826552Y-106638729D01*
X96797222Y-106602991D01*
X96787652Y-106585087D01*
X96713557Y-106446467D01*
X96696384Y-106389853D01*
X96662037Y-106276627D01*
X96644641Y-106100000D01*
X96662037Y-105923373D01*
X96707981Y-105771915D01*
X96713557Y-105753533D01*
X96797221Y-105597011D01*
X96797222Y-105597009D01*
X96850779Y-105531750D01*
X96909814Y-105459814D01*
X97011271Y-105376552D01*
X97047009Y-105347222D01*
X97064913Y-105337652D01*
X97203533Y-105263557D01*
X97260147Y-105246384D01*
X97373373Y-105212037D01*
X97439558Y-105205518D01*
X97505740Y-105199000D01*
X97594260Y-105199000D01*
X97660442Y-105205518D01*
X97660442Y-105205518D01*
G37*
G36*
X95120442Y-105205518D02*
X95186627Y-105212037D01*
X95299853Y-105246384D01*
X95356467Y-105263557D01*
X95495087Y-105337652D01*
X95512991Y-105347222D01*
X95548729Y-105376552D01*
X95650186Y-105459814D01*
X95709221Y-105531750D01*
X95762778Y-105597009D01*
X95762779Y-105597011D01*
X95846443Y-105753533D01*
X95852019Y-105771915D01*
X95897963Y-105923373D01*
X95915359Y-106100000D01*
X95897963Y-106276627D01*
X95863616Y-106389853D01*
X95846443Y-106446467D01*
X95772348Y-106585087D01*
X95762778Y-106602991D01*
X95733448Y-106638729D01*
X95650186Y-106740186D01*
X95548729Y-106823448D01*
X95512991Y-106852778D01*
X95512989Y-106852779D01*
X95356467Y-106936443D01*
X95304558Y-106952189D01*
X95186627Y-106987963D01*
X95120442Y-106994482D01*
X95054260Y-107001000D01*
X94965740Y-107001000D01*
X94899558Y-106994482D01*
X94833373Y-106987963D01*
X94715442Y-106952189D01*
X94663533Y-106936443D01*
X94507011Y-106852779D01*
X94507009Y-106852778D01*
X94471271Y-106823448D01*
X94369814Y-106740186D01*
X94286552Y-106638729D01*
X94257222Y-106602991D01*
X94247652Y-106585087D01*
X94173557Y-106446467D01*
X94156384Y-106389853D01*
X94122037Y-106276627D01*
X94104641Y-106100000D01*
X94122037Y-105923373D01*
X94167981Y-105771915D01*
X94173557Y-105753533D01*
X94257221Y-105597011D01*
X94257222Y-105597009D01*
X94310779Y-105531750D01*
X94369814Y-105459814D01*
X94471271Y-105376552D01*
X94507009Y-105347222D01*
X94524913Y-105337652D01*
X94663533Y-105263557D01*
X94720147Y-105246384D01*
X94833373Y-105212037D01*
X94899558Y-105205518D01*
X94965740Y-105199000D01*
X95054260Y-105199000D01*
X95120442Y-105205518D01*
X95120442Y-105205518D01*
G37*
G36*
X104629591Y-104956274D02*
X104663569Y-104966582D01*
X104694887Y-104983322D01*
X104722339Y-105005850D01*
X104744867Y-105033302D01*
X104761607Y-105064620D01*
X104771915Y-105098598D01*
X104776000Y-105140079D01*
X104776000Y-105816299D01*
X104771915Y-105857780D01*
X104761607Y-105891758D01*
X104744867Y-105923076D01*
X104722339Y-105950528D01*
X104694887Y-105973056D01*
X104663569Y-105989796D01*
X104629591Y-106000104D01*
X104588110Y-106004189D01*
X103986890Y-106004189D01*
X103945409Y-106000104D01*
X103911431Y-105989796D01*
X103880113Y-105973056D01*
X103852661Y-105950528D01*
X103830133Y-105923076D01*
X103813393Y-105891758D01*
X103803085Y-105857780D01*
X103799000Y-105816299D01*
X103799000Y-105140079D01*
X103803085Y-105098598D01*
X103813393Y-105064620D01*
X103830133Y-105033302D01*
X103852661Y-105005850D01*
X103880113Y-104983322D01*
X103911431Y-104966582D01*
X103945409Y-104956274D01*
X103986890Y-104952189D01*
X104588110Y-104952189D01*
X104629591Y-104956274D01*
X104629591Y-104956274D01*
G37*
G36*
X103054591Y-104956274D02*
X103088569Y-104966582D01*
X103119887Y-104983322D01*
X103147339Y-105005850D01*
X103169867Y-105033302D01*
X103186607Y-105064620D01*
X103196915Y-105098598D01*
X103201000Y-105140079D01*
X103201000Y-105816299D01*
X103196915Y-105857780D01*
X103186607Y-105891758D01*
X103169867Y-105923076D01*
X103147339Y-105950528D01*
X103119887Y-105973056D01*
X103088569Y-105989796D01*
X103054591Y-106000104D01*
X103013110Y-106004189D01*
X102411890Y-106004189D01*
X102370409Y-106000104D01*
X102336431Y-105989796D01*
X102305113Y-105973056D01*
X102277661Y-105950528D01*
X102255133Y-105923076D01*
X102238393Y-105891758D01*
X102228085Y-105857780D01*
X102224000Y-105816299D01*
X102224000Y-105140079D01*
X102228085Y-105098598D01*
X102238393Y-105064620D01*
X102255133Y-105033302D01*
X102277661Y-105005850D01*
X102305113Y-104983322D01*
X102336431Y-104966582D01*
X102370409Y-104956274D01*
X102411890Y-104952189D01*
X103013110Y-104952189D01*
X103054591Y-104956274D01*
X103054591Y-104956274D01*
G37*
G36*
X122879591Y-104803085D02*
X122913569Y-104813393D01*
X122944887Y-104830133D01*
X122972339Y-104852661D01*
X122994867Y-104880113D01*
X123011607Y-104911431D01*
X123021915Y-104945409D01*
X123026000Y-104986890D01*
X123026000Y-105588110D01*
X123021915Y-105629591D01*
X123011607Y-105663569D01*
X122994867Y-105694887D01*
X122972339Y-105722339D01*
X122944887Y-105744867D01*
X122913569Y-105761607D01*
X122879591Y-105771915D01*
X122838110Y-105776000D01*
X122161890Y-105776000D01*
X122120409Y-105771915D01*
X122086431Y-105761607D01*
X122055113Y-105744867D01*
X122027661Y-105722339D01*
X122005133Y-105694887D01*
X121988393Y-105663569D01*
X121978085Y-105629591D01*
X121974000Y-105588110D01*
X121974000Y-104986890D01*
X121978085Y-104945409D01*
X121988393Y-104911431D01*
X122005133Y-104880113D01*
X122027661Y-104852661D01*
X122055113Y-104830133D01*
X122086431Y-104813393D01*
X122120409Y-104803085D01*
X122161890Y-104799000D01*
X122838110Y-104799000D01*
X122879591Y-104803085D01*
X122879591Y-104803085D01*
G37*
G36*
X128879591Y-104803085D02*
X128913569Y-104813393D01*
X128944887Y-104830133D01*
X128972339Y-104852661D01*
X128994867Y-104880113D01*
X129011607Y-104911431D01*
X129021915Y-104945409D01*
X129026000Y-104986890D01*
X129026000Y-105588110D01*
X129021915Y-105629591D01*
X129011607Y-105663569D01*
X128994867Y-105694887D01*
X128972339Y-105722339D01*
X128944887Y-105744867D01*
X128913569Y-105761607D01*
X128879591Y-105771915D01*
X128838110Y-105776000D01*
X128161890Y-105776000D01*
X128120409Y-105771915D01*
X128086431Y-105761607D01*
X128055113Y-105744867D01*
X128027661Y-105722339D01*
X128005133Y-105694887D01*
X127988393Y-105663569D01*
X127978085Y-105629591D01*
X127974000Y-105588110D01*
X127974000Y-104986890D01*
X127978085Y-104945409D01*
X127988393Y-104911431D01*
X128005133Y-104880113D01*
X128027661Y-104852661D01*
X128055113Y-104830133D01*
X128086431Y-104813393D01*
X128120409Y-104803085D01*
X128161890Y-104799000D01*
X128838110Y-104799000D01*
X128879591Y-104803085D01*
X128879591Y-104803085D01*
G37*
G36*
X126879591Y-104803085D02*
X126913569Y-104813393D01*
X126944887Y-104830133D01*
X126972339Y-104852661D01*
X126994867Y-104880113D01*
X127011607Y-104911431D01*
X127021915Y-104945409D01*
X127026000Y-104986890D01*
X127026000Y-105588110D01*
X127021915Y-105629591D01*
X127011607Y-105663569D01*
X126994867Y-105694887D01*
X126972339Y-105722339D01*
X126944887Y-105744867D01*
X126913569Y-105761607D01*
X126879591Y-105771915D01*
X126838110Y-105776000D01*
X126161890Y-105776000D01*
X126120409Y-105771915D01*
X126086431Y-105761607D01*
X126055113Y-105744867D01*
X126027661Y-105722339D01*
X126005133Y-105694887D01*
X125988393Y-105663569D01*
X125978085Y-105629591D01*
X125974000Y-105588110D01*
X125974000Y-104986890D01*
X125978085Y-104945409D01*
X125988393Y-104911431D01*
X126005133Y-104880113D01*
X126027661Y-104852661D01*
X126055113Y-104830133D01*
X126086431Y-104813393D01*
X126120409Y-104803085D01*
X126161890Y-104799000D01*
X126838110Y-104799000D01*
X126879591Y-104803085D01*
X126879591Y-104803085D01*
G37*
G36*
X130879591Y-104803085D02*
X130913569Y-104813393D01*
X130944887Y-104830133D01*
X130972339Y-104852661D01*
X130994867Y-104880113D01*
X131011607Y-104911431D01*
X131021915Y-104945409D01*
X131026000Y-104986890D01*
X131026000Y-105588110D01*
X131021915Y-105629591D01*
X131011607Y-105663569D01*
X130994867Y-105694887D01*
X130972339Y-105722339D01*
X130944887Y-105744867D01*
X130913569Y-105761607D01*
X130879591Y-105771915D01*
X130838110Y-105776000D01*
X130161890Y-105776000D01*
X130120409Y-105771915D01*
X130086431Y-105761607D01*
X130055113Y-105744867D01*
X130027661Y-105722339D01*
X130005133Y-105694887D01*
X129988393Y-105663569D01*
X129978085Y-105629591D01*
X129974000Y-105588110D01*
X129974000Y-104986890D01*
X129978085Y-104945409D01*
X129988393Y-104911431D01*
X130005133Y-104880113D01*
X130027661Y-104852661D01*
X130055113Y-104830133D01*
X130086431Y-104813393D01*
X130120409Y-104803085D01*
X130161890Y-104799000D01*
X130838110Y-104799000D01*
X130879591Y-104803085D01*
X130879591Y-104803085D01*
G37*
G36*
X132879591Y-104803085D02*
X132913569Y-104813393D01*
X132944887Y-104830133D01*
X132972339Y-104852661D01*
X132994867Y-104880113D01*
X133011607Y-104911431D01*
X133021915Y-104945409D01*
X133026000Y-104986890D01*
X133026000Y-105588110D01*
X133021915Y-105629591D01*
X133011607Y-105663569D01*
X132994867Y-105694887D01*
X132972339Y-105722339D01*
X132944887Y-105744867D01*
X132913569Y-105761607D01*
X132879591Y-105771915D01*
X132838110Y-105776000D01*
X132161890Y-105776000D01*
X132120409Y-105771915D01*
X132086431Y-105761607D01*
X132055113Y-105744867D01*
X132027661Y-105722339D01*
X132005133Y-105694887D01*
X131988393Y-105663569D01*
X131978085Y-105629591D01*
X131974000Y-105588110D01*
X131974000Y-104986890D01*
X131978085Y-104945409D01*
X131988393Y-104911431D01*
X132005133Y-104880113D01*
X132027661Y-104852661D01*
X132055113Y-104830133D01*
X132086431Y-104813393D01*
X132120409Y-104803085D01*
X132161890Y-104799000D01*
X132838110Y-104799000D01*
X132879591Y-104803085D01*
X132879591Y-104803085D01*
G37*
G36*
X124879591Y-104803085D02*
X124913569Y-104813393D01*
X124944887Y-104830133D01*
X124972339Y-104852661D01*
X124994867Y-104880113D01*
X125011607Y-104911431D01*
X125021915Y-104945409D01*
X125026000Y-104986890D01*
X125026000Y-105588110D01*
X125021915Y-105629591D01*
X125011607Y-105663569D01*
X124994867Y-105694887D01*
X124972339Y-105722339D01*
X124944887Y-105744867D01*
X124913569Y-105761607D01*
X124879591Y-105771915D01*
X124838110Y-105776000D01*
X124161890Y-105776000D01*
X124120409Y-105771915D01*
X124086431Y-105761607D01*
X124055113Y-105744867D01*
X124027661Y-105722339D01*
X124005133Y-105694887D01*
X123988393Y-105663569D01*
X123978085Y-105629591D01*
X123974000Y-105588110D01*
X123974000Y-104986890D01*
X123978085Y-104945409D01*
X123988393Y-104911431D01*
X124005133Y-104880113D01*
X124027661Y-104852661D01*
X124055113Y-104830133D01*
X124086431Y-104813393D01*
X124120409Y-104803085D01*
X124161890Y-104799000D01*
X124838110Y-104799000D01*
X124879591Y-104803085D01*
X124879591Y-104803085D01*
G37*
G36*
X97660443Y-102665519D02*
X97726627Y-102672037D01*
X97839853Y-102706384D01*
X97896467Y-102723557D01*
X98035087Y-102797652D01*
X98052991Y-102807222D01*
X98088729Y-102836552D01*
X98190186Y-102919814D01*
X98273448Y-103021271D01*
X98302778Y-103057009D01*
X98302779Y-103057011D01*
X98386443Y-103213533D01*
X98393984Y-103238393D01*
X98437963Y-103383373D01*
X98455359Y-103560000D01*
X98437963Y-103736627D01*
X98403616Y-103849853D01*
X98386443Y-103906467D01*
X98334095Y-104004401D01*
X98302778Y-104062991D01*
X98278603Y-104092448D01*
X98190186Y-104200186D01*
X98088729Y-104283448D01*
X98052991Y-104312778D01*
X98052989Y-104312779D01*
X97896467Y-104396443D01*
X97839853Y-104413616D01*
X97726627Y-104447963D01*
X97660443Y-104454481D01*
X97594260Y-104461000D01*
X97505740Y-104461000D01*
X97439558Y-104454482D01*
X97373373Y-104447963D01*
X97260147Y-104413616D01*
X97203533Y-104396443D01*
X97047011Y-104312779D01*
X97047009Y-104312778D01*
X97011271Y-104283448D01*
X96909814Y-104200186D01*
X96821397Y-104092448D01*
X96797222Y-104062991D01*
X96765905Y-104004401D01*
X96713557Y-103906467D01*
X96696384Y-103849853D01*
X96662037Y-103736627D01*
X96644641Y-103560000D01*
X96662037Y-103383373D01*
X96706016Y-103238393D01*
X96713557Y-103213533D01*
X96797221Y-103057011D01*
X96797222Y-103057009D01*
X96826552Y-103021271D01*
X96909814Y-102919814D01*
X97011271Y-102836552D01*
X97047009Y-102807222D01*
X97064913Y-102797652D01*
X97203533Y-102723557D01*
X97260147Y-102706384D01*
X97373373Y-102672037D01*
X97439557Y-102665519D01*
X97505740Y-102659000D01*
X97594260Y-102659000D01*
X97660443Y-102665519D01*
X97660443Y-102665519D01*
G37*
G36*
X95120443Y-102665519D02*
X95186627Y-102672037D01*
X95299853Y-102706384D01*
X95356467Y-102723557D01*
X95495087Y-102797652D01*
X95512991Y-102807222D01*
X95548729Y-102836552D01*
X95650186Y-102919814D01*
X95733448Y-103021271D01*
X95762778Y-103057009D01*
X95762779Y-103057011D01*
X95846443Y-103213533D01*
X95853984Y-103238393D01*
X95897963Y-103383373D01*
X95915359Y-103560000D01*
X95897963Y-103736627D01*
X95863616Y-103849853D01*
X95846443Y-103906467D01*
X95794095Y-104004401D01*
X95762778Y-104062991D01*
X95738603Y-104092448D01*
X95650186Y-104200186D01*
X95548729Y-104283448D01*
X95512991Y-104312778D01*
X95512989Y-104312779D01*
X95356467Y-104396443D01*
X95299853Y-104413616D01*
X95186627Y-104447963D01*
X95120443Y-104454481D01*
X95054260Y-104461000D01*
X94965740Y-104461000D01*
X94899558Y-104454482D01*
X94833373Y-104447963D01*
X94720147Y-104413616D01*
X94663533Y-104396443D01*
X94507011Y-104312779D01*
X94507009Y-104312778D01*
X94471271Y-104283448D01*
X94369814Y-104200186D01*
X94281397Y-104092448D01*
X94257222Y-104062991D01*
X94225905Y-104004401D01*
X94173557Y-103906467D01*
X94156384Y-103849853D01*
X94122037Y-103736627D01*
X94104641Y-103560000D01*
X94122037Y-103383373D01*
X94166016Y-103238393D01*
X94173557Y-103213533D01*
X94257221Y-103057011D01*
X94257222Y-103057009D01*
X94286552Y-103021271D01*
X94369814Y-102919814D01*
X94471271Y-102836552D01*
X94507009Y-102807222D01*
X94524913Y-102797652D01*
X94663533Y-102723557D01*
X94720147Y-102706384D01*
X94833373Y-102672037D01*
X94899557Y-102665519D01*
X94965740Y-102659000D01*
X95054260Y-102659000D01*
X95120443Y-102665519D01*
X95120443Y-102665519D01*
G37*
G36*
X130879591Y-103228085D02*
X130913569Y-103238393D01*
X130944887Y-103255133D01*
X130972339Y-103277661D01*
X130994867Y-103305113D01*
X131011607Y-103336431D01*
X131021915Y-103370409D01*
X131026000Y-103411890D01*
X131026000Y-104013110D01*
X131021915Y-104054591D01*
X131011607Y-104088569D01*
X130994867Y-104119887D01*
X130972339Y-104147339D01*
X130944887Y-104169867D01*
X130913569Y-104186607D01*
X130879591Y-104196915D01*
X130838110Y-104201000D01*
X130161890Y-104201000D01*
X130120409Y-104196915D01*
X130086431Y-104186607D01*
X130055113Y-104169867D01*
X130027661Y-104147339D01*
X130005133Y-104119887D01*
X129988393Y-104088569D01*
X129978085Y-104054591D01*
X129974000Y-104013110D01*
X129974000Y-103411890D01*
X129978085Y-103370409D01*
X129988393Y-103336431D01*
X130005133Y-103305113D01*
X130027661Y-103277661D01*
X130055113Y-103255133D01*
X130086431Y-103238393D01*
X130120409Y-103228085D01*
X130161890Y-103224000D01*
X130838110Y-103224000D01*
X130879591Y-103228085D01*
X130879591Y-103228085D01*
G37*
G36*
X126879591Y-103228085D02*
X126913569Y-103238393D01*
X126944887Y-103255133D01*
X126972339Y-103277661D01*
X126994867Y-103305113D01*
X127011607Y-103336431D01*
X127021915Y-103370409D01*
X127026000Y-103411890D01*
X127026000Y-104013110D01*
X127021915Y-104054591D01*
X127011607Y-104088569D01*
X126994867Y-104119887D01*
X126972339Y-104147339D01*
X126944887Y-104169867D01*
X126913569Y-104186607D01*
X126879591Y-104196915D01*
X126838110Y-104201000D01*
X126161890Y-104201000D01*
X126120409Y-104196915D01*
X126086431Y-104186607D01*
X126055113Y-104169867D01*
X126027661Y-104147339D01*
X126005133Y-104119887D01*
X125988393Y-104088569D01*
X125978085Y-104054591D01*
X125974000Y-104013110D01*
X125974000Y-103411890D01*
X125978085Y-103370409D01*
X125988393Y-103336431D01*
X126005133Y-103305113D01*
X126027661Y-103277661D01*
X126055113Y-103255133D01*
X126086431Y-103238393D01*
X126120409Y-103228085D01*
X126161890Y-103224000D01*
X126838110Y-103224000D01*
X126879591Y-103228085D01*
X126879591Y-103228085D01*
G37*
G36*
X122879591Y-103228085D02*
X122913569Y-103238393D01*
X122944887Y-103255133D01*
X122972339Y-103277661D01*
X122994867Y-103305113D01*
X123011607Y-103336431D01*
X123021915Y-103370409D01*
X123026000Y-103411890D01*
X123026000Y-104013110D01*
X123021915Y-104054591D01*
X123011607Y-104088569D01*
X122994867Y-104119887D01*
X122972339Y-104147339D01*
X122944887Y-104169867D01*
X122913569Y-104186607D01*
X122879591Y-104196915D01*
X122838110Y-104201000D01*
X122161890Y-104201000D01*
X122120409Y-104196915D01*
X122086431Y-104186607D01*
X122055113Y-104169867D01*
X122027661Y-104147339D01*
X122005133Y-104119887D01*
X121988393Y-104088569D01*
X121978085Y-104054591D01*
X121974000Y-104013110D01*
X121974000Y-103411890D01*
X121978085Y-103370409D01*
X121988393Y-103336431D01*
X122005133Y-103305113D01*
X122027661Y-103277661D01*
X122055113Y-103255133D01*
X122086431Y-103238393D01*
X122120409Y-103228085D01*
X122161890Y-103224000D01*
X122838110Y-103224000D01*
X122879591Y-103228085D01*
X122879591Y-103228085D01*
G37*
G36*
X124879591Y-103228085D02*
X124913569Y-103238393D01*
X124944887Y-103255133D01*
X124972339Y-103277661D01*
X124994867Y-103305113D01*
X125011607Y-103336431D01*
X125021915Y-103370409D01*
X125026000Y-103411890D01*
X125026000Y-104013110D01*
X125021915Y-104054591D01*
X125011607Y-104088569D01*
X124994867Y-104119887D01*
X124972339Y-104147339D01*
X124944887Y-104169867D01*
X124913569Y-104186607D01*
X124879591Y-104196915D01*
X124838110Y-104201000D01*
X124161890Y-104201000D01*
X124120409Y-104196915D01*
X124086431Y-104186607D01*
X124055113Y-104169867D01*
X124027661Y-104147339D01*
X124005133Y-104119887D01*
X123988393Y-104088569D01*
X123978085Y-104054591D01*
X123974000Y-104013110D01*
X123974000Y-103411890D01*
X123978085Y-103370409D01*
X123988393Y-103336431D01*
X124005133Y-103305113D01*
X124027661Y-103277661D01*
X124055113Y-103255133D01*
X124086431Y-103238393D01*
X124120409Y-103228085D01*
X124161890Y-103224000D01*
X124838110Y-103224000D01*
X124879591Y-103228085D01*
X124879591Y-103228085D01*
G37*
G36*
X132879591Y-103228085D02*
X132913569Y-103238393D01*
X132944887Y-103255133D01*
X132972339Y-103277661D01*
X132994867Y-103305113D01*
X133011607Y-103336431D01*
X133021915Y-103370409D01*
X133026000Y-103411890D01*
X133026000Y-104013110D01*
X133021915Y-104054591D01*
X133011607Y-104088569D01*
X132994867Y-104119887D01*
X132972339Y-104147339D01*
X132944887Y-104169867D01*
X132913569Y-104186607D01*
X132879591Y-104196915D01*
X132838110Y-104201000D01*
X132161890Y-104201000D01*
X132120409Y-104196915D01*
X132086431Y-104186607D01*
X132055113Y-104169867D01*
X132027661Y-104147339D01*
X132005133Y-104119887D01*
X131988393Y-104088569D01*
X131978085Y-104054591D01*
X131974000Y-104013110D01*
X131974000Y-103411890D01*
X131978085Y-103370409D01*
X131988393Y-103336431D01*
X132005133Y-103305113D01*
X132027661Y-103277661D01*
X132055113Y-103255133D01*
X132086431Y-103238393D01*
X132120409Y-103228085D01*
X132161890Y-103224000D01*
X132838110Y-103224000D01*
X132879591Y-103228085D01*
X132879591Y-103228085D01*
G37*
G36*
X128879591Y-103228085D02*
X128913569Y-103238393D01*
X128944887Y-103255133D01*
X128972339Y-103277661D01*
X128994867Y-103305113D01*
X129011607Y-103336431D01*
X129021915Y-103370409D01*
X129026000Y-103411890D01*
X129026000Y-104013110D01*
X129021915Y-104054591D01*
X129011607Y-104088569D01*
X128994867Y-104119887D01*
X128972339Y-104147339D01*
X128944887Y-104169867D01*
X128913569Y-104186607D01*
X128879591Y-104196915D01*
X128838110Y-104201000D01*
X128161890Y-104201000D01*
X128120409Y-104196915D01*
X128086431Y-104186607D01*
X128055113Y-104169867D01*
X128027661Y-104147339D01*
X128005133Y-104119887D01*
X127988393Y-104088569D01*
X127978085Y-104054591D01*
X127974000Y-104013110D01*
X127974000Y-103411890D01*
X127978085Y-103370409D01*
X127988393Y-103336431D01*
X128005133Y-103305113D01*
X128027661Y-103277661D01*
X128055113Y-103255133D01*
X128086431Y-103238393D01*
X128120409Y-103228085D01*
X128161890Y-103224000D01*
X128838110Y-103224000D01*
X128879591Y-103228085D01*
X128879591Y-103228085D01*
G37*
G36*
X97652944Y-100124780D02*
X97726627Y-100132037D01*
X97825039Y-100161890D01*
X97896467Y-100183557D01*
X97961372Y-100218250D01*
X98052991Y-100267222D01*
X98088729Y-100296552D01*
X98190186Y-100379814D01*
X98273448Y-100481271D01*
X98302778Y-100517009D01*
X98302779Y-100517011D01*
X98386443Y-100673533D01*
X98386443Y-100673534D01*
X98437963Y-100843373D01*
X98455359Y-101020000D01*
X98437963Y-101196627D01*
X98403616Y-101309853D01*
X98386443Y-101366467D01*
X98312348Y-101505087D01*
X98302778Y-101522991D01*
X98273448Y-101558729D01*
X98190186Y-101660186D01*
X98088729Y-101743448D01*
X98052991Y-101772778D01*
X98052989Y-101772779D01*
X97896467Y-101856443D01*
X97839853Y-101873616D01*
X97726627Y-101907963D01*
X97660443Y-101914481D01*
X97594260Y-101921000D01*
X97505740Y-101921000D01*
X97439557Y-101914481D01*
X97373373Y-101907963D01*
X97260147Y-101873616D01*
X97203533Y-101856443D01*
X97047011Y-101772779D01*
X97047009Y-101772778D01*
X97011271Y-101743448D01*
X96909814Y-101660186D01*
X96826552Y-101558729D01*
X96797222Y-101522991D01*
X96787652Y-101505087D01*
X96713557Y-101366467D01*
X96696384Y-101309853D01*
X96662037Y-101196627D01*
X96644641Y-101020000D01*
X96662037Y-100843373D01*
X96713557Y-100673534D01*
X96713557Y-100673533D01*
X96797221Y-100517011D01*
X96797222Y-100517009D01*
X96826552Y-100481271D01*
X96909814Y-100379814D01*
X97011271Y-100296552D01*
X97047009Y-100267222D01*
X97138628Y-100218250D01*
X97203533Y-100183557D01*
X97274961Y-100161890D01*
X97373373Y-100132037D01*
X97447056Y-100124780D01*
X97505740Y-100119000D01*
X97594260Y-100119000D01*
X97652944Y-100124780D01*
X97652944Y-100124780D01*
G37*
G36*
X95112944Y-100124780D02*
X95186627Y-100132037D01*
X95285039Y-100161890D01*
X95356467Y-100183557D01*
X95421372Y-100218250D01*
X95512991Y-100267222D01*
X95548729Y-100296552D01*
X95650186Y-100379814D01*
X95733448Y-100481271D01*
X95762778Y-100517009D01*
X95762779Y-100517011D01*
X95846443Y-100673533D01*
X95846443Y-100673534D01*
X95897963Y-100843373D01*
X95915359Y-101020000D01*
X95897963Y-101196627D01*
X95863616Y-101309853D01*
X95846443Y-101366467D01*
X95772348Y-101505087D01*
X95762778Y-101522991D01*
X95733448Y-101558729D01*
X95650186Y-101660186D01*
X95548729Y-101743448D01*
X95512991Y-101772778D01*
X95512989Y-101772779D01*
X95356467Y-101856443D01*
X95299853Y-101873616D01*
X95186627Y-101907963D01*
X95120443Y-101914481D01*
X95054260Y-101921000D01*
X94965740Y-101921000D01*
X94899557Y-101914481D01*
X94833373Y-101907963D01*
X94720147Y-101873616D01*
X94663533Y-101856443D01*
X94507011Y-101772779D01*
X94507009Y-101772778D01*
X94471271Y-101743448D01*
X94369814Y-101660186D01*
X94286552Y-101558729D01*
X94257222Y-101522991D01*
X94247652Y-101505087D01*
X94173557Y-101366467D01*
X94156384Y-101309853D01*
X94122037Y-101196627D01*
X94104641Y-101020000D01*
X94122037Y-100843373D01*
X94173557Y-100673534D01*
X94173557Y-100673533D01*
X94257221Y-100517011D01*
X94257222Y-100517009D01*
X94286552Y-100481271D01*
X94369814Y-100379814D01*
X94471271Y-100296552D01*
X94507009Y-100267222D01*
X94598628Y-100218250D01*
X94663533Y-100183557D01*
X94734961Y-100161890D01*
X94833373Y-100132037D01*
X94907056Y-100124780D01*
X94965740Y-100119000D01*
X95054260Y-100119000D01*
X95112944Y-100124780D01*
X95112944Y-100124780D01*
G37*
G36*
X104629591Y-99978085D02*
X104663569Y-99988393D01*
X104694887Y-100005133D01*
X104722339Y-100027661D01*
X104744867Y-100055113D01*
X104761607Y-100086431D01*
X104771915Y-100120409D01*
X104776000Y-100161890D01*
X104776000Y-100838110D01*
X104771915Y-100879591D01*
X104761607Y-100913569D01*
X104744867Y-100944887D01*
X104722339Y-100972339D01*
X104694887Y-100994867D01*
X104663569Y-101011607D01*
X104629591Y-101021915D01*
X104588110Y-101026000D01*
X103986890Y-101026000D01*
X103945409Y-101021915D01*
X103911431Y-101011607D01*
X103880113Y-100994867D01*
X103852661Y-100972339D01*
X103830133Y-100944887D01*
X103813393Y-100913569D01*
X103803085Y-100879591D01*
X103799000Y-100838110D01*
X103799000Y-100161890D01*
X103803085Y-100120409D01*
X103813393Y-100086431D01*
X103830133Y-100055113D01*
X103852661Y-100027661D01*
X103880113Y-100005133D01*
X103911431Y-99988393D01*
X103945409Y-99978085D01*
X103986890Y-99974000D01*
X104588110Y-99974000D01*
X104629591Y-99978085D01*
X104629591Y-99978085D01*
G37*
G36*
X120454591Y-99978085D02*
X120488569Y-99988393D01*
X120519887Y-100005133D01*
X120547339Y-100027661D01*
X120569867Y-100055113D01*
X120586607Y-100086431D01*
X120596915Y-100120409D01*
X120601000Y-100161890D01*
X120601000Y-100838110D01*
X120596915Y-100879591D01*
X120586607Y-100913569D01*
X120569867Y-100944887D01*
X120547339Y-100972339D01*
X120519887Y-100994867D01*
X120488569Y-101011607D01*
X120454591Y-101021915D01*
X120413110Y-101026000D01*
X119811890Y-101026000D01*
X119770409Y-101021915D01*
X119736431Y-101011607D01*
X119705113Y-100994867D01*
X119677661Y-100972339D01*
X119655133Y-100944887D01*
X119638393Y-100913569D01*
X119628085Y-100879591D01*
X119624000Y-100838110D01*
X119624000Y-100161890D01*
X119628085Y-100120409D01*
X119638393Y-100086431D01*
X119655133Y-100055113D01*
X119677661Y-100027661D01*
X119705113Y-100005133D01*
X119736431Y-99988393D01*
X119770409Y-99978085D01*
X119811890Y-99974000D01*
X120413110Y-99974000D01*
X120454591Y-99978085D01*
X120454591Y-99978085D01*
G37*
G36*
X103054591Y-99978085D02*
X103088569Y-99988393D01*
X103119887Y-100005133D01*
X103147339Y-100027661D01*
X103169867Y-100055113D01*
X103186607Y-100086431D01*
X103196915Y-100120409D01*
X103201000Y-100161890D01*
X103201000Y-100838110D01*
X103196915Y-100879591D01*
X103186607Y-100913569D01*
X103169867Y-100944887D01*
X103147339Y-100972339D01*
X103119887Y-100994867D01*
X103088569Y-101011607D01*
X103054591Y-101021915D01*
X103013110Y-101026000D01*
X102411890Y-101026000D01*
X102370409Y-101021915D01*
X102336431Y-101011607D01*
X102305113Y-100994867D01*
X102277661Y-100972339D01*
X102255133Y-100944887D01*
X102238393Y-100913569D01*
X102228085Y-100879591D01*
X102224000Y-100838110D01*
X102224000Y-100161890D01*
X102228085Y-100120409D01*
X102238393Y-100086431D01*
X102255133Y-100055113D01*
X102277661Y-100027661D01*
X102305113Y-100005133D01*
X102336431Y-99988393D01*
X102370409Y-99978085D01*
X102411890Y-99974000D01*
X103013110Y-99974000D01*
X103054591Y-99978085D01*
X103054591Y-99978085D01*
G37*
G36*
X122029591Y-99978085D02*
X122063569Y-99988393D01*
X122094887Y-100005133D01*
X122122339Y-100027661D01*
X122144867Y-100055113D01*
X122161607Y-100086431D01*
X122171915Y-100120409D01*
X122176000Y-100161890D01*
X122176000Y-100838110D01*
X122171915Y-100879591D01*
X122161607Y-100913569D01*
X122144867Y-100944887D01*
X122122339Y-100972339D01*
X122094887Y-100994867D01*
X122063569Y-101011607D01*
X122029591Y-101021915D01*
X121988110Y-101026000D01*
X121386890Y-101026000D01*
X121345409Y-101021915D01*
X121311431Y-101011607D01*
X121280113Y-100994867D01*
X121252661Y-100972339D01*
X121230133Y-100944887D01*
X121213393Y-100913569D01*
X121203085Y-100879591D01*
X121199000Y-100838110D01*
X121199000Y-100161890D01*
X121203085Y-100120409D01*
X121213393Y-100086431D01*
X121230133Y-100055113D01*
X121252661Y-100027661D01*
X121280113Y-100005133D01*
X121311431Y-99988393D01*
X121345409Y-99978085D01*
X121386890Y-99974000D01*
X121988110Y-99974000D01*
X122029591Y-99978085D01*
X122029591Y-99978085D01*
G37*
G36*
X95120443Y-97585519D02*
X95186627Y-97592037D01*
X95299853Y-97626384D01*
X95356467Y-97643557D01*
X95495087Y-97717652D01*
X95512991Y-97727222D01*
X95548729Y-97756552D01*
X95650186Y-97839814D01*
X95733448Y-97941271D01*
X95762778Y-97977009D01*
X95762779Y-97977011D01*
X95846443Y-98133533D01*
X95851070Y-98148788D01*
X95897963Y-98303373D01*
X95915359Y-98480000D01*
X95897963Y-98656627D01*
X95866624Y-98759939D01*
X95846443Y-98826467D01*
X95789686Y-98932650D01*
X95762778Y-98982991D01*
X95745381Y-99004189D01*
X95650186Y-99120186D01*
X95548729Y-99203448D01*
X95512991Y-99232778D01*
X95512989Y-99232779D01*
X95356467Y-99316443D01*
X95299853Y-99333616D01*
X95186627Y-99367963D01*
X95120442Y-99374482D01*
X95054260Y-99381000D01*
X94965740Y-99381000D01*
X94899558Y-99374482D01*
X94833373Y-99367963D01*
X94720147Y-99333616D01*
X94663533Y-99316443D01*
X94507011Y-99232779D01*
X94507009Y-99232778D01*
X94471271Y-99203448D01*
X94369814Y-99120186D01*
X94274619Y-99004189D01*
X94257222Y-98982991D01*
X94230314Y-98932650D01*
X94173557Y-98826467D01*
X94153376Y-98759939D01*
X94122037Y-98656627D01*
X94104641Y-98480000D01*
X94122037Y-98303373D01*
X94168930Y-98148788D01*
X94173557Y-98133533D01*
X94257221Y-97977011D01*
X94257222Y-97977009D01*
X94286552Y-97941271D01*
X94369814Y-97839814D01*
X94471271Y-97756552D01*
X94507009Y-97727222D01*
X94524913Y-97717652D01*
X94663533Y-97643557D01*
X94720147Y-97626384D01*
X94833373Y-97592037D01*
X94899557Y-97585519D01*
X94965740Y-97579000D01*
X95054260Y-97579000D01*
X95120443Y-97585519D01*
X95120443Y-97585519D01*
G37*
G36*
X97660443Y-97585519D02*
X97726627Y-97592037D01*
X97839853Y-97626384D01*
X97896467Y-97643557D01*
X98035087Y-97717652D01*
X98052991Y-97727222D01*
X98088729Y-97756552D01*
X98190186Y-97839814D01*
X98273448Y-97941271D01*
X98302778Y-97977009D01*
X98302779Y-97977011D01*
X98386443Y-98133533D01*
X98391070Y-98148788D01*
X98437963Y-98303373D01*
X98455359Y-98480000D01*
X98437963Y-98656627D01*
X98406624Y-98759939D01*
X98386443Y-98826467D01*
X98329686Y-98932650D01*
X98302778Y-98982991D01*
X98285381Y-99004189D01*
X98190186Y-99120186D01*
X98088729Y-99203448D01*
X98052991Y-99232778D01*
X98052989Y-99232779D01*
X97896467Y-99316443D01*
X97839853Y-99333616D01*
X97726627Y-99367963D01*
X97660442Y-99374482D01*
X97594260Y-99381000D01*
X97505740Y-99381000D01*
X97439558Y-99374482D01*
X97373373Y-99367963D01*
X97260147Y-99333616D01*
X97203533Y-99316443D01*
X97047011Y-99232779D01*
X97047009Y-99232778D01*
X97011271Y-99203448D01*
X96909814Y-99120186D01*
X96814619Y-99004189D01*
X96797222Y-98982991D01*
X96770314Y-98932650D01*
X96713557Y-98826467D01*
X96693376Y-98759939D01*
X96662037Y-98656627D01*
X96644641Y-98480000D01*
X96662037Y-98303373D01*
X96708930Y-98148788D01*
X96713557Y-98133533D01*
X96797221Y-97977011D01*
X96797222Y-97977009D01*
X96826552Y-97941271D01*
X96909814Y-97839814D01*
X97011271Y-97756552D01*
X97047009Y-97727222D01*
X97064913Y-97717652D01*
X97203533Y-97643557D01*
X97260147Y-97626384D01*
X97373373Y-97592037D01*
X97439557Y-97585519D01*
X97505740Y-97579000D01*
X97594260Y-97579000D01*
X97660443Y-97585519D01*
X97660443Y-97585519D01*
G37*
G36*
X104629591Y-97956274D02*
X104663569Y-97966582D01*
X104694887Y-97983322D01*
X104722339Y-98005850D01*
X104744867Y-98033302D01*
X104761607Y-98064620D01*
X104771915Y-98098598D01*
X104776000Y-98140079D01*
X104776000Y-98816299D01*
X104771915Y-98857780D01*
X104761607Y-98891758D01*
X104744867Y-98923076D01*
X104722339Y-98950528D01*
X104694887Y-98973056D01*
X104663569Y-98989796D01*
X104629591Y-99000104D01*
X104588110Y-99004189D01*
X103986890Y-99004189D01*
X103945409Y-99000104D01*
X103911431Y-98989796D01*
X103880113Y-98973056D01*
X103852661Y-98950528D01*
X103830133Y-98923076D01*
X103813393Y-98891758D01*
X103803085Y-98857780D01*
X103799000Y-98816299D01*
X103799000Y-98140079D01*
X103803085Y-98098598D01*
X103813393Y-98064620D01*
X103830133Y-98033302D01*
X103852661Y-98005850D01*
X103880113Y-97983322D01*
X103911431Y-97966582D01*
X103945409Y-97956274D01*
X103986890Y-97952189D01*
X104588110Y-97952189D01*
X104629591Y-97956274D01*
X104629591Y-97956274D01*
G37*
G36*
X103054591Y-97956274D02*
X103088569Y-97966582D01*
X103119887Y-97983322D01*
X103147339Y-98005850D01*
X103169867Y-98033302D01*
X103186607Y-98064620D01*
X103196915Y-98098598D01*
X103201000Y-98140079D01*
X103201000Y-98816299D01*
X103196915Y-98857780D01*
X103186607Y-98891758D01*
X103169867Y-98923076D01*
X103147339Y-98950528D01*
X103119887Y-98973056D01*
X103088569Y-98989796D01*
X103054591Y-99000104D01*
X103013110Y-99004189D01*
X102411890Y-99004189D01*
X102370409Y-99000104D01*
X102336431Y-98989796D01*
X102305113Y-98973056D01*
X102277661Y-98950528D01*
X102255133Y-98923076D01*
X102238393Y-98891758D01*
X102228085Y-98857780D01*
X102224000Y-98816299D01*
X102224000Y-98140079D01*
X102228085Y-98098598D01*
X102238393Y-98064620D01*
X102255133Y-98033302D01*
X102277661Y-98005850D01*
X102305113Y-97983322D01*
X102336431Y-97966582D01*
X102370409Y-97956274D01*
X102411890Y-97952189D01*
X103013110Y-97952189D01*
X103054591Y-97956274D01*
X103054591Y-97956274D01*
G37*
G36*
X122029591Y-97956274D02*
X122063569Y-97966582D01*
X122094887Y-97983322D01*
X122122339Y-98005850D01*
X122144867Y-98033302D01*
X122161607Y-98064620D01*
X122171915Y-98098598D01*
X122176000Y-98140079D01*
X122176000Y-98816299D01*
X122171915Y-98857780D01*
X122161607Y-98891758D01*
X122144867Y-98923076D01*
X122122339Y-98950528D01*
X122094887Y-98973056D01*
X122063569Y-98989796D01*
X122029591Y-99000104D01*
X121988110Y-99004189D01*
X121386890Y-99004189D01*
X121345409Y-99000104D01*
X121311431Y-98989796D01*
X121280113Y-98973056D01*
X121252661Y-98950528D01*
X121230133Y-98923076D01*
X121213393Y-98891758D01*
X121203085Y-98857780D01*
X121199000Y-98816299D01*
X121199000Y-98140079D01*
X121203085Y-98098598D01*
X121213393Y-98064620D01*
X121230133Y-98033302D01*
X121252661Y-98005850D01*
X121280113Y-97983322D01*
X121311431Y-97966582D01*
X121345409Y-97956274D01*
X121386890Y-97952189D01*
X121988110Y-97952189D01*
X122029591Y-97956274D01*
X122029591Y-97956274D01*
G37*
G36*
X120454591Y-97956274D02*
X120488569Y-97966582D01*
X120519887Y-97983322D01*
X120547339Y-98005850D01*
X120569867Y-98033302D01*
X120586607Y-98064620D01*
X120596915Y-98098598D01*
X120601000Y-98140079D01*
X120601000Y-98816299D01*
X120596915Y-98857780D01*
X120586607Y-98891758D01*
X120569867Y-98923076D01*
X120547339Y-98950528D01*
X120519887Y-98973056D01*
X120488569Y-98989796D01*
X120454591Y-99000104D01*
X120413110Y-99004189D01*
X119811890Y-99004189D01*
X119770409Y-99000104D01*
X119736431Y-98989796D01*
X119705113Y-98973056D01*
X119677661Y-98950528D01*
X119655133Y-98923076D01*
X119638393Y-98891758D01*
X119628085Y-98857780D01*
X119624000Y-98816299D01*
X119624000Y-98140079D01*
X119628085Y-98098598D01*
X119638393Y-98064620D01*
X119655133Y-98033302D01*
X119677661Y-98005850D01*
X119705113Y-97983322D01*
X119736431Y-97966582D01*
X119770409Y-97956274D01*
X119811890Y-97952189D01*
X120413110Y-97952189D01*
X120454591Y-97956274D01*
X120454591Y-97956274D01*
G37*
G36*
X122029591Y-95956274D02*
X122063569Y-95966582D01*
X122094887Y-95983322D01*
X122122339Y-96005850D01*
X122144867Y-96033302D01*
X122161607Y-96064620D01*
X122171915Y-96098598D01*
X122176000Y-96140079D01*
X122176000Y-96816299D01*
X122171915Y-96857780D01*
X122161607Y-96891758D01*
X122144867Y-96923076D01*
X122122339Y-96950528D01*
X122094887Y-96973056D01*
X122063569Y-96989796D01*
X122029591Y-97000104D01*
X121988110Y-97004189D01*
X121386890Y-97004189D01*
X121345409Y-97000104D01*
X121311431Y-96989796D01*
X121280113Y-96973056D01*
X121252661Y-96950528D01*
X121230133Y-96923076D01*
X121213393Y-96891758D01*
X121203085Y-96857780D01*
X121199000Y-96816299D01*
X121199000Y-96140079D01*
X121203085Y-96098598D01*
X121213393Y-96064620D01*
X121230133Y-96033302D01*
X121252661Y-96005850D01*
X121280113Y-95983322D01*
X121311431Y-95966582D01*
X121345409Y-95956274D01*
X121386890Y-95952189D01*
X121988110Y-95952189D01*
X122029591Y-95956274D01*
X122029591Y-95956274D01*
G37*
G36*
X120454591Y-95956274D02*
X120488569Y-95966582D01*
X120519887Y-95983322D01*
X120547339Y-96005850D01*
X120569867Y-96033302D01*
X120586607Y-96064620D01*
X120596915Y-96098598D01*
X120601000Y-96140079D01*
X120601000Y-96816299D01*
X120596915Y-96857780D01*
X120586607Y-96891758D01*
X120569867Y-96923076D01*
X120547339Y-96950528D01*
X120519887Y-96973056D01*
X120488569Y-96989796D01*
X120454591Y-97000104D01*
X120413110Y-97004189D01*
X119811890Y-97004189D01*
X119770409Y-97000104D01*
X119736431Y-96989796D01*
X119705113Y-96973056D01*
X119677661Y-96950528D01*
X119655133Y-96923076D01*
X119638393Y-96891758D01*
X119628085Y-96857780D01*
X119624000Y-96816299D01*
X119624000Y-96140079D01*
X119628085Y-96098598D01*
X119638393Y-96064620D01*
X119655133Y-96033302D01*
X119677661Y-96005850D01*
X119705113Y-95983322D01*
X119736431Y-95966582D01*
X119770409Y-95956274D01*
X119811890Y-95952189D01*
X120413110Y-95952189D01*
X120454591Y-95956274D01*
X120454591Y-95956274D01*
G37*
G36*
X104629591Y-95956274D02*
X104663569Y-95966582D01*
X104694887Y-95983322D01*
X104722339Y-96005850D01*
X104744867Y-96033302D01*
X104761607Y-96064620D01*
X104771915Y-96098598D01*
X104776000Y-96140079D01*
X104776000Y-96816299D01*
X104771915Y-96857780D01*
X104761607Y-96891758D01*
X104744867Y-96923076D01*
X104722339Y-96950528D01*
X104694887Y-96973056D01*
X104663569Y-96989796D01*
X104629591Y-97000104D01*
X104588110Y-97004189D01*
X103986890Y-97004189D01*
X103945409Y-97000104D01*
X103911431Y-96989796D01*
X103880113Y-96973056D01*
X103852661Y-96950528D01*
X103830133Y-96923076D01*
X103813393Y-96891758D01*
X103803085Y-96857780D01*
X103799000Y-96816299D01*
X103799000Y-96140079D01*
X103803085Y-96098598D01*
X103813393Y-96064620D01*
X103830133Y-96033302D01*
X103852661Y-96005850D01*
X103880113Y-95983322D01*
X103911431Y-95966582D01*
X103945409Y-95956274D01*
X103986890Y-95952189D01*
X104588110Y-95952189D01*
X104629591Y-95956274D01*
X104629591Y-95956274D01*
G37*
G36*
X103054591Y-95956274D02*
X103088569Y-95966582D01*
X103119887Y-95983322D01*
X103147339Y-96005850D01*
X103169867Y-96033302D01*
X103186607Y-96064620D01*
X103196915Y-96098598D01*
X103201000Y-96140079D01*
X103201000Y-96816299D01*
X103196915Y-96857780D01*
X103186607Y-96891758D01*
X103169867Y-96923076D01*
X103147339Y-96950528D01*
X103119887Y-96973056D01*
X103088569Y-96989796D01*
X103054591Y-97000104D01*
X103013110Y-97004189D01*
X102411890Y-97004189D01*
X102370409Y-97000104D01*
X102336431Y-96989796D01*
X102305113Y-96973056D01*
X102277661Y-96950528D01*
X102255133Y-96923076D01*
X102238393Y-96891758D01*
X102228085Y-96857780D01*
X102224000Y-96816299D01*
X102224000Y-96140079D01*
X102228085Y-96098598D01*
X102238393Y-96064620D01*
X102255133Y-96033302D01*
X102277661Y-96005850D01*
X102305113Y-95983322D01*
X102336431Y-95966582D01*
X102370409Y-95956274D01*
X102411890Y-95952189D01*
X103013110Y-95952189D01*
X103054591Y-95956274D01*
X103054591Y-95956274D01*
G37*
G36*
X97660442Y-95045518D02*
X97726627Y-95052037D01*
X97839853Y-95086384D01*
X97896467Y-95103557D01*
X98035087Y-95177652D01*
X98052991Y-95187222D01*
X98088729Y-95216552D01*
X98190186Y-95299814D01*
X98273448Y-95401271D01*
X98302778Y-95437009D01*
X98302779Y-95437011D01*
X98386443Y-95593533D01*
X98386443Y-95593534D01*
X98437963Y-95763373D01*
X98455359Y-95940000D01*
X98437963Y-96116627D01*
X98428207Y-96148788D01*
X98386443Y-96286467D01*
X98312348Y-96425087D01*
X98302778Y-96442991D01*
X98273448Y-96478729D01*
X98190186Y-96580186D01*
X98088729Y-96663448D01*
X98052991Y-96692778D01*
X98052989Y-96692779D01*
X97896467Y-96776443D01*
X97839853Y-96793616D01*
X97726627Y-96827963D01*
X97660442Y-96834482D01*
X97594260Y-96841000D01*
X97505740Y-96841000D01*
X97439558Y-96834482D01*
X97373373Y-96827963D01*
X97260147Y-96793616D01*
X97203533Y-96776443D01*
X97047011Y-96692779D01*
X97047009Y-96692778D01*
X97011271Y-96663448D01*
X96909814Y-96580186D01*
X96826552Y-96478729D01*
X96797222Y-96442991D01*
X96787652Y-96425087D01*
X96713557Y-96286467D01*
X96671793Y-96148788D01*
X96662037Y-96116627D01*
X96644641Y-95940000D01*
X96662037Y-95763373D01*
X96713557Y-95593534D01*
X96713557Y-95593533D01*
X96797221Y-95437011D01*
X96797222Y-95437009D01*
X96826552Y-95401271D01*
X96909814Y-95299814D01*
X97011271Y-95216552D01*
X97047009Y-95187222D01*
X97064913Y-95177652D01*
X97203533Y-95103557D01*
X97260147Y-95086384D01*
X97373373Y-95052037D01*
X97439558Y-95045518D01*
X97505740Y-95039000D01*
X97594260Y-95039000D01*
X97660442Y-95045518D01*
X97660442Y-95045518D01*
G37*
G36*
X95120442Y-95045518D02*
X95186627Y-95052037D01*
X95299853Y-95086384D01*
X95356467Y-95103557D01*
X95495087Y-95177652D01*
X95512991Y-95187222D01*
X95548729Y-95216552D01*
X95650186Y-95299814D01*
X95733448Y-95401271D01*
X95762778Y-95437009D01*
X95762779Y-95437011D01*
X95846443Y-95593533D01*
X95846443Y-95593534D01*
X95897963Y-95763373D01*
X95915359Y-95940000D01*
X95897963Y-96116627D01*
X95888207Y-96148788D01*
X95846443Y-96286467D01*
X95772348Y-96425087D01*
X95762778Y-96442991D01*
X95733448Y-96478729D01*
X95650186Y-96580186D01*
X95548729Y-96663448D01*
X95512991Y-96692778D01*
X95512989Y-96692779D01*
X95356467Y-96776443D01*
X95299853Y-96793616D01*
X95186627Y-96827963D01*
X95120442Y-96834482D01*
X95054260Y-96841000D01*
X94965740Y-96841000D01*
X94899558Y-96834482D01*
X94833373Y-96827963D01*
X94720147Y-96793616D01*
X94663533Y-96776443D01*
X94507011Y-96692779D01*
X94507009Y-96692778D01*
X94471271Y-96663448D01*
X94369814Y-96580186D01*
X94286552Y-96478729D01*
X94257222Y-96442991D01*
X94247652Y-96425087D01*
X94173557Y-96286467D01*
X94131793Y-96148788D01*
X94122037Y-96116627D01*
X94104641Y-95940000D01*
X94122037Y-95763373D01*
X94173557Y-95593534D01*
X94173557Y-95593533D01*
X94257221Y-95437011D01*
X94257222Y-95437009D01*
X94286552Y-95401271D01*
X94369814Y-95299814D01*
X94471271Y-95216552D01*
X94507009Y-95187222D01*
X94524913Y-95177652D01*
X94663533Y-95103557D01*
X94720147Y-95086384D01*
X94833373Y-95052037D01*
X94899558Y-95045518D01*
X94965740Y-95039000D01*
X95054260Y-95039000D01*
X95120442Y-95045518D01*
X95120442Y-95045518D01*
G37*
G36*
X120454591Y-93956274D02*
X120488569Y-93966582D01*
X120519887Y-93983322D01*
X120547339Y-94005850D01*
X120569867Y-94033302D01*
X120586607Y-94064620D01*
X120596915Y-94098598D01*
X120601000Y-94140079D01*
X120601000Y-94816299D01*
X120596915Y-94857780D01*
X120586607Y-94891758D01*
X120569867Y-94923076D01*
X120547339Y-94950528D01*
X120519887Y-94973056D01*
X120488569Y-94989796D01*
X120454591Y-95000104D01*
X120413110Y-95004189D01*
X119811890Y-95004189D01*
X119770409Y-95000104D01*
X119736431Y-94989796D01*
X119705113Y-94973056D01*
X119677661Y-94950528D01*
X119655133Y-94923076D01*
X119638393Y-94891758D01*
X119628085Y-94857780D01*
X119624000Y-94816299D01*
X119624000Y-94140079D01*
X119628085Y-94098598D01*
X119638393Y-94064620D01*
X119655133Y-94033302D01*
X119677661Y-94005850D01*
X119705113Y-93983322D01*
X119736431Y-93966582D01*
X119770409Y-93956274D01*
X119811890Y-93952189D01*
X120413110Y-93952189D01*
X120454591Y-93956274D01*
X120454591Y-93956274D01*
G37*
G36*
X103054591Y-93956274D02*
X103088569Y-93966582D01*
X103119887Y-93983322D01*
X103147339Y-94005850D01*
X103169867Y-94033302D01*
X103186607Y-94064620D01*
X103196915Y-94098598D01*
X103201000Y-94140079D01*
X103201000Y-94816299D01*
X103196915Y-94857780D01*
X103186607Y-94891758D01*
X103169867Y-94923076D01*
X103147339Y-94950528D01*
X103119887Y-94973056D01*
X103088569Y-94989796D01*
X103054591Y-95000104D01*
X103013110Y-95004189D01*
X102411890Y-95004189D01*
X102370409Y-95000104D01*
X102336431Y-94989796D01*
X102305113Y-94973056D01*
X102277661Y-94950528D01*
X102255133Y-94923076D01*
X102238393Y-94891758D01*
X102228085Y-94857780D01*
X102224000Y-94816299D01*
X102224000Y-94140079D01*
X102228085Y-94098598D01*
X102238393Y-94064620D01*
X102255133Y-94033302D01*
X102277661Y-94005850D01*
X102305113Y-93983322D01*
X102336431Y-93966582D01*
X102370409Y-93956274D01*
X102411890Y-93952189D01*
X103013110Y-93952189D01*
X103054591Y-93956274D01*
X103054591Y-93956274D01*
G37*
G36*
X104629591Y-93956274D02*
X104663569Y-93966582D01*
X104694887Y-93983322D01*
X104722339Y-94005850D01*
X104744867Y-94033302D01*
X104761607Y-94064620D01*
X104771915Y-94098598D01*
X104776000Y-94140079D01*
X104776000Y-94816299D01*
X104771915Y-94857780D01*
X104761607Y-94891758D01*
X104744867Y-94923076D01*
X104722339Y-94950528D01*
X104694887Y-94973056D01*
X104663569Y-94989796D01*
X104629591Y-95000104D01*
X104588110Y-95004189D01*
X103986890Y-95004189D01*
X103945409Y-95000104D01*
X103911431Y-94989796D01*
X103880113Y-94973056D01*
X103852661Y-94950528D01*
X103830133Y-94923076D01*
X103813393Y-94891758D01*
X103803085Y-94857780D01*
X103799000Y-94816299D01*
X103799000Y-94140079D01*
X103803085Y-94098598D01*
X103813393Y-94064620D01*
X103830133Y-94033302D01*
X103852661Y-94005850D01*
X103880113Y-93983322D01*
X103911431Y-93966582D01*
X103945409Y-93956274D01*
X103986890Y-93952189D01*
X104588110Y-93952189D01*
X104629591Y-93956274D01*
X104629591Y-93956274D01*
G37*
G36*
X122029591Y-93956274D02*
X122063569Y-93966582D01*
X122094887Y-93983322D01*
X122122339Y-94005850D01*
X122144867Y-94033302D01*
X122161607Y-94064620D01*
X122171915Y-94098598D01*
X122176000Y-94140079D01*
X122176000Y-94816299D01*
X122171915Y-94857780D01*
X122161607Y-94891758D01*
X122144867Y-94923076D01*
X122122339Y-94950528D01*
X122094887Y-94973056D01*
X122063569Y-94989796D01*
X122029591Y-95000104D01*
X121988110Y-95004189D01*
X121386890Y-95004189D01*
X121345409Y-95000104D01*
X121311431Y-94989796D01*
X121280113Y-94973056D01*
X121252661Y-94950528D01*
X121230133Y-94923076D01*
X121213393Y-94891758D01*
X121203085Y-94857780D01*
X121199000Y-94816299D01*
X121199000Y-94140079D01*
X121203085Y-94098598D01*
X121213393Y-94064620D01*
X121230133Y-94033302D01*
X121252661Y-94005850D01*
X121280113Y-93983322D01*
X121311431Y-93966582D01*
X121345409Y-93956274D01*
X121386890Y-93952189D01*
X121988110Y-93952189D01*
X122029591Y-93956274D01*
X122029591Y-93956274D01*
G37*
G36*
X97660442Y-92505518D02*
X97726627Y-92512037D01*
X97839853Y-92546384D01*
X97896467Y-92563557D01*
X98035087Y-92637652D01*
X98052991Y-92647222D01*
X98088729Y-92676552D01*
X98190186Y-92759814D01*
X98236541Y-92816299D01*
X98302778Y-92897009D01*
X98302779Y-92897011D01*
X98386443Y-93053533D01*
X98386443Y-93053534D01*
X98437963Y-93223373D01*
X98455359Y-93400000D01*
X98437963Y-93576627D01*
X98403616Y-93689853D01*
X98386443Y-93746467D01*
X98312348Y-93885087D01*
X98302778Y-93902991D01*
X98273448Y-93938729D01*
X98190186Y-94040186D01*
X98088729Y-94123448D01*
X98052991Y-94152778D01*
X98052989Y-94152779D01*
X97896467Y-94236443D01*
X97839853Y-94253616D01*
X97726627Y-94287963D01*
X97660442Y-94294482D01*
X97594260Y-94301000D01*
X97505740Y-94301000D01*
X97439558Y-94294482D01*
X97373373Y-94287963D01*
X97260147Y-94253616D01*
X97203533Y-94236443D01*
X97047011Y-94152779D01*
X97047009Y-94152778D01*
X97011271Y-94123448D01*
X96909814Y-94040186D01*
X96826552Y-93938729D01*
X96797222Y-93902991D01*
X96787652Y-93885087D01*
X96713557Y-93746467D01*
X96696384Y-93689853D01*
X96662037Y-93576627D01*
X96644641Y-93400000D01*
X96662037Y-93223373D01*
X96713557Y-93053534D01*
X96713557Y-93053533D01*
X96797221Y-92897011D01*
X96797222Y-92897009D01*
X96863459Y-92816299D01*
X96909814Y-92759814D01*
X97011271Y-92676552D01*
X97047009Y-92647222D01*
X97064913Y-92637652D01*
X97203533Y-92563557D01*
X97260147Y-92546384D01*
X97373373Y-92512037D01*
X97439558Y-92505518D01*
X97505740Y-92499000D01*
X97594260Y-92499000D01*
X97660442Y-92505518D01*
X97660442Y-92505518D01*
G37*
G36*
X95120442Y-92505518D02*
X95186627Y-92512037D01*
X95299853Y-92546384D01*
X95356467Y-92563557D01*
X95495087Y-92637652D01*
X95512991Y-92647222D01*
X95548729Y-92676552D01*
X95650186Y-92759814D01*
X95696541Y-92816299D01*
X95762778Y-92897009D01*
X95762779Y-92897011D01*
X95846443Y-93053533D01*
X95846443Y-93053534D01*
X95897963Y-93223373D01*
X95915359Y-93400000D01*
X95897963Y-93576627D01*
X95863616Y-93689853D01*
X95846443Y-93746467D01*
X95772348Y-93885087D01*
X95762778Y-93902991D01*
X95733448Y-93938729D01*
X95650186Y-94040186D01*
X95548729Y-94123448D01*
X95512991Y-94152778D01*
X95512989Y-94152779D01*
X95356467Y-94236443D01*
X95299853Y-94253616D01*
X95186627Y-94287963D01*
X95120442Y-94294482D01*
X95054260Y-94301000D01*
X94965740Y-94301000D01*
X94899558Y-94294482D01*
X94833373Y-94287963D01*
X94720147Y-94253616D01*
X94663533Y-94236443D01*
X94507011Y-94152779D01*
X94507009Y-94152778D01*
X94471271Y-94123448D01*
X94369814Y-94040186D01*
X94286552Y-93938729D01*
X94257222Y-93902991D01*
X94247652Y-93885087D01*
X94173557Y-93746467D01*
X94156384Y-93689853D01*
X94122037Y-93576627D01*
X94104641Y-93400000D01*
X94122037Y-93223373D01*
X94173557Y-93053534D01*
X94173557Y-93053533D01*
X94257221Y-92897011D01*
X94257222Y-92897009D01*
X94323459Y-92816299D01*
X94369814Y-92759814D01*
X94471271Y-92676552D01*
X94507009Y-92647222D01*
X94524913Y-92637652D01*
X94663533Y-92563557D01*
X94720147Y-92546384D01*
X94833373Y-92512037D01*
X94899558Y-92505518D01*
X94965740Y-92499000D01*
X95054260Y-92499000D01*
X95120442Y-92505518D01*
X95120442Y-92505518D01*
G37*
G36*
X103054591Y-91956274D02*
X103088569Y-91966582D01*
X103119887Y-91983322D01*
X103147339Y-92005850D01*
X103169867Y-92033302D01*
X103186607Y-92064620D01*
X103196915Y-92098598D01*
X103201000Y-92140079D01*
X103201000Y-92816299D01*
X103196915Y-92857780D01*
X103186607Y-92891758D01*
X103169867Y-92923076D01*
X103147339Y-92950528D01*
X103119887Y-92973056D01*
X103088569Y-92989796D01*
X103054591Y-93000104D01*
X103013110Y-93004189D01*
X102411890Y-93004189D01*
X102370409Y-93000104D01*
X102336431Y-92989796D01*
X102305113Y-92973056D01*
X102277661Y-92950528D01*
X102255133Y-92923076D01*
X102238393Y-92891758D01*
X102228085Y-92857780D01*
X102224000Y-92816299D01*
X102224000Y-92140079D01*
X102228085Y-92098598D01*
X102238393Y-92064620D01*
X102255133Y-92033302D01*
X102277661Y-92005850D01*
X102305113Y-91983322D01*
X102336431Y-91966582D01*
X102370409Y-91956274D01*
X102411890Y-91952189D01*
X103013110Y-91952189D01*
X103054591Y-91956274D01*
X103054591Y-91956274D01*
G37*
G36*
X104629591Y-91956274D02*
X104663569Y-91966582D01*
X104694887Y-91983322D01*
X104722339Y-92005850D01*
X104744867Y-92033302D01*
X104761607Y-92064620D01*
X104771915Y-92098598D01*
X104776000Y-92140079D01*
X104776000Y-92816299D01*
X104771915Y-92857780D01*
X104761607Y-92891758D01*
X104744867Y-92923076D01*
X104722339Y-92950528D01*
X104694887Y-92973056D01*
X104663569Y-92989796D01*
X104629591Y-93000104D01*
X104588110Y-93004189D01*
X103986890Y-93004189D01*
X103945409Y-93000104D01*
X103911431Y-92989796D01*
X103880113Y-92973056D01*
X103852661Y-92950528D01*
X103830133Y-92923076D01*
X103813393Y-92891758D01*
X103803085Y-92857780D01*
X103799000Y-92816299D01*
X103799000Y-92140079D01*
X103803085Y-92098598D01*
X103813393Y-92064620D01*
X103830133Y-92033302D01*
X103852661Y-92005850D01*
X103880113Y-91983322D01*
X103911431Y-91966582D01*
X103945409Y-91956274D01*
X103986890Y-91952189D01*
X104588110Y-91952189D01*
X104629591Y-91956274D01*
X104629591Y-91956274D01*
G37*
G36*
X120454591Y-91956274D02*
X120488569Y-91966582D01*
X120519887Y-91983322D01*
X120547339Y-92005850D01*
X120569867Y-92033302D01*
X120586607Y-92064620D01*
X120596915Y-92098598D01*
X120601000Y-92140079D01*
X120601000Y-92816299D01*
X120596915Y-92857780D01*
X120586607Y-92891758D01*
X120569867Y-92923076D01*
X120547339Y-92950528D01*
X120519887Y-92973056D01*
X120488569Y-92989796D01*
X120454591Y-93000104D01*
X120413110Y-93004189D01*
X119811890Y-93004189D01*
X119770409Y-93000104D01*
X119736431Y-92989796D01*
X119705113Y-92973056D01*
X119677661Y-92950528D01*
X119655133Y-92923076D01*
X119638393Y-92891758D01*
X119628085Y-92857780D01*
X119624000Y-92816299D01*
X119624000Y-92140079D01*
X119628085Y-92098598D01*
X119638393Y-92064620D01*
X119655133Y-92033302D01*
X119677661Y-92005850D01*
X119705113Y-91983322D01*
X119736431Y-91966582D01*
X119770409Y-91956274D01*
X119811890Y-91952189D01*
X120413110Y-91952189D01*
X120454591Y-91956274D01*
X120454591Y-91956274D01*
G37*
G36*
X122029591Y-91956274D02*
X122063569Y-91966582D01*
X122094887Y-91983322D01*
X122122339Y-92005850D01*
X122144867Y-92033302D01*
X122161607Y-92064620D01*
X122171915Y-92098598D01*
X122176000Y-92140079D01*
X122176000Y-92816299D01*
X122171915Y-92857780D01*
X122161607Y-92891758D01*
X122144867Y-92923076D01*
X122122339Y-92950528D01*
X122094887Y-92973056D01*
X122063569Y-92989796D01*
X122029591Y-93000104D01*
X121988110Y-93004189D01*
X121386890Y-93004189D01*
X121345409Y-93000104D01*
X121311431Y-92989796D01*
X121280113Y-92973056D01*
X121252661Y-92950528D01*
X121230133Y-92923076D01*
X121213393Y-92891758D01*
X121203085Y-92857780D01*
X121199000Y-92816299D01*
X121199000Y-92140079D01*
X121203085Y-92098598D01*
X121213393Y-92064620D01*
X121230133Y-92033302D01*
X121252661Y-92005850D01*
X121280113Y-91983322D01*
X121311431Y-91966582D01*
X121345409Y-91956274D01*
X121386890Y-91952189D01*
X121988110Y-91952189D01*
X122029591Y-91956274D01*
X122029591Y-91956274D01*
G37*
G36*
X97660442Y-89965518D02*
X97726627Y-89972037D01*
X97835730Y-90005133D01*
X97896467Y-90023557D01*
X97955503Y-90055113D01*
X98052991Y-90107222D01*
X98069059Y-90120409D01*
X98190186Y-90219814D01*
X98273448Y-90321271D01*
X98302778Y-90357009D01*
X98302779Y-90357011D01*
X98386443Y-90513533D01*
X98386443Y-90513534D01*
X98437963Y-90683373D01*
X98455359Y-90860000D01*
X98437963Y-91036627D01*
X98403616Y-91149853D01*
X98386443Y-91206467D01*
X98312348Y-91345087D01*
X98302778Y-91362991D01*
X98273448Y-91398729D01*
X98190186Y-91500186D01*
X98088729Y-91583448D01*
X98052991Y-91612778D01*
X98052989Y-91612779D01*
X97896467Y-91696443D01*
X97839853Y-91713616D01*
X97726627Y-91747963D01*
X97660443Y-91754481D01*
X97594260Y-91761000D01*
X97505740Y-91761000D01*
X97439557Y-91754481D01*
X97373373Y-91747963D01*
X97260147Y-91713616D01*
X97203533Y-91696443D01*
X97047011Y-91612779D01*
X97047009Y-91612778D01*
X97011271Y-91583448D01*
X96909814Y-91500186D01*
X96826552Y-91398729D01*
X96797222Y-91362991D01*
X96787652Y-91345087D01*
X96713557Y-91206467D01*
X96696384Y-91149853D01*
X96662037Y-91036627D01*
X96644641Y-90860000D01*
X96662037Y-90683373D01*
X96713557Y-90513534D01*
X96713557Y-90513533D01*
X96797221Y-90357011D01*
X96797222Y-90357009D01*
X96826552Y-90321271D01*
X96909814Y-90219814D01*
X97030941Y-90120409D01*
X97047009Y-90107222D01*
X97144497Y-90055113D01*
X97203533Y-90023557D01*
X97264270Y-90005133D01*
X97373373Y-89972037D01*
X97439558Y-89965518D01*
X97505740Y-89959000D01*
X97594260Y-89959000D01*
X97660442Y-89965518D01*
X97660442Y-89965518D01*
G37*
G36*
X95120442Y-89965518D02*
X95186627Y-89972037D01*
X95295730Y-90005133D01*
X95356467Y-90023557D01*
X95415503Y-90055113D01*
X95512991Y-90107222D01*
X95529059Y-90120409D01*
X95650186Y-90219814D01*
X95733448Y-90321271D01*
X95762778Y-90357009D01*
X95762779Y-90357011D01*
X95846443Y-90513533D01*
X95846443Y-90513534D01*
X95897963Y-90683373D01*
X95915359Y-90860000D01*
X95897963Y-91036627D01*
X95863616Y-91149853D01*
X95846443Y-91206467D01*
X95772348Y-91345087D01*
X95762778Y-91362991D01*
X95733448Y-91398729D01*
X95650186Y-91500186D01*
X95548729Y-91583448D01*
X95512991Y-91612778D01*
X95512989Y-91612779D01*
X95356467Y-91696443D01*
X95299853Y-91713616D01*
X95186627Y-91747963D01*
X95120443Y-91754481D01*
X95054260Y-91761000D01*
X94965740Y-91761000D01*
X94899557Y-91754481D01*
X94833373Y-91747963D01*
X94720147Y-91713616D01*
X94663533Y-91696443D01*
X94507011Y-91612779D01*
X94507009Y-91612778D01*
X94471271Y-91583448D01*
X94369814Y-91500186D01*
X94286552Y-91398729D01*
X94257222Y-91362991D01*
X94247652Y-91345087D01*
X94173557Y-91206467D01*
X94156384Y-91149853D01*
X94122037Y-91036627D01*
X94104641Y-90860000D01*
X94122037Y-90683373D01*
X94173557Y-90513534D01*
X94173557Y-90513533D01*
X94257221Y-90357011D01*
X94257222Y-90357009D01*
X94286552Y-90321271D01*
X94369814Y-90219814D01*
X94490941Y-90120409D01*
X94507009Y-90107222D01*
X94604497Y-90055113D01*
X94663533Y-90023557D01*
X94724270Y-90005133D01*
X94833373Y-89972037D01*
X94899558Y-89965518D01*
X94965740Y-89959000D01*
X95054260Y-89959000D01*
X95120442Y-89965518D01*
X95120442Y-89965518D01*
G37*
G36*
X103054591Y-89978085D02*
X103088569Y-89988393D01*
X103119887Y-90005133D01*
X103147339Y-90027661D01*
X103169867Y-90055113D01*
X103186607Y-90086431D01*
X103196915Y-90120409D01*
X103201000Y-90161890D01*
X103201000Y-90838110D01*
X103196915Y-90879591D01*
X103186607Y-90913569D01*
X103169867Y-90944887D01*
X103147339Y-90972339D01*
X103119887Y-90994867D01*
X103088569Y-91011607D01*
X103054591Y-91021915D01*
X103013110Y-91026000D01*
X102411890Y-91026000D01*
X102370409Y-91021915D01*
X102336431Y-91011607D01*
X102305113Y-90994867D01*
X102277661Y-90972339D01*
X102255133Y-90944887D01*
X102238393Y-90913569D01*
X102228085Y-90879591D01*
X102224000Y-90838110D01*
X102224000Y-90161890D01*
X102228085Y-90120409D01*
X102238393Y-90086431D01*
X102255133Y-90055113D01*
X102277661Y-90027661D01*
X102305113Y-90005133D01*
X102336431Y-89988393D01*
X102370409Y-89978085D01*
X102411890Y-89974000D01*
X103013110Y-89974000D01*
X103054591Y-89978085D01*
X103054591Y-89978085D01*
G37*
G36*
X104629591Y-89978085D02*
X104663569Y-89988393D01*
X104694887Y-90005133D01*
X104722339Y-90027661D01*
X104744867Y-90055113D01*
X104761607Y-90086431D01*
X104771915Y-90120409D01*
X104776000Y-90161890D01*
X104776000Y-90838110D01*
X104771915Y-90879591D01*
X104761607Y-90913569D01*
X104744867Y-90944887D01*
X104722339Y-90972339D01*
X104694887Y-90994867D01*
X104663569Y-91011607D01*
X104629591Y-91021915D01*
X104588110Y-91026000D01*
X103986890Y-91026000D01*
X103945409Y-91021915D01*
X103911431Y-91011607D01*
X103880113Y-90994867D01*
X103852661Y-90972339D01*
X103830133Y-90944887D01*
X103813393Y-90913569D01*
X103803085Y-90879591D01*
X103799000Y-90838110D01*
X103799000Y-90161890D01*
X103803085Y-90120409D01*
X103813393Y-90086431D01*
X103830133Y-90055113D01*
X103852661Y-90027661D01*
X103880113Y-90005133D01*
X103911431Y-89988393D01*
X103945409Y-89978085D01*
X103986890Y-89974000D01*
X104588110Y-89974000D01*
X104629591Y-89978085D01*
X104629591Y-89978085D01*
G37*
G36*
X122029591Y-89978085D02*
X122063569Y-89988393D01*
X122094887Y-90005133D01*
X122122339Y-90027661D01*
X122144867Y-90055113D01*
X122161607Y-90086431D01*
X122171915Y-90120409D01*
X122176000Y-90161890D01*
X122176000Y-90838110D01*
X122171915Y-90879591D01*
X122161607Y-90913569D01*
X122144867Y-90944887D01*
X122122339Y-90972339D01*
X122094887Y-90994867D01*
X122063569Y-91011607D01*
X122029591Y-91021915D01*
X121988110Y-91026000D01*
X121386890Y-91026000D01*
X121345409Y-91021915D01*
X121311431Y-91011607D01*
X121280113Y-90994867D01*
X121252661Y-90972339D01*
X121230133Y-90944887D01*
X121213393Y-90913569D01*
X121203085Y-90879591D01*
X121199000Y-90838110D01*
X121199000Y-90161890D01*
X121203085Y-90120409D01*
X121213393Y-90086431D01*
X121230133Y-90055113D01*
X121252661Y-90027661D01*
X121280113Y-90005133D01*
X121311431Y-89988393D01*
X121345409Y-89978085D01*
X121386890Y-89974000D01*
X121988110Y-89974000D01*
X122029591Y-89978085D01*
X122029591Y-89978085D01*
G37*
G36*
X120454591Y-89978085D02*
X120488569Y-89988393D01*
X120519887Y-90005133D01*
X120547339Y-90027661D01*
X120569867Y-90055113D01*
X120586607Y-90086431D01*
X120596915Y-90120409D01*
X120601000Y-90161890D01*
X120601000Y-90838110D01*
X120596915Y-90879591D01*
X120586607Y-90913569D01*
X120569867Y-90944887D01*
X120547339Y-90972339D01*
X120519887Y-90994867D01*
X120488569Y-91011607D01*
X120454591Y-91021915D01*
X120413110Y-91026000D01*
X119811890Y-91026000D01*
X119770409Y-91021915D01*
X119736431Y-91011607D01*
X119705113Y-90994867D01*
X119677661Y-90972339D01*
X119655133Y-90944887D01*
X119638393Y-90913569D01*
X119628085Y-90879591D01*
X119624000Y-90838110D01*
X119624000Y-90161890D01*
X119628085Y-90120409D01*
X119638393Y-90086431D01*
X119655133Y-90055113D01*
X119677661Y-90027661D01*
X119705113Y-90005133D01*
X119736431Y-89988393D01*
X119770409Y-89978085D01*
X119811890Y-89974000D01*
X120413110Y-89974000D01*
X120454591Y-89978085D01*
X120454591Y-89978085D01*
G37*
G36*
X97660443Y-87425519D02*
X97726627Y-87432037D01*
X97839853Y-87466384D01*
X97896467Y-87483557D01*
X98035087Y-87557652D01*
X98052991Y-87567222D01*
X98088729Y-87596552D01*
X98190186Y-87679814D01*
X98273448Y-87781271D01*
X98302778Y-87817009D01*
X98302779Y-87817011D01*
X98386443Y-87973533D01*
X98399071Y-88015164D01*
X98437963Y-88143373D01*
X98455359Y-88320000D01*
X98437963Y-88496627D01*
X98403616Y-88609853D01*
X98386443Y-88666467D01*
X98324822Y-88781750D01*
X98302778Y-88822991D01*
X98297517Y-88829401D01*
X98190186Y-88960186D01*
X98109990Y-89026000D01*
X98052991Y-89072778D01*
X98052989Y-89072779D01*
X97896467Y-89156443D01*
X97839853Y-89173616D01*
X97726627Y-89207963D01*
X97660442Y-89214482D01*
X97594260Y-89221000D01*
X97505740Y-89221000D01*
X97439558Y-89214482D01*
X97373373Y-89207963D01*
X97260147Y-89173616D01*
X97203533Y-89156443D01*
X97047011Y-89072779D01*
X97047009Y-89072778D01*
X96990010Y-89026000D01*
X96909814Y-88960186D01*
X96802483Y-88829401D01*
X96797222Y-88822991D01*
X96775178Y-88781750D01*
X96713557Y-88666467D01*
X96696384Y-88609853D01*
X96662037Y-88496627D01*
X96644641Y-88320000D01*
X96662037Y-88143373D01*
X96700929Y-88015164D01*
X96713557Y-87973533D01*
X96797221Y-87817011D01*
X96797222Y-87817009D01*
X96826552Y-87781271D01*
X96909814Y-87679814D01*
X97011271Y-87596552D01*
X97047009Y-87567222D01*
X97064913Y-87557652D01*
X97203533Y-87483557D01*
X97260147Y-87466384D01*
X97373373Y-87432037D01*
X97439557Y-87425519D01*
X97505740Y-87419000D01*
X97594260Y-87419000D01*
X97660443Y-87425519D01*
X97660443Y-87425519D01*
G37*
G36*
X95120443Y-87425519D02*
X95186627Y-87432037D01*
X95299853Y-87466384D01*
X95356467Y-87483557D01*
X95495087Y-87557652D01*
X95512991Y-87567222D01*
X95548729Y-87596552D01*
X95650186Y-87679814D01*
X95733448Y-87781271D01*
X95762778Y-87817009D01*
X95762779Y-87817011D01*
X95846443Y-87973533D01*
X95859071Y-88015164D01*
X95897963Y-88143373D01*
X95915359Y-88320000D01*
X95897963Y-88496627D01*
X95863616Y-88609853D01*
X95846443Y-88666467D01*
X95784822Y-88781750D01*
X95762778Y-88822991D01*
X95757517Y-88829401D01*
X95650186Y-88960186D01*
X95569990Y-89026000D01*
X95512991Y-89072778D01*
X95512989Y-89072779D01*
X95356467Y-89156443D01*
X95299853Y-89173616D01*
X95186627Y-89207963D01*
X95120442Y-89214482D01*
X95054260Y-89221000D01*
X94965740Y-89221000D01*
X94899558Y-89214482D01*
X94833373Y-89207963D01*
X94720147Y-89173616D01*
X94663533Y-89156443D01*
X94507011Y-89072779D01*
X94507009Y-89072778D01*
X94450010Y-89026000D01*
X94369814Y-88960186D01*
X94262483Y-88829401D01*
X94257222Y-88822991D01*
X94235178Y-88781750D01*
X94173557Y-88666467D01*
X94156384Y-88609853D01*
X94122037Y-88496627D01*
X94104641Y-88320000D01*
X94122037Y-88143373D01*
X94160929Y-88015164D01*
X94173557Y-87973533D01*
X94257221Y-87817011D01*
X94257222Y-87817009D01*
X94286552Y-87781271D01*
X94369814Y-87679814D01*
X94471271Y-87596552D01*
X94507009Y-87567222D01*
X94524913Y-87557652D01*
X94663533Y-87483557D01*
X94720147Y-87466384D01*
X94833373Y-87432037D01*
X94899557Y-87425519D01*
X94965740Y-87419000D01*
X95054260Y-87419000D01*
X95120443Y-87425519D01*
X95120443Y-87425519D01*
G37*
G36*
X122029591Y-87978085D02*
X122063569Y-87988393D01*
X122094887Y-88005133D01*
X122122339Y-88027661D01*
X122144867Y-88055113D01*
X122161607Y-88086431D01*
X122171915Y-88120409D01*
X122176000Y-88161890D01*
X122176000Y-88838110D01*
X122171915Y-88879591D01*
X122161607Y-88913569D01*
X122144867Y-88944887D01*
X122122339Y-88972339D01*
X122094887Y-88994867D01*
X122063569Y-89011607D01*
X122029591Y-89021915D01*
X121988110Y-89026000D01*
X121386890Y-89026000D01*
X121345409Y-89021915D01*
X121311431Y-89011607D01*
X121280113Y-88994867D01*
X121252661Y-88972339D01*
X121230133Y-88944887D01*
X121213393Y-88913569D01*
X121203085Y-88879591D01*
X121199000Y-88838110D01*
X121199000Y-88161890D01*
X121203085Y-88120409D01*
X121213393Y-88086431D01*
X121230133Y-88055113D01*
X121252661Y-88027661D01*
X121280113Y-88005133D01*
X121311431Y-87988393D01*
X121345409Y-87978085D01*
X121386890Y-87974000D01*
X121988110Y-87974000D01*
X122029591Y-87978085D01*
X122029591Y-87978085D01*
G37*
G36*
X120454591Y-87978085D02*
X120488569Y-87988393D01*
X120519887Y-88005133D01*
X120547339Y-88027661D01*
X120569867Y-88055113D01*
X120586607Y-88086431D01*
X120596915Y-88120409D01*
X120601000Y-88161890D01*
X120601000Y-88838110D01*
X120596915Y-88879591D01*
X120586607Y-88913569D01*
X120569867Y-88944887D01*
X120547339Y-88972339D01*
X120519887Y-88994867D01*
X120488569Y-89011607D01*
X120454591Y-89021915D01*
X120413110Y-89026000D01*
X119811890Y-89026000D01*
X119770409Y-89021915D01*
X119736431Y-89011607D01*
X119705113Y-88994867D01*
X119677661Y-88972339D01*
X119655133Y-88944887D01*
X119638393Y-88913569D01*
X119628085Y-88879591D01*
X119624000Y-88838110D01*
X119624000Y-88161890D01*
X119628085Y-88120409D01*
X119638393Y-88086431D01*
X119655133Y-88055113D01*
X119677661Y-88027661D01*
X119705113Y-88005133D01*
X119736431Y-87988393D01*
X119770409Y-87978085D01*
X119811890Y-87974000D01*
X120413110Y-87974000D01*
X120454591Y-87978085D01*
X120454591Y-87978085D01*
G37*
G36*
X103054591Y-87978085D02*
X103088569Y-87988393D01*
X103119887Y-88005133D01*
X103147339Y-88027661D01*
X103169867Y-88055113D01*
X103186607Y-88086431D01*
X103196915Y-88120409D01*
X103201000Y-88161890D01*
X103201000Y-88838110D01*
X103196915Y-88879591D01*
X103186607Y-88913569D01*
X103169867Y-88944887D01*
X103147339Y-88972339D01*
X103119887Y-88994867D01*
X103088569Y-89011607D01*
X103054591Y-89021915D01*
X103013110Y-89026000D01*
X102411890Y-89026000D01*
X102370409Y-89021915D01*
X102336431Y-89011607D01*
X102305113Y-88994867D01*
X102277661Y-88972339D01*
X102255133Y-88944887D01*
X102238393Y-88913569D01*
X102228085Y-88879591D01*
X102224000Y-88838110D01*
X102224000Y-88161890D01*
X102228085Y-88120409D01*
X102238393Y-88086431D01*
X102255133Y-88055113D01*
X102277661Y-88027661D01*
X102305113Y-88005133D01*
X102336431Y-87988393D01*
X102370409Y-87978085D01*
X102411890Y-87974000D01*
X103013110Y-87974000D01*
X103054591Y-87978085D01*
X103054591Y-87978085D01*
G37*
G36*
X104629591Y-87978085D02*
X104663569Y-87988393D01*
X104694887Y-88005133D01*
X104722339Y-88027661D01*
X104744867Y-88055113D01*
X104761607Y-88086431D01*
X104771915Y-88120409D01*
X104776000Y-88161890D01*
X104776000Y-88838110D01*
X104771915Y-88879591D01*
X104761607Y-88913569D01*
X104744867Y-88944887D01*
X104722339Y-88972339D01*
X104694887Y-88994867D01*
X104663569Y-89011607D01*
X104629591Y-89021915D01*
X104588110Y-89026000D01*
X103986890Y-89026000D01*
X103945409Y-89021915D01*
X103911431Y-89011607D01*
X103880113Y-88994867D01*
X103852661Y-88972339D01*
X103830133Y-88944887D01*
X103813393Y-88913569D01*
X103803085Y-88879591D01*
X103799000Y-88838110D01*
X103799000Y-88161890D01*
X103803085Y-88120409D01*
X103813393Y-88086431D01*
X103830133Y-88055113D01*
X103852661Y-88027661D01*
X103880113Y-88005133D01*
X103911431Y-87988393D01*
X103945409Y-87978085D01*
X103986890Y-87974000D01*
X104588110Y-87974000D01*
X104629591Y-87978085D01*
X104629591Y-87978085D01*
G37*
G36*
X122029591Y-85978085D02*
X122063569Y-85988393D01*
X122094887Y-86005133D01*
X122122339Y-86027661D01*
X122144867Y-86055113D01*
X122161607Y-86086431D01*
X122171915Y-86120409D01*
X122176000Y-86161890D01*
X122176000Y-86838110D01*
X122171915Y-86879591D01*
X122161607Y-86913569D01*
X122144867Y-86944887D01*
X122122339Y-86972339D01*
X122094887Y-86994867D01*
X122063569Y-87011607D01*
X122029591Y-87021915D01*
X121988110Y-87026000D01*
X121386890Y-87026000D01*
X121345409Y-87021915D01*
X121311431Y-87011607D01*
X121280113Y-86994867D01*
X121252661Y-86972339D01*
X121230133Y-86944887D01*
X121213393Y-86913569D01*
X121203085Y-86879591D01*
X121199000Y-86838110D01*
X121199000Y-86161890D01*
X121203085Y-86120409D01*
X121213393Y-86086431D01*
X121230133Y-86055113D01*
X121252661Y-86027661D01*
X121280113Y-86005133D01*
X121311431Y-85988393D01*
X121345409Y-85978085D01*
X121386890Y-85974000D01*
X121988110Y-85974000D01*
X122029591Y-85978085D01*
X122029591Y-85978085D01*
G37*
G36*
X120454591Y-85978085D02*
X120488569Y-85988393D01*
X120519887Y-86005133D01*
X120547339Y-86027661D01*
X120569867Y-86055113D01*
X120586607Y-86086431D01*
X120596915Y-86120409D01*
X120601000Y-86161890D01*
X120601000Y-86838110D01*
X120596915Y-86879591D01*
X120586607Y-86913569D01*
X120569867Y-86944887D01*
X120547339Y-86972339D01*
X120519887Y-86994867D01*
X120488569Y-87011607D01*
X120454591Y-87021915D01*
X120413110Y-87026000D01*
X119811890Y-87026000D01*
X119770409Y-87021915D01*
X119736431Y-87011607D01*
X119705113Y-86994867D01*
X119677661Y-86972339D01*
X119655133Y-86944887D01*
X119638393Y-86913569D01*
X119628085Y-86879591D01*
X119624000Y-86838110D01*
X119624000Y-86161890D01*
X119628085Y-86120409D01*
X119638393Y-86086431D01*
X119655133Y-86055113D01*
X119677661Y-86027661D01*
X119705113Y-86005133D01*
X119736431Y-85988393D01*
X119770409Y-85978085D01*
X119811890Y-85974000D01*
X120413110Y-85974000D01*
X120454591Y-85978085D01*
X120454591Y-85978085D01*
G37*
G36*
X104629591Y-85978085D02*
X104663569Y-85988393D01*
X104694887Y-86005133D01*
X104722339Y-86027661D01*
X104744867Y-86055113D01*
X104761607Y-86086431D01*
X104771915Y-86120409D01*
X104776000Y-86161890D01*
X104776000Y-86838110D01*
X104771915Y-86879591D01*
X104761607Y-86913569D01*
X104744867Y-86944887D01*
X104722339Y-86972339D01*
X104694887Y-86994867D01*
X104663569Y-87011607D01*
X104629591Y-87021915D01*
X104588110Y-87026000D01*
X103986890Y-87026000D01*
X103945409Y-87021915D01*
X103911431Y-87011607D01*
X103880113Y-86994867D01*
X103852661Y-86972339D01*
X103830133Y-86944887D01*
X103813393Y-86913569D01*
X103803085Y-86879591D01*
X103799000Y-86838110D01*
X103799000Y-86161890D01*
X103803085Y-86120409D01*
X103813393Y-86086431D01*
X103830133Y-86055113D01*
X103852661Y-86027661D01*
X103880113Y-86005133D01*
X103911431Y-85988393D01*
X103945409Y-85978085D01*
X103986890Y-85974000D01*
X104588110Y-85974000D01*
X104629591Y-85978085D01*
X104629591Y-85978085D01*
G37*
G36*
X103054591Y-85978085D02*
X103088569Y-85988393D01*
X103119887Y-86005133D01*
X103147339Y-86027661D01*
X103169867Y-86055113D01*
X103186607Y-86086431D01*
X103196915Y-86120409D01*
X103201000Y-86161890D01*
X103201000Y-86838110D01*
X103196915Y-86879591D01*
X103186607Y-86913569D01*
X103169867Y-86944887D01*
X103147339Y-86972339D01*
X103119887Y-86994867D01*
X103088569Y-87011607D01*
X103054591Y-87021915D01*
X103013110Y-87026000D01*
X102411890Y-87026000D01*
X102370409Y-87021915D01*
X102336431Y-87011607D01*
X102305113Y-86994867D01*
X102277661Y-86972339D01*
X102255133Y-86944887D01*
X102238393Y-86913569D01*
X102228085Y-86879591D01*
X102224000Y-86838110D01*
X102224000Y-86161890D01*
X102228085Y-86120409D01*
X102238393Y-86086431D01*
X102255133Y-86055113D01*
X102277661Y-86027661D01*
X102305113Y-86005133D01*
X102336431Y-85988393D01*
X102370409Y-85978085D01*
X102411890Y-85974000D01*
X103013110Y-85974000D01*
X103054591Y-85978085D01*
X103054591Y-85978085D01*
G37*
G36*
X97660442Y-84885518D02*
X97726627Y-84892037D01*
X97839853Y-84926384D01*
X97896467Y-84943557D01*
X97973693Y-84984836D01*
X98052991Y-85027222D01*
X98088729Y-85056552D01*
X98190186Y-85139814D01*
X98273448Y-85241271D01*
X98302778Y-85277009D01*
X98302779Y-85277011D01*
X98386443Y-85433533D01*
X98386443Y-85433534D01*
X98437963Y-85603373D01*
X98455359Y-85780000D01*
X98437963Y-85956627D01*
X98427053Y-85992592D01*
X98386443Y-86126467D01*
X98337383Y-86218250D01*
X98302778Y-86282991D01*
X98273448Y-86318729D01*
X98190186Y-86420186D01*
X98088729Y-86503448D01*
X98052991Y-86532778D01*
X98052989Y-86532779D01*
X97896467Y-86616443D01*
X97839853Y-86633616D01*
X97726627Y-86667963D01*
X97660443Y-86674481D01*
X97594260Y-86681000D01*
X97505740Y-86681000D01*
X97439557Y-86674481D01*
X97373373Y-86667963D01*
X97260147Y-86633616D01*
X97203533Y-86616443D01*
X97047011Y-86532779D01*
X97047009Y-86532778D01*
X97011271Y-86503448D01*
X96909814Y-86420186D01*
X96826552Y-86318729D01*
X96797222Y-86282991D01*
X96762617Y-86218250D01*
X96713557Y-86126467D01*
X96672947Y-85992592D01*
X96662037Y-85956627D01*
X96644641Y-85780000D01*
X96662037Y-85603373D01*
X96713557Y-85433534D01*
X96713557Y-85433533D01*
X96797221Y-85277011D01*
X96797222Y-85277009D01*
X96826552Y-85241271D01*
X96909814Y-85139814D01*
X97011271Y-85056552D01*
X97047009Y-85027222D01*
X97126307Y-84984836D01*
X97203533Y-84943557D01*
X97260147Y-84926384D01*
X97373373Y-84892037D01*
X97439558Y-84885518D01*
X97505740Y-84879000D01*
X97594260Y-84879000D01*
X97660442Y-84885518D01*
X97660442Y-84885518D01*
G37*
G36*
X95120442Y-84885518D02*
X95186627Y-84892037D01*
X95299853Y-84926384D01*
X95356467Y-84943557D01*
X95433693Y-84984836D01*
X95512991Y-85027222D01*
X95548729Y-85056552D01*
X95650186Y-85139814D01*
X95733448Y-85241271D01*
X95762778Y-85277009D01*
X95762779Y-85277011D01*
X95846443Y-85433533D01*
X95846443Y-85433534D01*
X95897963Y-85603373D01*
X95915359Y-85780000D01*
X95897963Y-85956627D01*
X95887053Y-85992592D01*
X95846443Y-86126467D01*
X95797383Y-86218250D01*
X95762778Y-86282991D01*
X95733448Y-86318729D01*
X95650186Y-86420186D01*
X95548729Y-86503448D01*
X95512991Y-86532778D01*
X95512989Y-86532779D01*
X95356467Y-86616443D01*
X95299853Y-86633616D01*
X95186627Y-86667963D01*
X95120443Y-86674481D01*
X95054260Y-86681000D01*
X94965740Y-86681000D01*
X94899557Y-86674481D01*
X94833373Y-86667963D01*
X94720147Y-86633616D01*
X94663533Y-86616443D01*
X94507011Y-86532779D01*
X94507009Y-86532778D01*
X94471271Y-86503448D01*
X94369814Y-86420186D01*
X94286552Y-86318729D01*
X94257222Y-86282991D01*
X94222617Y-86218250D01*
X94173557Y-86126467D01*
X94132947Y-85992592D01*
X94122037Y-85956627D01*
X94104641Y-85780000D01*
X94122037Y-85603373D01*
X94173557Y-85433534D01*
X94173557Y-85433533D01*
X94257221Y-85277011D01*
X94257222Y-85277009D01*
X94286552Y-85241271D01*
X94369814Y-85139814D01*
X94471271Y-85056552D01*
X94507009Y-85027222D01*
X94586307Y-84984836D01*
X94663533Y-84943557D01*
X94720147Y-84926384D01*
X94833373Y-84892037D01*
X94899558Y-84885518D01*
X94965740Y-84879000D01*
X95054260Y-84879000D01*
X95120442Y-84885518D01*
X95120442Y-84885518D01*
G37*
G36*
X120454591Y-83978085D02*
X120488569Y-83988393D01*
X120519887Y-84005133D01*
X120547339Y-84027661D01*
X120569867Y-84055113D01*
X120586607Y-84086431D01*
X120596915Y-84120409D01*
X120601000Y-84161890D01*
X120601000Y-84838110D01*
X120596915Y-84879591D01*
X120586607Y-84913569D01*
X120569867Y-84944887D01*
X120547339Y-84972339D01*
X120519887Y-84994867D01*
X120488569Y-85011607D01*
X120454591Y-85021915D01*
X120413110Y-85026000D01*
X119811890Y-85026000D01*
X119770409Y-85021915D01*
X119736431Y-85011607D01*
X119705113Y-84994867D01*
X119677661Y-84972339D01*
X119655133Y-84944887D01*
X119638393Y-84913569D01*
X119628085Y-84879591D01*
X119624000Y-84838110D01*
X119624000Y-84161890D01*
X119628085Y-84120409D01*
X119638393Y-84086431D01*
X119655133Y-84055113D01*
X119677661Y-84027661D01*
X119705113Y-84005133D01*
X119736431Y-83988393D01*
X119770409Y-83978085D01*
X119811890Y-83974000D01*
X120413110Y-83974000D01*
X120454591Y-83978085D01*
X120454591Y-83978085D01*
G37*
G36*
X103054591Y-83978085D02*
X103088569Y-83988393D01*
X103119887Y-84005133D01*
X103147339Y-84027661D01*
X103169867Y-84055113D01*
X103186607Y-84086431D01*
X103196915Y-84120409D01*
X103201000Y-84161890D01*
X103201000Y-84838110D01*
X103196915Y-84879591D01*
X103186607Y-84913569D01*
X103169867Y-84944887D01*
X103147339Y-84972339D01*
X103119887Y-84994867D01*
X103088569Y-85011607D01*
X103054591Y-85021915D01*
X103013110Y-85026000D01*
X102411890Y-85026000D01*
X102370409Y-85021915D01*
X102336431Y-85011607D01*
X102305113Y-84994867D01*
X102277661Y-84972339D01*
X102255133Y-84944887D01*
X102238393Y-84913569D01*
X102228085Y-84879591D01*
X102224000Y-84838110D01*
X102224000Y-84161890D01*
X102228085Y-84120409D01*
X102238393Y-84086431D01*
X102255133Y-84055113D01*
X102277661Y-84027661D01*
X102305113Y-84005133D01*
X102336431Y-83988393D01*
X102370409Y-83978085D01*
X102411890Y-83974000D01*
X103013110Y-83974000D01*
X103054591Y-83978085D01*
X103054591Y-83978085D01*
G37*
G36*
X104629591Y-83978085D02*
X104663569Y-83988393D01*
X104694887Y-84005133D01*
X104722339Y-84027661D01*
X104744867Y-84055113D01*
X104761607Y-84086431D01*
X104771915Y-84120409D01*
X104776000Y-84161890D01*
X104776000Y-84838110D01*
X104771915Y-84879591D01*
X104761607Y-84913569D01*
X104744867Y-84944887D01*
X104722339Y-84972339D01*
X104694887Y-84994867D01*
X104663569Y-85011607D01*
X104629591Y-85021915D01*
X104588110Y-85026000D01*
X103986890Y-85026000D01*
X103945409Y-85021915D01*
X103911431Y-85011607D01*
X103880113Y-84994867D01*
X103852661Y-84972339D01*
X103830133Y-84944887D01*
X103813393Y-84913569D01*
X103803085Y-84879591D01*
X103799000Y-84838110D01*
X103799000Y-84161890D01*
X103803085Y-84120409D01*
X103813393Y-84086431D01*
X103830133Y-84055113D01*
X103852661Y-84027661D01*
X103880113Y-84005133D01*
X103911431Y-83988393D01*
X103945409Y-83978085D01*
X103986890Y-83974000D01*
X104588110Y-83974000D01*
X104629591Y-83978085D01*
X104629591Y-83978085D01*
G37*
G36*
X122029591Y-83978085D02*
X122063569Y-83988393D01*
X122094887Y-84005133D01*
X122122339Y-84027661D01*
X122144867Y-84055113D01*
X122161607Y-84086431D01*
X122171915Y-84120409D01*
X122176000Y-84161890D01*
X122176000Y-84838110D01*
X122171915Y-84879591D01*
X122161607Y-84913569D01*
X122144867Y-84944887D01*
X122122339Y-84972339D01*
X122094887Y-84994867D01*
X122063569Y-85011607D01*
X122029591Y-85021915D01*
X121988110Y-85026000D01*
X121386890Y-85026000D01*
X121345409Y-85021915D01*
X121311431Y-85011607D01*
X121280113Y-84994867D01*
X121252661Y-84972339D01*
X121230133Y-84944887D01*
X121213393Y-84913569D01*
X121203085Y-84879591D01*
X121199000Y-84838110D01*
X121199000Y-84161890D01*
X121203085Y-84120409D01*
X121213393Y-84086431D01*
X121230133Y-84055113D01*
X121252661Y-84027661D01*
X121280113Y-84005133D01*
X121311431Y-83988393D01*
X121345409Y-83978085D01*
X121386890Y-83974000D01*
X121988110Y-83974000D01*
X122029591Y-83978085D01*
X122029591Y-83978085D01*
G37*
G36*
X95120442Y-82345518D02*
X95186627Y-82352037D01*
X95299853Y-82386384D01*
X95356467Y-82403557D01*
X95495087Y-82477652D01*
X95512991Y-82487222D01*
X95548729Y-82516552D01*
X95650186Y-82599814D01*
X95733448Y-82701271D01*
X95762778Y-82737009D01*
X95762779Y-82737011D01*
X95846443Y-82893533D01*
X95858309Y-82932650D01*
X95897963Y-83063373D01*
X95915359Y-83240000D01*
X95897963Y-83416627D01*
X95863616Y-83529853D01*
X95846443Y-83586467D01*
X95772348Y-83725087D01*
X95762778Y-83742991D01*
X95733448Y-83778729D01*
X95650186Y-83880186D01*
X95548729Y-83963448D01*
X95512991Y-83992778D01*
X95512989Y-83992779D01*
X95356467Y-84076443D01*
X95323540Y-84086431D01*
X95186627Y-84127963D01*
X95120442Y-84134482D01*
X95054260Y-84141000D01*
X94965740Y-84141000D01*
X94899558Y-84134482D01*
X94833373Y-84127963D01*
X94696460Y-84086431D01*
X94663533Y-84076443D01*
X94507011Y-83992779D01*
X94507009Y-83992778D01*
X94471271Y-83963448D01*
X94369814Y-83880186D01*
X94286552Y-83778729D01*
X94257222Y-83742991D01*
X94247652Y-83725087D01*
X94173557Y-83586467D01*
X94156384Y-83529853D01*
X94122037Y-83416627D01*
X94104641Y-83240000D01*
X94122037Y-83063373D01*
X94161691Y-82932650D01*
X94173557Y-82893533D01*
X94257221Y-82737011D01*
X94257222Y-82737009D01*
X94286552Y-82701271D01*
X94369814Y-82599814D01*
X94471271Y-82516552D01*
X94507009Y-82487222D01*
X94524913Y-82477652D01*
X94663533Y-82403557D01*
X94720147Y-82386384D01*
X94833373Y-82352037D01*
X94899558Y-82345518D01*
X94965740Y-82339000D01*
X95054260Y-82339000D01*
X95120442Y-82345518D01*
X95120442Y-82345518D01*
G37*
G36*
X97660442Y-82345518D02*
X97726627Y-82352037D01*
X97839853Y-82386384D01*
X97896467Y-82403557D01*
X98035087Y-82477652D01*
X98052991Y-82487222D01*
X98088729Y-82516552D01*
X98190186Y-82599814D01*
X98273448Y-82701271D01*
X98302778Y-82737009D01*
X98302779Y-82737011D01*
X98386443Y-82893533D01*
X98398309Y-82932650D01*
X98437963Y-83063373D01*
X98455359Y-83240000D01*
X98437963Y-83416627D01*
X98403616Y-83529853D01*
X98386443Y-83586467D01*
X98312348Y-83725087D01*
X98302778Y-83742991D01*
X98273448Y-83778729D01*
X98190186Y-83880186D01*
X98088729Y-83963448D01*
X98052991Y-83992778D01*
X98052989Y-83992779D01*
X97896467Y-84076443D01*
X97863540Y-84086431D01*
X97726627Y-84127963D01*
X97660442Y-84134482D01*
X97594260Y-84141000D01*
X97505740Y-84141000D01*
X97439558Y-84134482D01*
X97373373Y-84127963D01*
X97236460Y-84086431D01*
X97203533Y-84076443D01*
X97047011Y-83992779D01*
X97047009Y-83992778D01*
X97011271Y-83963448D01*
X96909814Y-83880186D01*
X96826552Y-83778729D01*
X96797222Y-83742991D01*
X96787652Y-83725087D01*
X96713557Y-83586467D01*
X96696384Y-83529853D01*
X96662037Y-83416627D01*
X96644641Y-83240000D01*
X96662037Y-83063373D01*
X96701691Y-82932650D01*
X96713557Y-82893533D01*
X96797221Y-82737011D01*
X96797222Y-82737009D01*
X96826552Y-82701271D01*
X96909814Y-82599814D01*
X97011271Y-82516552D01*
X97047009Y-82487222D01*
X97064913Y-82477652D01*
X97203533Y-82403557D01*
X97260147Y-82386384D01*
X97373373Y-82352037D01*
X97439558Y-82345518D01*
X97505740Y-82339000D01*
X97594260Y-82339000D01*
X97660442Y-82345518D01*
X97660442Y-82345518D01*
G37*
G36*
X103054591Y-81956274D02*
X103088569Y-81966582D01*
X103119887Y-81983322D01*
X103147339Y-82005850D01*
X103169867Y-82033302D01*
X103186607Y-82064620D01*
X103196915Y-82098598D01*
X103201000Y-82140079D01*
X103201000Y-82816299D01*
X103196915Y-82857780D01*
X103186607Y-82891758D01*
X103169867Y-82923076D01*
X103147339Y-82950528D01*
X103119887Y-82973056D01*
X103088569Y-82989796D01*
X103054591Y-83000104D01*
X103013110Y-83004189D01*
X102411890Y-83004189D01*
X102370409Y-83000104D01*
X102336431Y-82989796D01*
X102305113Y-82973056D01*
X102277661Y-82950528D01*
X102255133Y-82923076D01*
X102238393Y-82891758D01*
X102228085Y-82857780D01*
X102224000Y-82816299D01*
X102224000Y-82140079D01*
X102228085Y-82098598D01*
X102238393Y-82064620D01*
X102255133Y-82033302D01*
X102277661Y-82005850D01*
X102305113Y-81983322D01*
X102336431Y-81966582D01*
X102370409Y-81956274D01*
X102411890Y-81952189D01*
X103013110Y-81952189D01*
X103054591Y-81956274D01*
X103054591Y-81956274D01*
G37*
G36*
X104629591Y-81956274D02*
X104663569Y-81966582D01*
X104694887Y-81983322D01*
X104722339Y-82005850D01*
X104744867Y-82033302D01*
X104761607Y-82064620D01*
X104771915Y-82098598D01*
X104776000Y-82140079D01*
X104776000Y-82816299D01*
X104771915Y-82857780D01*
X104761607Y-82891758D01*
X104744867Y-82923076D01*
X104722339Y-82950528D01*
X104694887Y-82973056D01*
X104663569Y-82989796D01*
X104629591Y-83000104D01*
X104588110Y-83004189D01*
X103986890Y-83004189D01*
X103945409Y-83000104D01*
X103911431Y-82989796D01*
X103880113Y-82973056D01*
X103852661Y-82950528D01*
X103830133Y-82923076D01*
X103813393Y-82891758D01*
X103803085Y-82857780D01*
X103799000Y-82816299D01*
X103799000Y-82140079D01*
X103803085Y-82098598D01*
X103813393Y-82064620D01*
X103830133Y-82033302D01*
X103852661Y-82005850D01*
X103880113Y-81983322D01*
X103911431Y-81966582D01*
X103945409Y-81956274D01*
X103986890Y-81952189D01*
X104588110Y-81952189D01*
X104629591Y-81956274D01*
X104629591Y-81956274D01*
G37*
G36*
X120454591Y-81956274D02*
X120488569Y-81966582D01*
X120519887Y-81983322D01*
X120547339Y-82005850D01*
X120569867Y-82033302D01*
X120586607Y-82064620D01*
X120596915Y-82098598D01*
X120601000Y-82140079D01*
X120601000Y-82816299D01*
X120596915Y-82857780D01*
X120586607Y-82891758D01*
X120569867Y-82923076D01*
X120547339Y-82950528D01*
X120519887Y-82973056D01*
X120488569Y-82989796D01*
X120454591Y-83000104D01*
X120413110Y-83004189D01*
X119811890Y-83004189D01*
X119770409Y-83000104D01*
X119736431Y-82989796D01*
X119705113Y-82973056D01*
X119677661Y-82950528D01*
X119655133Y-82923076D01*
X119638393Y-82891758D01*
X119628085Y-82857780D01*
X119624000Y-82816299D01*
X119624000Y-82140079D01*
X119628085Y-82098598D01*
X119638393Y-82064620D01*
X119655133Y-82033302D01*
X119677661Y-82005850D01*
X119705113Y-81983322D01*
X119736431Y-81966582D01*
X119770409Y-81956274D01*
X119811890Y-81952189D01*
X120413110Y-81952189D01*
X120454591Y-81956274D01*
X120454591Y-81956274D01*
G37*
G36*
X122029591Y-81956274D02*
X122063569Y-81966582D01*
X122094887Y-81983322D01*
X122122339Y-82005850D01*
X122144867Y-82033302D01*
X122161607Y-82064620D01*
X122171915Y-82098598D01*
X122176000Y-82140079D01*
X122176000Y-82816299D01*
X122171915Y-82857780D01*
X122161607Y-82891758D01*
X122144867Y-82923076D01*
X122122339Y-82950528D01*
X122094887Y-82973056D01*
X122063569Y-82989796D01*
X122029591Y-83000104D01*
X121988110Y-83004189D01*
X121386890Y-83004189D01*
X121345409Y-83000104D01*
X121311431Y-82989796D01*
X121280113Y-82973056D01*
X121252661Y-82950528D01*
X121230133Y-82923076D01*
X121213393Y-82891758D01*
X121203085Y-82857780D01*
X121199000Y-82816299D01*
X121199000Y-82140079D01*
X121203085Y-82098598D01*
X121213393Y-82064620D01*
X121230133Y-82033302D01*
X121252661Y-82005850D01*
X121280113Y-81983322D01*
X121311431Y-81966582D01*
X121345409Y-81956274D01*
X121386890Y-81952189D01*
X121988110Y-81952189D01*
X122029591Y-81956274D01*
X122029591Y-81956274D01*
G37*
M02*
